<svg width="72" height="70" viewBox="0 0 72 70" fill="none" xmlns="http://www.w3.org/2000/svg">
<g clip-path="url(#clip0_21_1519)">
<path d="M5.2 65.75H14.12V67.85H5.2V65.75ZM2.32 28.55C2.17 28.41 2.09 28.22 2.09 28.02V20.1H17.22V28.02C17.22 28.22 17.14 28.41 16.99 28.55L14.72 30.77H4.59L2.32 28.54V28.55ZM2.64 15.33H16.69C16.99 15.33 17.23 15.57 17.23 15.86V18.04H2.09V15.86C2.09 15.57 2.33 15.33 2.63 15.33M35.86 40.95H35.91C46.04 40.95 55.82 44.53 63.63 51.05H16.21V45.7C22.25 42.6 29.03 40.96 35.86 40.96M50.85 53.11H52.81V67.85H50.85V53.11ZM42.39 53.11H48.77V67.85H42.39V53.11ZM38.34 53.11H40.3V67.85H38.34V53.11ZM29.87 53.11H36.25V67.85H29.87V53.11ZM25.82 53.11H27.78V67.85H25.82V53.11ZM16.2 53.11H23.73V67.85H16.2V53.11ZM5.19 57.64H14.12V63.7H5.2V57.64H5.19ZM5.19 37.15H14.12V45.1H5.2V37.15H5.19ZM14.1 55.59H5.2V47.14H14.12V55.59H14.1ZM14.1 35.1H5.2V32.83H14.12V35.1H14.1ZM61.25 67.85H54.88V53.11H61.25V67.85ZM70.2 67.85H67.38V63.12C67.38 62.56 66.91 62.1 66.34 62.1C65.77 62.1 65.29 62.56 65.29 63.12V67.85H63.33V53.11H65.29V58.76C65.29 59.32 65.76 59.78 66.34 59.78C66.92 59.78 67.38 59.32 67.38 58.76V54.02C67.38 54.02 67.47 54.02 67.51 54.02C67.53 54.02 67.55 54.02 67.58 54.02C67.96 54 68.31 53.84 68.57 53.57L70.74 51.24C71.27 50.67 71.23 49.79 70.65 49.27L68.81 47.63C66.67 45.72 64.34 43.98 61.89 42.46C61.4 42.16 60.76 42.3 60.45 42.78C60.14 43.26 60.29 43.89 60.77 44.19C63.12 45.65 65.35 47.31 67.4 49.14L68.75 50.34L67.48 51.7L66.11 50.48C57.75 43.01 47.01 38.9 35.89 38.9H35.84C29.03 38.9 22.27 40.46 16.19 43.4V41.35C22.3 38.55 29.08 37.07 35.84 37.06H35.89C43.14 37.06 50.44 38.79 56.98 42.06C57.13 42.14 57.3 42.17 57.46 42.17C57.84 42.17 58.21 41.97 58.39 41.61C58.65 41.11 58.45 40.49 57.93 40.23C51.09 36.81 43.47 35 35.89 35H35.84C29.1 35 22.34 36.42 16.19 39.09V32.2L18.46 29.97C19 29.44 19.3 28.74 19.3 27.99V15.87C19.3 14.45 18.12 13.29 16.67 13.29H13.36V7.91C13.36 7.35 12.89 6.89 12.31 6.89C11.73 6.89 11.27 7.35 11.27 7.91V13.29H7.61V1.02C7.61 0.45 7.14 0 6.56 0C5.98 0 5.51 0.46 5.51 1.02V13.29H2.63C1.18 13.29 0 14.45 0 15.87V28.02C0 28.77 0.3 29.47 0.84 30L3.11 32.22V67.84H1.05C0.47 67.84 0 68.3 0 68.86C0 69.42 0.47 69.88 1.05 69.88H70.22C70.8 69.88 71.27 69.42 71.27 68.86C71.27 68.3 70.8 67.84 70.22 67.84" fill="white"/>
<path d="M4.74995 24.17H5.98995C6.56995 24.17 7.02995 23.71 7.02995 23.15C7.02995 22.59 6.55995 22.13 5.98995 22.13H4.74995C4.16995 22.13 3.69995 22.59 3.69995 23.15C3.69995 23.71 4.16995 24.17 4.74995 24.17Z" fill="white"/>
<path d="M13.4101 24.17H14.6501C15.2301 24.17 15.6901 23.71 15.6901 23.15C15.6901 22.59 15.2201 22.13 14.6501 22.13H13.4101C12.8301 22.13 12.3601 22.59 12.3601 23.15C12.3601 23.71 12.8301 24.17 13.4101 24.17Z" fill="white"/>
<path d="M42.7799 23.26H49.0499V24.97H42.7799C42.2999 24.97 41.9099 24.59 41.9099 24.12C41.9099 23.65 42.2999 23.27 42.7799 23.27M34.7899 24.18H39.8199C39.8499 25.75 41.1699 27.02 42.7799 27.02H49.2699C50.2999 27.02 51.1499 26.2 51.1499 25.19V24.18H57.8099C59.3399 24.18 60.6699 23.17 61.0399 21.72L62.7699 15.08C62.9099 14.56 62.7899 14.02 62.4599 13.6C62.1199 13.18 61.6199 12.94 61.0699 12.94H58.8099C58.2799 12.94 57.7799 13.17 57.4499 13.57L54.4699 17.16H43.5599C42.9799 17.16 42.5099 17.62 42.5099 18.18C42.5099 18.74 42.9799 19.2 43.5599 19.2H54.9699C55.2799 19.2 55.5799 19.06 55.7799 18.82L58.9799 14.98H60.6399L59.0099 21.21C58.8699 21.75 58.3699 22.13 57.7999 22.13H50.8799C50.5499 21.59 49.9499 21.22 49.2599 21.22H42.7699C41.9199 21.22 41.1599 21.57 40.6199 22.13H34.7799C33.9599 22.13 33.2899 21.47 33.2899 20.67C33.2899 19.87 33.9599 19.21 34.7799 19.21H39.0899C39.6699 19.21 40.1399 18.75 40.1399 18.19C40.1399 17.63 39.6699 17.17 39.0899 17.17H34.7799C32.7999 17.17 31.1899 18.74 31.1899 20.68C31.1899 22.62 32.7999 24.19 34.7799 24.19" fill="white"/>
</g>
<defs>
<clipPath id="clip0_21_1519">
<rect width="71.27" height="69.9" fill="white"/>
</clipPath>
</defs>
</svg>
