<svg width="61" height="61" viewBox="0 0 61 61" fill="none" xmlns="http://www.w3.org/2000/svg">
<g clip-path="url(#clip0_21_1506)">
<path d="M48.66 58.59C43.18 58.59 38.73 54.14 38.73 48.66C38.73 43.18 43.19 38.73 48.66 38.73C54.13 38.73 58.59 43.19 58.59 48.66C58.59 54.13 54.13 58.59 48.66 58.59ZM44.69 36.74H40.72V32.77H44.69V36.74ZM4.97 52.63C3.33 52.63 1.99 51.29 1.99 49.65V16.88H51.64V37.13C50.69 36.88 49.69 36.74 48.66 36.74C47.98 36.74 47.32 36.81 46.67 36.92V31.77C46.67 31.22 46.23 30.78 45.68 30.78H39.72C39.17 30.78 38.73 31.22 38.73 31.77V37.73C38.73 38.28 39.17 38.72 39.72 38.72H42.08C38.86 40.86 36.74 44.51 36.74 48.65C36.74 50.05 36.99 51.38 37.44 52.62H4.97V52.63ZM4.97 6.95H6.96V8.94C6.96 10.58 8.3 11.92 9.94 11.92C11.58 11.92 12.92 10.58 12.92 8.94V6.95H17.88V8.94C17.88 10.58 19.22 11.92 20.86 11.92C22.5 11.92 23.84 10.58 23.84 8.94V6.95H29.8V8.94C29.8 10.58 31.14 11.92 32.78 11.92C34.42 11.92 35.76 10.58 35.76 8.94V6.95H40.72V8.94C40.72 10.58 42.06 11.92 43.7 11.92C45.34 11.92 46.68 10.58 46.68 8.94V6.95H48.67C50.31 6.95 51.65 8.29 51.65 9.93V14.9H1.99V9.93C1.99 8.29 3.33 6.95 4.97 6.95ZM8.94 2.98C8.94 2.43 9.39 1.99 9.93 1.99C10.47 1.99 10.92 2.44 10.92 2.98V8.94C10.92 9.49 10.47 9.93 9.93 9.93C9.39 9.93 8.94 9.48 8.94 8.94V2.98ZM19.86 2.98C19.86 2.43 20.31 1.99 20.85 1.99C21.39 1.99 21.84 2.44 21.84 2.98V8.94C21.84 9.49 21.4 9.93 20.85 9.93C20.3 9.93 19.86 9.48 19.86 8.94V2.98ZM31.78 2.98C31.78 2.43 32.23 1.99 32.77 1.99C33.31 1.99 33.76 2.44 33.76 2.98V8.94C33.76 9.49 33.31 9.93 32.77 9.93C32.23 9.93 31.78 9.48 31.78 8.94V2.98ZM42.7 2.98C42.7 2.43 43.15 1.99 43.69 1.99C44.23 1.99 44.68 2.44 44.68 2.98V8.94C44.68 9.49 44.23 9.93 43.69 9.93C43.15 9.93 42.7 9.48 42.7 8.94V2.98ZM53.62 37.84V9.93C53.62 7.19 51.39 4.96 48.65 4.96H46.66V2.97C46.66 1.33 45.32 -0.0100021 43.68 -0.0100021C42.04 -0.0100021 40.7 1.33 40.7 2.97V4.96H35.74V2.97C35.74 1.33 34.4 -0.0100021 32.76 -0.0100021C31.12 -0.0100021 29.78 1.33 29.78 2.97V4.96H23.82V2.97C23.82 1.33 22.48 -0.0100021 20.84 -0.0100021C19.2 -0.0100021 17.86 1.33 17.86 2.97V4.96H12.9V2.97C12.9 1.33 11.56 -0.0100021 9.92 -0.0100021C8.28 -0.0100021 6.94 1.33 6.94 2.97V4.96H4.95C2.23 4.97 0 7.19 0 9.93V49.65C0 52.39 2.23 54.62 4.97 54.62H38.36C40.42 58.18 44.26 60.58 48.66 60.58C55.23 60.58 60.58 55.24 60.58 48.66C60.58 43.86 57.72 39.73 53.63 37.84" fill="#0A2E45"/>
<path d="M49.6501 46.95V40.72H47.6601V46.95C47.0701 47.29 46.6701 47.93 46.6701 48.66C46.6701 48.76 46.6801 48.86 46.7001 48.95L43.0701 51.85L44.3101 53.4L47.9401 50.5C48.1601 50.59 48.4001 50.64 48.6601 50.64C49.7601 50.64 50.6501 49.75 50.6501 48.65C50.6501 47.92 50.2501 47.28 49.6601 46.94" fill="#0A2E45"/>
<path d="M11.92 25.82H7.94996V21.85H11.92V25.82ZM12.91 19.86H6.94996C6.39996 19.86 5.95996 20.3 5.95996 20.85V26.81C5.95996 27.36 6.40996 27.8 6.94996 27.8H12.91C13.46 27.8 13.9 27.35 13.9 26.81V20.85C13.9 20.3 13.46 19.86 12.91 19.86Z" fill="#0A2E45"/>
<path d="M22.8399 25.82H18.8699V21.85H22.8399V25.82ZM23.8299 19.86H17.8699C17.3199 19.86 16.8799 20.3 16.8799 20.85V26.81C16.8799 27.36 17.3299 27.8 17.8699 27.8H23.8299C24.3799 27.8 24.8199 27.35 24.8199 26.81V20.85C24.8199 20.3 24.3799 19.86 23.8299 19.86Z" fill="#0A2E45"/>
<path d="M33.76 25.82H29.7901V21.85H33.76V25.82ZM34.75 19.86H28.7901C28.2401 19.86 27.8 20.3 27.8 20.85V26.81C27.8 27.36 28.2501 27.8 28.7901 27.8H34.75C35.3 27.8 35.7401 27.35 35.7401 26.81V20.85C35.7401 20.3 35.3 19.86 34.75 19.86Z" fill="#0A2E45"/>
<path d="M40.72 21.85H44.69V25.82H40.72V21.85ZM39.73 27.81H45.69C46.24 27.81 46.68 27.37 46.68 26.82V20.86C46.68 20.31 46.23 19.87 45.69 19.87H39.73C39.18 19.87 38.74 20.31 38.74 20.86V26.82C38.74 27.37 39.18 27.81 39.73 27.81Z" fill="#0A2E45"/>
<path d="M11.92 36.74H7.94996V32.77H11.92V36.74ZM12.91 30.78H6.94996C6.39996 30.78 5.95996 31.22 5.95996 31.77V37.73C5.95996 38.28 6.40996 38.72 6.94996 38.72H12.91C13.46 38.72 13.9 38.27 13.9 37.73V31.77C13.9 31.22 13.46 30.78 12.91 30.78Z" fill="#0A2E45"/>
<path d="M22.8399 36.74H18.8699V32.77H22.8399V36.74ZM23.8299 30.78H17.8699C17.3199 30.78 16.8799 31.22 16.8799 31.77V37.73C16.8799 38.28 17.3299 38.72 17.8699 38.72H23.8299C24.3799 38.72 24.8199 38.27 24.8199 37.73V31.77C24.8199 31.22 24.3799 30.78 23.8299 30.78Z" fill="#0A2E45"/>
<path d="M33.76 36.74H29.7901V32.77H33.76V36.74ZM34.75 30.78H28.7901C28.2401 30.78 27.8 31.22 27.8 31.77V37.73C27.8 38.28 28.2501 38.72 28.7901 38.72H34.75C35.3 38.72 35.7401 38.27 35.7401 37.73V31.77C35.7401 31.22 35.3 30.78 34.75 30.78Z" fill="#0A2E45"/>
<path d="M11.92 47.67H7.94996V43.7H11.92V47.67ZM12.91 41.71H6.94996C6.39996 41.71 5.95996 42.15 5.95996 42.7V48.66C5.95996 49.21 6.40996 49.65 6.94996 49.65H12.91C13.46 49.65 13.9 49.2 13.9 48.66V42.7C13.9 42.15 13.46 41.71 12.91 41.71Z" fill="#0A2E45"/>
<path d="M22.8399 47.67H18.8699V43.7H22.8399V47.67ZM23.8299 41.71H17.8699C17.3199 41.71 16.8799 42.15 16.8799 42.7V48.66C16.8799 49.21 17.3299 49.65 17.8699 49.65H23.8299C24.3799 49.65 24.8199 49.2 24.8199 48.66V42.7C24.8199 42.15 24.3799 41.71 23.8299 41.71Z" fill="#0A2E45"/>
<path d="M33.76 47.67H29.7901V43.7H33.76V47.67ZM34.75 41.71H28.7901C28.2401 41.71 27.8 42.15 27.8 42.7V48.66C27.8 49.21 28.2501 49.65 28.7901 49.65H34.75C35.3 49.65 35.7401 49.2 35.7401 48.66V42.7C35.7401 42.15 35.3 41.71 34.75 41.71Z" fill="#0A2E45"/>
</g>
<defs>
<clipPath id="clip0_21_1506">
<rect width="60.58" height="60.58" fill="white"/>
</clipPath>
</defs>
</svg>
