<svg width="81" height="83" viewBox="0 0 81 83" fill="none" xmlns="http://www.w3.org/2000/svg">
<g clip-path="url(#clip0_21_1546)">
<path d="M63.99 70.8C63.7 71.03 63.53 71.38 63.51 71.75C63.49 72.12 63.63 72.48 63.89 72.75L65.27 74.14L57.26 75.1L58.21 67L59.04 67.84C59.5 68.31 60.24 68.35 60.76 67.95C68.95 61.51 73.65 51.8 73.65 41.33C73.65 22.74 58.69 7.60997 40.3 7.60997C35.16 7.60997 30.1 8.80997 25.53 11.09L25.99 7.19997C26.03 6.86997 25.99 6.54997 25.88 6.24997C30.44 4.32997 35.27 3.34997 40.3 3.34997C61.01 3.34997 77.86 20.39 77.86 41.33C77.86 52.8 72.81 63.55 64 70.8M18.8 57.76C20.88 60.68 23.03 63.7 26.11 65.71C28.4 67.2 30.94 67.93 33.81 67.93C33.93 67.93 34.05 67.93 34.16 67.93C35.63 68.27 37.12 68.49 38.63 68.59C39.35 69.8 39.94 71.07 40.43 72.43C40.38 72.43 40.34 72.43 40.29 72.43C26.18 72.43 14.26 62.77 10.66 49.65C10.83 50.03 11.14 50.35 11.55 50.52C14.48 51.71 16.58 54.65 18.79 57.77M15.93 42.66H23.97C24.02 43.89 24.14 45.1 24.33 46.3C21.61 46.01 18.87 46.16 16.44 46.5C16.17 45.24 16.01 43.95 15.94 42.66M22.04 25C23.61 25.91 25.34 26.67 27.18 27.3C25.25 31.26 24.15 35.6 23.98 40.03H15.92C16.22 34.28 18.47 29.05 22.02 25M28.42 24.98C26.82 24.46 25.31 23.82 23.91 23.06C26.96 20.27 30.7 18.24 34.85 17.28C32.32 19.48 30.14 22.08 28.42 24.97M52.15 24.97C50.42 22.08 48.24 19.48 45.72 17.28C49.87 18.24 53.61 20.26 56.66 23.06C55.27 23.81 53.75 24.45 52.15 24.98M56.62 40.03C56.45 35.61 55.35 31.26 53.41 27.3C55.25 26.68 56.98 25.91 58.55 25C62.09 29.05 64.35 34.28 64.65 40.02H56.62V40.03ZM64.01 47.12C63.78 46.45 63.16 46 62.44 46.01C60.72 46.05 58.54 46.19 56.22 46.58C56.43 45.29 56.57 43.97 56.62 42.65H64.65C64.57 44.17 64.35 45.66 64.01 47.12ZM58.57 57.68C58.52 57.65 58.46 57.62 58.41 57.59C59.72 54.1 60.98 50.83 63.44 48.97C63.46 48.95 63.48 48.94 63.5 48.92C62.47 52.15 60.79 55.13 58.56 57.68M50.97 57.73C50.46 57.22 49.64 57.22 49.13 57.73C46.29 60.61 44.11 63.28 42.49 65.91C42.2 65.94 41.91 65.96 41.62 65.97C41.6 65.81 41.59 65.64 41.58 65.48V62.46C41.81 59.69 42.68 57.32 44.2 55.38C47.94 50.62 54.89 49.16 59.92 48.76C58.05 51.06 56.94 54.03 55.86 56.93C53.64 62.88 51.52 68.52 43.46 69.51C45.03 66.34 47.44 63.15 50.96 59.59C51.47 59.08 51.47 58.24 50.96 57.73M38.97 42.65V53.32C38.27 53.34 37.56 53.38 36.86 53.43C35.97 52.03 34.89 50.82 33.61 49.81C31.65 48.25 29.38 47.29 27.02 46.75C26.77 45.41 26.61 44.04 26.55 42.66H38.97V42.65ZM38.97 29.33V40.02H26.54C26.72 35.77 27.8 31.7 29.65 28.04C32.61 28.81 35.78 29.24 38.97 29.33ZM38.97 17.37V26.76C36.24 26.68 33.54 26.32 30.98 25.71C33.02 22.47 35.72 19.63 38.97 17.38M41.57 26.77V17.38C44.82 19.64 47.52 22.48 49.56 25.71C47 26.33 44.3 26.68 41.57 26.76M41.57 40.03V29.34C44.76 29.25 47.93 28.82 50.89 28.05C52.75 31.71 53.83 35.78 54 40.03H41.57ZM38.97 58.31C38.75 57.5 38.48 56.73 38.18 56C38.44 55.99 38.71 55.98 38.97 55.97V58.32V58.31ZM42.48 53.37C42.18 53.35 41.87 53.34 41.57 53.33V42.66H54C53.93 44.18 53.75 45.68 53.45 47.16C49.43 48.17 45.31 50.02 42.48 53.37ZM32 51.89C34.85 54.15 36.56 57.68 37.11 62.41C34.72 59.92 31.65 57.63 27.59 55.26C26.97 54.9 26.17 55.11 25.81 55.74C25.45 56.37 25.66 57.17 26.29 57.54C30.5 60 33.7 62.44 36.09 65.15C28.03 66.32 24.55 61.42 20.87 56.25C19.08 53.73 17.24 51.15 14.85 49.42C19.93 48.47 27.17 48.07 31.99 51.9M57.11 63.91C56.35 64.18 55.81 64.84 55.72 65.66L55.4 68.42C51.62 70.59 47.42 71.91 43.08 72.31C43.07 72.28 43.06 72.24 43.05 72.21C47.38 71.82 50.73 70.26 53.25 67.47C54.3 66.31 55.13 65.01 55.84 63.65C63 58.53 67.26 50.22 67.26 41.35C67.26 26.29 55.15 14.05 40.26 14.05C25.37 14.05 13.29 26.28 13.29 41.33C13.29 43.21 13.48 45.08 13.86 46.92C13.1 47.07 12.39 47.23 11.74 47.39C11.06 47.57 10.57 48.16 10.52 48.87C10.52 48.98 10.52 49.08 10.52 49.18C9.87001 46.67 9.53 44.04 9.53 41.33C9.53 32.06 13.52 23.44 20.52 17.51L21.28 18.27C21.85 18.85 22.68 19.04 23.44 18.77C24.2 18.5 24.73 17.84 24.82 17.03L25.14 14.26C29.74 11.63 34.96 10.23 40.28 10.23C57.23 10.23 71.03 24.18 71.03 41.32C71.03 50.59 67.04 59.21 60.04 65.14L59.28 64.38C58.71 63.8 57.89 63.61 57.13 63.88M54.69 76.4C51.44 77.77 48.06 78.66 44.56 79.06C44.38 77.58 44.14 76.18 43.82 74.85C47.73 74.43 51.53 73.32 55.04 71.56L54.59 75.44C54.55 75.77 54.59 76.1 54.69 76.4ZM2.73 41.33C2.73 29.86 7.78 19.12 16.59 11.86C16.88 11.62 17.05 11.28 17.07 10.91C17.09 10.54 16.95 10.18 16.69 9.90997L15.31 8.51997L23.32 7.55997L22.37 15.66L21.54 14.82C21.08 14.35 20.34 14.3 19.82 14.71C11.63 21.15 6.94 30.85 6.94 41.33C6.94 59.93 21.9 75.05 40.29 75.05C40.6 75.05 40.91 75.05 41.22 75.04C41.55 76.37 41.8 77.77 41.98 79.27C41.42 79.29 40.85 79.31 40.29 79.31C19.58 79.31 2.73 62.27 2.73 41.33ZM80.45 41.33C80.45 30.48 76.27 20.28 68.69 12.61C61.11 4.94997 51.02 0.719971 40.3 0.719971C33.96 0.719971 27.9 2.16997 22.28 5.02997L13.96 6.02997C13.16 6.12997 12.5 6.65997 12.24 7.42997C11.97 8.19997 12.16 9.03997 12.73 9.60997L13.86 10.75C5.11 18.49 0.130005 29.55 0.130005 41.33C0.130005 52.18 4.31001 62.38 11.89 70.05C19.47 77.72 29.56 81.95 40.29 81.95C41.04 81.95 41.78 81.93 42.53 81.89C42.77 82.14 43.1 82.29 43.46 82.29C43.5 82.29 43.53 82.29 43.57 82.29C43.97 82.26 44.32 82.04 44.53 81.73C49.33 81.23 53.95 79.86 58.3 77.64L66.63 76.64C67.42 76.54 68.08 76.01 68.35 75.24C68.62 74.47 68.43 73.63 67.86 73.06L66.73 71.92C75.47 64.19 80.45 53.13 80.45 41.35V41.33Z" fill="#40BDA6"/>
</g>
<defs>
<clipPath id="clip0_21_1546">
<rect width="80.32" height="81.56" fill="white" transform="translate(0.130005 0.719971)"/>
</clipPath>
</defs>
</svg>
