<svg width="81" height="93" viewBox="0 0 81 93" fill="none" xmlns="http://www.w3.org/2000/svg">
<g clip-path="url(#clip0_21_1545)">
<path d="M26.8401 14.6249C31.5101 14.6249 35.2901 18.5149 35.2901 23.3149C35.2901 28.1149 31.5101 32.0049 26.8401 32.0049C22.1701 32.0049 18.3901 28.1149 18.3901 23.3149C18.3901 18.5149 22.1701 14.6349 26.8401 14.6249ZM26.8401 34.8949C33.0601 34.8949 38.1001 29.7049 38.1001 23.3149C38.1001 16.9249 33.0601 11.7349 26.8401 11.7349C20.6201 11.7349 15.5801 16.9249 15.5801 23.3149C15.5801 29.7049 20.6201 34.8949 26.8401 34.8949ZM9.30006 21.5049H11.0701C11.7401 21.5049 12.3201 21.0149 12.4501 20.3449C12.8201 18.4149 13.5601 16.5749 14.6301 14.9449C15.0001 14.3749 14.9301 13.6049 14.4501 13.1149L13.2001 11.8249L15.6801 9.27486L16.9301 10.5649C17.4001 11.0549 18.1501 11.1249 18.7101 10.7449C20.3001 9.65486 22.0801 8.89486 23.9601 8.50486C24.6201 8.37486 25.0901 7.77486 25.0901 7.08486V5.26486H28.6001V7.08486C28.6001 7.77486 29.0701 8.36486 29.7301 8.50486C31.6101 8.88486 33.3901 9.65486 34.9801 10.7449C35.5401 11.1249 36.2801 11.0549 36.7601 10.5649L38.0101 9.27486L40.4901 11.8249L39.2401 13.1149C38.7601 13.6049 38.6901 14.3649 39.0601 14.9449C40.1201 16.5849 40.8601 18.4149 41.2401 20.3449C41.3701 21.0249 41.9501 21.5049 42.6201 21.5049H44.3901V25.1149H42.6201C41.9501 25.1149 41.3701 25.6049 41.2401 26.2849C40.8701 28.2149 40.1301 30.0549 39.0601 31.6849C38.6901 32.2549 38.7601 33.0249 39.2401 33.5149L40.4901 34.8049L38.0101 37.3549L36.7601 36.0649C36.2901 35.5749 35.5401 35.5049 34.9801 35.8849C33.3901 36.9749 31.6101 37.7349 29.7301 38.1249C29.0701 38.2549 28.6001 38.8549 28.6001 39.5449V41.3649H25.0901V39.5449C25.0901 38.8549 24.6201 38.2649 23.9601 38.1249C22.0801 37.7449 20.3001 36.9849 18.7101 35.8849C18.1501 35.5049 17.4101 35.5749 16.9301 36.0649L15.6801 37.3549L13.2001 34.8049L14.4501 33.5149C14.9201 33.0249 15.0001 32.2649 14.6301 31.6849C13.5701 30.0449 12.8301 28.2149 12.4501 26.2849C12.3201 25.6049 11.7401 25.1249 11.0701 25.1249H9.30006V21.5149V21.5049ZM48.1201 31.3149V50.7149H42.6701V36.6249L43.4601 35.8049C44.0101 35.2349 44.0101 34.3249 43.4601 33.7549L42.0001 32.2549C42.1801 31.9449 42.3401 31.6249 42.5001 31.2949H48.1101L48.1201 31.3149ZM28.2401 50.7149V44.2449H30.0001C30.7801 44.2449 31.4101 43.5949 31.4101 42.7949V40.6749C32.1901 40.4549 32.9501 40.1849 33.7001 39.8549V50.7049H28.2501L28.2401 50.7149ZM7.89005 28.0149H9.95006C10.3401 29.5049 10.9201 30.9349 11.6701 32.2749L10.2101 33.7749C9.66006 34.3449 9.66006 35.2549 10.2101 35.8249L14.6801 40.4249C15.2301 40.9849 16.1201 40.9849 16.6701 40.4249L18.1301 38.9249C19.4301 39.6949 20.8201 40.2849 22.2701 40.6949V42.8149C22.2701 43.6149 22.9001 44.2649 23.6801 44.2649H25.4401V52.1849C25.4401 52.9849 26.0701 53.6349 26.8501 53.6349H35.1101C35.8901 53.6349 36.5201 52.9849 36.5201 52.1849V39.9249L37.0201 40.4349C37.5701 40.9949 38.4601 40.9949 39.0101 40.4349L39.8701 39.5449V52.1849C39.8701 52.9849 40.5001 53.6349 41.2801 53.6349H49.5401C50.3201 53.6349 50.9501 52.9849 50.9501 52.1849V29.8749C50.9501 29.0749 50.3201 28.4249 49.5401 28.4249H43.6201C43.6601 28.2849 43.7001 28.1549 43.7301 28.0149H45.7901C46.5701 28.0149 47.2001 27.3649 47.2001 26.5649V20.0549C47.2001 19.5949 46.9901 19.1649 46.6301 18.8949L67.7301 6.36486L66.5701 9.86486C66.3201 10.6249 66.7101 11.4449 67.4401 11.7049C68.1701 11.9649 68.9801 11.5649 69.2301 10.8049C69.2301 10.8049 69.2301 10.8049 69.2301 10.7949L71.5901 3.64486C71.8401 2.88486 71.4501 2.06486 70.7101 1.80486C70.6501 1.78486 70.59 1.76486 70.5301 1.75486L63.3301 0.304863C62.5701 0.154863 61.8301 0.654863 61.6801 1.44486C61.5301 2.22486 62.0301 2.99486 62.7901 3.14486L66.3201 3.86486L43.4001 17.4749C43.0401 16.3949 42.5801 15.3449 42.0201 14.3549L43.4801 12.8549C44.0301 12.2849 44.0301 11.3749 43.4801 10.8049L39.0101 6.20486C38.4601 5.63486 37.5701 5.63486 37.0201 6.20486L35.5601 7.70486C34.2601 6.93486 32.8701 6.34486 31.4201 5.93486V3.82486C31.4201 3.02486 30.7901 2.37486 30.0101 2.37486H23.6901C22.9101 2.37486 22.2801 3.02486 22.2801 3.82486V5.94486C20.8301 6.34486 19.4401 6.93486 18.1401 7.71486L16.6801 6.21486C16.1301 5.64486 15.2401 5.64486 14.6901 6.21486L10.2201 10.8149C9.67006 11.3749 9.67006 12.2949 10.2201 12.8649L11.6801 14.3649C10.9301 15.7049 10.3501 17.1349 9.96006 18.6249H7.90005C7.12006 18.6249 6.49005 19.2749 6.49005 20.0749V26.5849C6.49005 27.3849 7.12006 28.0349 7.90005 28.0349M71.5401 15.7849H76.9901V50.7249H71.5401V15.7549V15.7849ZM68.7301 14.3349V52.1649C68.7301 52.9649 69.3601 53.6149 70.1401 53.6149H78.4001C79.1801 53.6149 79.8101 52.9649 79.8101 52.1649V14.3049C79.8101 13.5049 79.1801 12.8549 78.4001 12.8549H70.1401C69.3601 12.8549 68.7301 13.5049 68.7301 14.3049V14.3349ZM62.5601 50.7449H57.1101V23.5349H62.5601V50.7249V50.7449ZM55.7001 20.6649C54.9201 20.6649 54.2901 21.3149 54.2901 22.1149V52.1949C54.2901 52.9949 54.9201 53.6449 55.7001 53.6449H63.9601C64.7401 53.6449 65.3701 52.9949 65.3701 52.1949V22.0849C65.3701 21.2849 64.7401 20.6349 63.9601 20.6349H55.7001V20.6649ZM75.2601 66.3549L45.6901 83.9149C43.7201 85.0849 41.5601 85.3749 39.0901 84.7849L27.2701 81.9949C23.5201 81.1149 20.2801 81.7149 17.0001 83.9549L11.9401 64.5249L18.3701 59.4649C20.1401 58.0149 22.4201 57.3749 24.6601 57.7049L45.2101 63.4549C47.7301 64.1549 49.2101 66.8249 48.5301 69.4149C47.8401 72.0049 45.2501 73.5349 42.7301 72.8249L31.7001 69.7349C30.9501 69.5349 30.1801 69.9949 29.9801 70.7749C29.7901 71.5349 30.2201 72.3149 30.9601 72.5349L41.9901 75.6249C45.7101 76.6649 49.6001 74.6449 50.9901 70.9449L71.1301 58.9849C73.1101 57.8149 75.6401 58.5049 76.7801 60.5449C77.9201 62.5749 77.2401 65.1749 75.2701 66.3549H75.2601ZM10.7101 89.7849L3.69005 62.8149L8.24005 61.5549L15.2701 88.5249L10.7201 89.7749L10.7101 89.7849ZM79.2001 59.0849C77.2801 55.6749 73.0301 54.5049 69.7101 56.4649L51.4401 67.3149C51.1101 64.1449 48.9201 61.4949 45.9301 60.6549L25.2801 54.8749C25.2201 54.8549 25.1601 54.8449 25.1001 54.8349C22.0901 54.3849 19.0301 55.2249 16.6401 57.1549L11.1401 61.4949L10.9101 60.6249C10.5301 59.1849 9.09005 58.3249 7.69005 58.7149L2.78005 60.0649C1.38005 60.4549 0.550055 61.9349 0.920055 63.3749L8.04005 90.7149C8.41005 92.1549 9.85006 93.0149 11.2501 92.6249L16.1601 91.2749C17.5601 90.8849 18.3901 89.4049 18.0201 87.9649L17.7501 86.9249C20.6701 84.6749 23.3601 84.0349 26.6201 84.8049L38.4501 87.5949C39.4301 87.8349 40.4401 87.9549 41.4501 87.9549C43.4301 87.9549 45.3801 87.4249 47.0901 86.4049L76.6601 68.8449C79.9801 66.8649 81.1201 62.5049 79.2001 59.0849Z" fill="#40BDA6"/>
</g>
<defs>
<clipPath id="clip0_21_1545">
<rect width="79.3" height="92.45" fill="white" transform="translate(0.830078 0.274902)"/>
</clipPath>
</defs>
</svg>
