<svg width="78" height="95" viewBox="0 0 78 95" fill="none" xmlns="http://www.w3.org/2000/svg">
<g clip-path="url(#clip0_21_1543)">
<path d="M74.8801 22.9804C74.8801 23.8234 74.1857 24.5149 73.3201 24.5149H68.6401C68.6401 21.1332 65.8435 18.3862 62.4001 18.3862C58.9566 18.3862 56.1601 21.1332 56.1601 24.5149H49.9201V16.8516H46.8001C45.0784 16.8516 43.6801 15.4781 43.6801 13.7825C43.6801 12.0869 45.0784 10.7229 46.8001 10.7229H49.9201V4.59418C49.9201 3.75112 50.6144 3.05963 51.4801 3.05963H73.3201C74.1762 3.05963 74.8801 3.75112 74.8801 4.59418V22.9804ZM73.3201 0H51.4801C48.9023 0 46.8001 2.06501 46.8001 4.59418V7.66328C43.3566 7.66328 40.5601 10.4103 40.5601 13.792C40.5601 17.1737 43.3566 19.9207 46.8001 19.9207V27.584H59.2801V24.5149C59.2801 22.8288 60.6784 21.4553 62.4001 21.4553C64.1218 21.4553 65.5201 22.8288 65.5201 24.5149V27.584H73.3201C75.8979 27.584 78.0001 25.519 78.0001 22.9898V4.59418C78.0001 2.05554 75.8979 0 73.3201 0Z" fill="#40BDA6"/>
<path d="M49.3683 59.3359L42.12 65.1615V70.485H34.32V55.1585H31.2C29.4783 55.1585 28.08 53.785 28.08 52.0988C28.08 50.4127 29.4783 49.0297 31.2 49.0297H34.32V39.8319H43.68V36.7723C43.68 35.0862 45.0783 33.7032 46.8 33.7032C48.5217 33.7032 49.92 35.0767 49.92 36.7723V39.8319H59.261C58.9661 47.4289 55.399 54.4859 49.3778 59.3264M43.6895 76.6043H18.72C17.8639 76.6043 17.16 75.9128 17.16 75.0697C17.16 74.2267 17.8544 73.5352 18.72 73.5352H43.68C44.5456 73.5352 45.24 74.2267 45.24 75.0697C45.24 75.9128 44.5456 76.6043 43.68 76.6043M40.56 82.733H21.84C20.9839 82.733 20.28 82.0415 20.28 81.1984C20.28 80.3554 20.9744 79.6639 21.84 79.6639H40.56C41.4256 79.6639 42.12 80.3554 42.12 81.1984C42.12 82.0415 41.4256 82.733 40.56 82.733ZM31.2 91.9308C27.4332 91.9308 24.2846 89.2975 23.5617 85.8021H38.8478C38.1249 89.2975 34.9668 91.9308 31.2095 91.9308M13.0317 59.3359C7.01049 54.4954 3.44341 47.4384 3.14854 39.8414H15.6095V36.7818C15.6095 35.0957 17.0078 33.7127 18.7295 33.7127C20.4512 33.7127 21.8495 35.0862 21.8495 36.7818V39.8414H31.2095V45.9701C27.7661 45.9701 24.9695 48.7171 24.9695 52.0988C24.9695 55.4805 27.7661 58.2276 31.2095 58.2276V70.485H20.2895V65.1615L13.0412 59.3359H13.0317ZM30.1346 12.2574H31.2V19.9207C27.7566 19.9207 24.96 22.6677 24.96 26.0494C24.96 29.4311 27.7566 32.1781 31.2 32.1781V36.7723H24.96C24.96 33.3906 22.1634 30.6436 18.72 30.6436C15.2766 30.6436 12.48 33.3906 12.48 36.7723H3.1961C4.25195 23.075 15.9329 12.2574 30.1346 12.2574ZM46.8 30.6436C43.3566 30.6436 40.56 33.3906 40.56 36.7723H34.32V29.109H31.2C29.4783 29.109 28.08 27.7355 28.08 26.0399C28.08 24.3443 29.4783 22.9708 31.2 22.9708H34.32V9.19775H30.1346C13.5168 9.19775 0 22.4782 0 38.7994C0 47.7131 4.03317 56.0678 11.0532 61.7135L17.16 66.6202V70.7787C15.3527 71.4133 14.04 73.0994 14.04 75.0981C14.04 77.22 15.5144 78.9913 17.5024 79.5218C17.2837 80.0523 17.16 80.6301 17.16 81.2269C17.16 83.254 18.5107 84.959 20.3656 85.5653C21.0124 90.8794 25.6163 95.0189 31.2 95.0189C36.7837 95.0189 41.3876 90.8794 42.0344 85.5653C43.8893 84.9496 45.24 83.254 45.24 81.2269C45.24 80.6206 45.1163 80.0428 44.8976 79.5123C46.8856 78.9819 48.36 77.2105 48.36 75.0887C48.36 73.09 47.0473 71.4133 45.24 70.7787V66.6202L51.3468 61.7135C58.3668 56.0678 62.4 47.7225 62.4 38.7994V36.7818H53.04C53.04 33.4001 50.2434 30.653 46.8 30.653" fill="#40BDA6"/>
</g>
<defs>
<clipPath id="clip0_21_1543">
<rect width="78" height="95" fill="white"/>
</clipPath>
</defs>
</svg>
