<svg width="29" height="220" viewBox="0 0 29 220" fill="none" xmlns="http://www.w3.org/2000/svg">
<path d="M19.23 94.8V7.13C19.23 3.19 16.98 0 14.21 0C11.44 0 9.19 3.19 9.19 7.13V94.8C3.82 96.83 0 102 0 108.08C0 114.16 3.82 119.33 9.19 121.36V214.52L14.21 219.9L19.23 214.35V121.36C24.6 119.33 28.42 114.16 28.42 108.08C28.42 102 24.6 96.83 19.23 94.8Z" fill="#0A2E45"/>
<g filter="url(#filter0_d_21_1508)">
<path d="M13.94 115.28C17.6072 115.28 20.58 112.307 20.58 108.64C20.58 104.973 17.6072 102 13.94 102C10.2729 102 7.30005 104.973 7.30005 108.64C7.30005 112.307 10.2729 115.28 13.94 115.28Z" fill="white"/>
</g>
<defs>
<filter id="filter0_d_21_1508" x="3.30005" y="102" width="21.28" height="21.28" filterUnits="userSpaceOnUse" color-interpolation-filters="sRGB">
<feFlood flood-opacity="0" result="BackgroundImageFix"/>
<feColorMatrix in="SourceAlpha" type="matrix" values="0 0 0 0 0 0 0 0 0 0 0 0 0 0 0 0 0 0 127 0" result="hardAlpha"/>
<feOffset dy="4"/>
<feGaussianBlur stdDeviation="2"/>
<feComposite in2="hardAlpha" operator="out"/>
<feColorMatrix type="matrix" values="0 0 0 0 0 0 0 0 0 0 0 0 0 0 0 0 0 0 0.25 0"/>
<feBlend mode="normal" in2="BackgroundImageFix" result="effect1_dropShadow_21_1508"/>
<feBlend mode="normal" in="SourceGraphic" in2="effect1_dropShadow_21_1508" result="shape"/>
</filter>
</defs>
</svg>
