<svg width="299" height="65" viewBox="0 0 299 65" fill="none" xmlns="http://www.w3.org/2000/svg">
<g clip-path="url(#clip0_21_1639)">
<path d="M61.1529 61.0609V30.5248C61.1529 13.6675 47.4535 0 30.5708 0C13.6881 0 0 13.6675 0 30.5248C0 47.3821 13.6881 61.0496 30.5708 61.0496H61.1415L61.1529 61.0609Z" fill="white"/>
<path d="M15.3592 41.6607C13.0627 38.539 11.7099 34.6907 11.7099 30.5133C11.7099 25.5526 13.6312 21.0346 16.769 17.6745C17.0759 17.3453 17.3943 17.0274 17.724 16.7209C20.8277 13.8376 24.9091 11.9759 29.4225 11.7035C29.6953 11.6921 29.9113 11.4651 29.9113 11.1926V8.11633C29.9113 7.82118 29.6612 7.5828 29.377 7.6055C23.7494 7.90065 18.6676 10.205 14.8249 13.8263C14.4952 14.1327 14.1769 14.4506 13.8699 14.7798C9.99317 18.8891 7.60571 24.4288 7.60571 30.5246C7.60571 36.2686 9.72031 41.5131 13.2105 45.5316C13.9381 46.3717 14.734 47.1663 15.5753 47.8928C19.6112 51.3664 24.8636 53.4778 30.6048 53.4778C35.6185 53.4778 40.257 51.8772 44.0314 49.1528C42.7467 48.415 41.7577 47.3479 41.2233 46.0992C38.1992 48.1652 34.5385 49.3799 30.5935 49.3799C26.1824 49.3799 22.1351 47.8701 18.9177 45.35C17.5762 44.2943 16.3711 43.057 15.3592 41.672M52.1374 38.5503C52.9332 36.4162 53.4221 34.1231 53.5471 31.7393C53.5585 31.4441 53.3311 31.2057 53.0355 31.2057H49.9546C49.6817 31.2057 49.4543 31.4214 49.443 31.6939C49.3179 33.8166 48.8177 35.8373 48.0446 37.7103C48.1469 37.7103 48.2379 37.6989 48.3402 37.6989C49.7272 37.6989 51.0232 38.0168 52.1374 38.5503Z" fill="#0A2E45"/>
<path d="M53.0356 29.8323H49.9546C49.6818 29.8323 49.4544 29.6166 49.443 29.3442C49.2839 26.8355 48.6472 24.4629 47.6013 22.3175C47.499 22.1018 47.5558 21.8407 47.7491 21.6818L50.2389 19.7747C50.489 19.5817 50.8641 19.6612 51.0119 19.945C52.4785 22.7715 53.3767 25.9387 53.5586 29.2988C53.5699 29.5939 53.3426 29.8323 53.047 29.8323M31.7532 11.6923C37.4717 12.0442 42.4967 14.9275 45.7254 19.2412C45.8846 19.4455 46.1688 19.5136 46.3848 19.3774L49.0792 17.8449C49.3407 17.6973 49.4203 17.3454 49.2384 17.107C45.2821 11.6241 38.9724 7.95753 31.7873 7.58293C31.4917 7.57158 31.2529 7.79861 31.2529 8.09376V11.1701C31.2529 11.4425 31.4689 11.6696 31.7418 11.6809" fill="#40BDA6"/>
<path d="M27.092 37.4608L28.5699 36.3369L37.8355 29.2875C38.006 29.1513 38.2675 29.208 38.3698 29.401L43.3039 38.4938C43.4858 38.8343 43.2471 39.2543 42.8492 39.2543H38.2903C38.0288 39.2543 37.79 39.1181 37.665 38.8797L35.9255 35.6672C35.232 34.3844 33.6063 33.9417 32.3557 34.6796L27.0806 37.4608H27.092ZM23.3403 39.1068L50.1707 18.4693L27.3535 31.3762C28.0015 30.1389 33.4585 20.8078 33.4585 20.8078L31.0483 15.8698C30.8551 15.5179 30.3435 15.5065 30.1502 15.8698L17.5194 38.4938C17.3262 38.8343 17.5763 39.2543 17.9628 39.2543H22.9082C23.0674 39.2543 23.2152 39.2089 23.3403 39.1068Z" fill="#40BDA6"/>
<path d="M53.2061 44.0901C53.2061 43.3068 53.081 42.5916 52.8309 41.9446C52.5808 41.2975 52.217 40.73 51.7508 40.2645C51.2847 39.7991 50.7163 39.4359 50.0455 39.1634C49.3748 38.9023 48.6244 38.7661 47.8059 38.7661C46.9873 38.7661 46.2597 38.8796 45.6003 39.118C44.9296 39.345 44.3611 39.6742 43.8723 40.0943C43.3834 40.5143 43.0082 41.0138 42.7467 41.6154C42.4739 42.2057 42.3488 42.8641 42.3488 43.5792C42.3488 44.2944 42.4853 44.9869 42.7467 45.5431C43.0082 46.1107 43.3607 46.5988 43.8154 47.0302C44.2588 47.4615 44.7818 47.8361 45.3616 48.1426C45.9528 48.4605 46.5667 48.7329 47.2147 48.9827C47.7604 49.1984 48.1924 49.414 48.5221 49.607C48.8518 49.8 49.1019 50.0043 49.2838 50.22C49.4657 50.4243 49.5794 50.6514 49.6362 50.8898C49.6931 51.1281 49.7158 51.3892 49.7158 51.6957C49.7158 51.9682 49.6817 52.2293 49.6249 52.4677C49.568 52.706 49.4543 52.9104 49.3066 53.0806C49.1588 53.2509 48.9769 53.3871 48.7381 53.478C48.5107 53.5801 48.2265 53.6255 47.8968 53.6255C47.4875 53.6255 47.1237 53.5801 46.8168 53.478C46.5098 53.3758 46.2483 53.2169 46.0437 52.9898C45.8391 52.7628 45.6799 52.4677 45.5776 52.1044C45.5094 51.8547 45.4639 51.5709 45.4412 51.2417H41.9509C41.9964 52.0249 42.1556 52.7174 42.4398 53.3077C42.7809 54.0115 43.2356 54.6018 43.7927 55.0672C44.3497 55.5326 44.9864 55.8732 45.7026 56.1002C46.4189 56.3272 47.1465 56.4408 47.8854 56.4408C48.704 56.4408 49.443 56.3386 50.1024 56.1116C50.7618 55.8959 51.3188 55.578 51.7736 55.1807C52.2397 54.7721 52.5921 54.2726 52.8423 53.6823C53.0924 53.092 53.2174 52.4222 53.2174 51.6617C53.2174 50.9579 53.1151 50.3108 52.9218 49.7546C52.7286 49.187 52.4216 48.6875 52.0237 48.2335C51.6258 47.7794 51.1142 47.3821 50.523 47.0302C49.9205 46.6783 49.2156 46.3491 48.4198 46.0653C48.0332 45.895 47.6808 45.7361 47.3625 45.5544C47.0442 45.3842 46.7713 45.1912 46.5439 44.9982C46.3166 44.8052 46.146 44.5896 46.021 44.3625C45.8959 44.1355 45.8391 43.8744 45.8391 43.5906C45.8391 43.3068 45.8845 43.0571 45.9527 42.8073C46.0323 42.5576 46.146 42.3533 46.3052 42.1716C46.4643 41.99 46.6576 41.8538 46.9077 41.7516C47.1465 41.6494 47.4307 41.5927 47.7604 41.5927C48.1128 41.5927 48.4198 41.6495 48.6699 41.7743C48.92 41.8992 49.1247 42.0695 49.2952 42.2851C49.4657 42.5008 49.5794 42.7619 49.6476 43.0684C49.7272 43.3749 49.7613 43.7041 49.7613 44.0674H53.2288L53.2061 44.0901Z" fill="#0A2E45"/>
<path d="M291.121 53.4554C291.167 53.1603 291.246 52.8765 291.337 52.5927C291.44 52.3089 291.576 52.0592 291.769 51.8435C291.963 51.6278 292.19 51.4575 292.463 51.3213C292.736 51.1851 293.065 51.1283 293.452 51.1283C293.839 51.1283 294.191 51.1964 294.452 51.3327C294.725 51.4689 294.941 51.6505 295.123 51.8662C295.294 52.0819 295.43 52.3316 295.51 52.604C295.589 52.8765 295.646 53.1603 295.658 53.4554H291.11H291.121ZM287.972 57.2583C288.222 58.0302 288.62 58.6886 289.155 59.2562C289.689 59.8237 290.36 60.2551 291.167 60.5843C291.974 60.9135 292.929 61.0724 294.02 61.0724C294.452 61.0724 294.885 61.0497 295.317 61.0043C295.749 60.9589 296.146 60.9022 296.533 60.834C296.908 60.7659 297.249 60.6865 297.556 60.5957C297.863 60.5048 298.113 60.414 298.295 60.3232L297.829 57.5307C297.442 57.701 296.954 57.8372 296.34 57.9621C295.737 58.0756 295.112 58.1323 294.475 58.1323C293.486 58.1323 292.702 57.928 292.122 57.508C291.531 57.088 291.201 56.5317 291.133 55.8279H298.943C298.955 55.6463 298.977 55.4306 298.989 55.1922C299 54.9539 299.011 54.7382 299.011 54.5338C299.011 52.4905 298.511 50.9353 297.511 49.891C296.51 48.8353 295.146 48.3131 293.429 48.3131C292.69 48.3131 291.974 48.4493 291.269 48.7331C290.564 49.0055 289.95 49.4142 289.416 49.9591C288.882 50.4926 288.438 51.1737 288.109 51.9797C287.779 52.7857 287.608 53.7279 287.608 54.8063C287.608 55.7031 287.734 56.5317 287.995 57.2923M286.801 48.858C286.619 48.7785 286.392 48.7218 286.13 48.665C285.869 48.6082 285.608 48.5628 285.346 48.5288C285.085 48.4947 284.823 48.4607 284.562 48.438C284.3 48.4153 284.073 48.4039 283.891 48.4039C282.856 48.4039 281.924 48.4947 281.083 48.6877C280.241 48.8807 279.514 49.085 278.9 49.3007V60.7773H282.345V51.5143C282.504 51.4689 282.731 51.4235 283.027 51.3894C283.322 51.3554 283.584 51.3327 283.8 51.3327C284.277 51.3327 284.721 51.3781 285.141 51.4575C285.562 51.537 285.914 51.6278 286.221 51.6959L286.801 48.858ZM269.543 48.3812C269.145 48.4153 268.782 48.472 268.429 48.5174C268.077 48.5742 267.747 48.6309 267.452 48.6991C267.156 48.7672 266.906 48.8353 266.701 48.892L267.145 51.6618C267.565 51.5029 268.054 51.3894 268.623 51.3099C269.191 51.2305 269.771 51.1851 270.351 51.1851C271.226 51.1851 271.84 51.3667 272.192 51.7186C272.545 52.0705 272.727 52.5359 272.727 53.1262V53.4441C272.511 53.3873 272.226 53.3306 271.885 53.2965C271.544 53.2624 271.146 53.2397 270.692 53.2397C270.032 53.2397 269.384 53.3079 268.77 53.4327C268.156 53.5689 267.611 53.7733 267.133 54.0684C266.656 54.3636 266.269 54.7495 265.985 55.249C265.701 55.7371 265.553 56.3388 265.553 57.0426C265.553 57.7464 265.678 58.4048 265.917 58.9156C266.167 59.4264 266.519 59.8351 266.974 60.1529C267.429 60.4708 267.986 60.6978 268.623 60.834C269.259 60.9703 269.975 61.0384 270.76 61.0384C272.01 61.0384 273.068 60.9703 273.943 60.8227C274.819 60.6751 275.501 60.5503 276.001 60.4481V53.2965C276.001 52.5473 275.921 51.8548 275.751 51.2418C275.58 50.6288 275.296 50.1067 274.887 49.6753C274.477 49.2439 273.932 48.9147 273.261 48.6877C272.59 48.4607 271.738 48.3471 270.726 48.3471C270.328 48.3471 269.93 48.3698 269.532 48.4039M269.509 58.0869C269.145 57.8826 268.964 57.508 268.964 56.9745C268.964 56.702 269.02 56.4636 269.145 56.282C269.271 56.1004 269.441 55.9528 269.657 55.8393C269.873 55.7371 270.123 55.6577 270.407 55.6236C270.692 55.5895 270.999 55.5668 271.317 55.5668C271.544 55.5668 271.806 55.5782 272.079 55.6123C272.352 55.6463 272.567 55.669 272.704 55.7031V58.3026C272.522 58.3367 272.272 58.3594 271.965 58.3707C271.658 58.3821 271.34 58.3934 270.999 58.3934C270.373 58.3934 269.873 58.2913 269.509 58.0869ZM257.129 57.315C257.504 58.4729 257.879 59.6308 258.266 60.8H260.949C261.221 60.1529 261.528 59.381 261.858 58.4956C262.188 57.5988 262.529 56.6339 262.881 55.5782C263.222 54.5225 263.586 53.41 263.95 52.2408C264.314 51.0602 264.666 49.8796 265.007 48.6763H261.426C261.301 49.2326 261.165 49.8342 261.017 50.4813C260.869 51.1397 260.71 51.8094 260.551 52.5019C260.391 53.1943 260.21 53.8868 260.028 54.5906C259.846 55.2944 259.653 55.9642 259.471 56.6112C259.266 55.9301 259.073 55.2376 258.891 54.5338C258.709 53.83 258.527 53.1376 258.356 52.4451C258.186 51.764 258.027 51.1056 257.868 50.4586C257.72 49.8229 257.572 49.2212 257.458 48.6763H254.969C254.844 49.2326 254.707 49.8229 254.537 50.4586C254.377 51.0943 254.207 51.7527 254.025 52.4451C253.843 53.1262 253.661 53.83 253.468 54.5338C253.275 55.2376 253.081 55.9301 252.877 56.6112C252.695 55.9642 252.513 55.2944 252.331 54.5906C252.149 53.8868 251.979 53.1943 251.819 52.5019C251.66 51.8094 251.501 51.1397 251.353 50.4813C251.205 49.8229 251.069 49.2212 250.944 48.6763H247.317C247.658 49.8796 248.011 51.0602 248.375 52.2408C248.738 53.4214 249.091 54.5338 249.443 55.5782C249.784 56.6339 250.125 57.5988 250.455 58.4956C250.785 59.3924 251.08 60.1529 251.353 60.8H254.036C254.423 59.6308 254.787 58.4729 255.139 57.315C255.48 56.1571 255.81 54.9993 256.117 53.83C256.424 54.9993 256.765 56.1571 257.129 57.315ZM238.347 55.8393C238.347 56.6226 238.416 57.3377 238.563 57.9848C238.711 58.6318 238.973 59.1767 239.336 59.6308C239.712 60.0848 240.2 60.4367 240.814 60.6865C241.428 60.9362 242.201 61.0611 243.145 61.0611C243.884 61.0611 244.509 61.0043 245.021 60.8795C245.532 60.7546 245.987 60.607 246.408 60.4367L245.919 57.7577C245.601 57.8826 245.237 57.9734 244.839 58.0415C244.452 58.1096 244.066 58.1437 243.691 58.1437C242.918 58.1437 242.406 57.928 242.156 57.4966C241.906 57.0653 241.769 56.4863 241.769 55.7712V51.5029H245.908V48.6423H241.769V45.0665L238.325 45.6227V55.8166L238.347 55.8393ZM230.275 44.2946C229.389 45.2141 228.945 46.4628 228.945 48.0293V60.8H232.39V51.537H236.642V48.6763H232.39V48.0747C232.39 47.7455 232.424 47.4504 232.492 47.1779C232.561 46.9055 232.674 46.6671 232.833 46.4628C232.993 46.2584 233.22 46.0995 233.504 45.986C233.788 45.8725 234.141 45.8157 234.55 45.8157C234.857 45.8157 235.198 45.8498 235.551 45.9179C235.903 45.986 236.244 46.0882 236.551 46.2244L237.222 43.4773C236.926 43.3524 236.517 43.2275 235.971 43.1026C235.437 42.9664 234.834 42.9097 234.198 42.9097C232.458 42.9097 231.151 43.3751 230.264 44.2946M222.363 57.2355C221.942 57.8599 221.34 58.1664 220.555 58.1664C219.771 58.1664 219.157 57.8599 218.736 57.2355C218.304 56.6112 218.088 55.7712 218.088 54.7155C218.088 53.6598 218.304 52.8197 218.736 52.2181C219.168 51.6164 219.771 51.3099 220.555 51.3099C221.34 51.3099 221.942 51.6164 222.363 52.2181C222.783 52.8197 222.999 53.6598 222.999 54.7155C222.999 55.7712 222.783 56.6226 222.363 57.2355ZM226.069 52.1046C225.773 51.3213 225.364 50.6515 224.841 50.0953C224.318 49.5391 223.693 49.1077 222.954 48.8012C222.215 48.4947 221.419 48.3358 220.544 48.3358C219.668 48.3358 218.884 48.4947 218.156 48.8012C217.429 49.1077 216.792 49.5391 216.258 50.0953C215.723 50.6515 215.314 51.3213 215.007 52.1046C214.712 52.8878 214.552 53.7619 214.552 54.7041C214.552 55.6463 214.7 56.5317 214.996 57.3264C215.291 58.121 215.701 58.7907 216.224 59.3583C216.747 59.9146 217.372 60.3573 218.099 60.6638C218.827 60.9703 219.646 61.1292 220.532 61.1292C221.419 61.1292 222.26 60.9703 222.988 60.6638C223.716 60.3573 224.341 59.9259 224.864 59.3583C225.387 58.8021 225.785 58.121 226.069 57.3264C226.342 56.5317 226.478 55.6577 226.478 54.7041C226.478 53.7506 226.331 52.8878 226.035 52.1046M203.923 57.7464C203.218 57.542 202.638 57.3037 202.16 57.0426L201.149 59.9032C201.365 60.0281 201.626 60.1529 201.944 60.2892C202.263 60.4254 202.638 60.5616 203.081 60.6865C203.525 60.8113 204.025 60.9135 204.593 60.993C205.162 61.0724 205.798 61.1178 206.503 61.1178C208.607 61.1178 210.187 60.7092 211.233 59.8805C212.279 59.0632 212.802 57.9053 212.802 56.4069C212.802 55.635 212.699 54.9879 212.506 54.443C212.301 53.9095 212.006 53.4327 211.597 53.0354C211.187 52.6381 210.676 52.2862 210.062 51.9911C209.448 51.6959 208.72 51.3894 207.89 51.0829C207.492 50.9467 207.129 50.8105 206.799 50.6743C206.469 50.5494 206.174 50.4018 205.923 50.2315C205.673 50.0726 205.469 49.891 205.332 49.6867C205.196 49.4823 205.128 49.2439 205.128 48.9488C205.128 48.4607 205.321 48.0974 205.696 47.859C206.071 47.6206 206.697 47.5071 207.549 47.5071C208.322 47.5071 208.982 47.5979 209.527 47.7682C210.073 47.9498 210.573 48.1428 211.017 48.3812L212.051 45.5433C211.54 45.2708 210.892 45.0097 210.107 44.7827C209.323 44.5557 208.391 44.4422 207.31 44.4422C206.401 44.4422 205.582 44.5557 204.866 44.7714C204.139 44.9984 203.525 45.3162 203.024 45.7249C202.513 46.1449 202.126 46.6444 201.842 47.2347C201.558 47.825 201.433 48.4947 201.433 49.2326C201.433 49.9704 201.558 50.5948 201.819 51.117C202.081 51.6278 202.422 52.0705 202.831 52.4338C203.252 52.797 203.718 53.0922 204.241 53.3306C204.764 53.5689 205.287 53.7846 205.81 53.9663C207.015 54.3636 207.856 54.7382 208.345 55.0901C208.834 55.4306 209.084 55.8733 209.084 56.3955C209.084 56.6453 209.05 56.8609 208.97 57.0653C208.891 57.2696 208.754 57.4399 208.55 57.5875C208.345 57.735 208.084 57.8485 207.754 57.9394C207.424 58.0188 207.004 58.0642 206.492 58.0642C205.48 58.0642 204.616 57.9621 203.923 57.7577M187.29 58.155C186.676 58.0302 186.074 57.8485 185.494 57.6102L184.914 60.4027C185.187 60.5276 185.687 60.6751 186.403 60.8681C187.119 61.0497 188.018 61.1405 189.098 61.1405C190.746 61.1405 192.019 60.834 192.918 60.2211C193.816 59.6081 194.27 58.6999 194.27 57.508C194.27 56.9972 194.214 56.5544 194.1 56.1685C193.986 55.7825 193.782 55.442 193.497 55.1241C193.213 54.8063 192.827 54.5225 192.326 54.25C191.837 53.9776 191.212 53.7052 190.451 53.4214C190.087 53.2852 189.78 53.1603 189.541 53.0354C189.302 52.9219 189.109 52.8084 188.973 52.7062C188.836 52.604 188.745 52.5019 188.7 52.3997C188.654 52.2975 188.631 52.1727 188.631 52.0251C188.631 51.4235 189.166 51.1283 190.246 51.1283C190.837 51.1283 191.36 51.1851 191.826 51.2872C192.292 51.3894 192.724 51.5143 193.134 51.6618L193.736 48.9828C193.338 48.8239 192.792 48.6877 192.122 48.5515C191.44 48.4153 190.735 48.3585 189.996 48.3585C188.518 48.3585 187.358 48.6877 186.506 49.3461C185.664 50.0045 185.232 50.9013 185.232 52.0478C185.232 52.6267 185.323 53.1262 185.482 53.5462C185.653 53.9663 185.892 54.3182 186.199 54.6133C186.506 54.9084 186.881 55.1695 187.324 55.3852C187.767 55.6009 188.256 55.8052 188.791 56.0096C189.484 56.2707 189.996 56.509 190.337 56.7134C190.678 56.9177 190.848 57.1674 190.848 57.4399C190.848 57.7918 190.712 58.0302 190.451 58.155C190.189 58.2799 189.746 58.3367 189.109 58.3367C188.472 58.3367 187.904 58.2686 187.29 58.1437M172.26 60.8113H175.705V51.4462C175.921 51.4121 176.171 51.3894 176.444 51.3667C176.717 51.344 176.978 51.3327 177.229 51.3327C178.024 51.3327 178.57 51.5597 178.866 52.0251C179.161 52.4905 179.309 53.2738 179.309 54.3749V60.8113H182.754V53.9663C182.754 53.1376 182.674 52.377 182.504 51.7073C182.333 51.0262 182.049 50.4472 181.651 49.9591C181.253 49.471 180.707 49.085 180.025 48.8126C179.343 48.5401 178.479 48.4039 177.445 48.4039C176.41 48.4039 175.455 48.472 174.534 48.6196C173.613 48.7672 172.852 48.9261 172.272 49.0964V60.8113H172.26ZM165.689 57.2469C165.269 57.8712 164.666 58.1777 163.882 58.1777C163.097 58.1777 162.483 57.8712 162.063 57.2469C161.631 56.6226 161.415 55.7825 161.415 54.7268C161.415 53.6711 161.631 52.8311 162.063 52.2294C162.495 51.6278 163.097 51.3213 163.882 51.3213C164.666 51.3213 165.269 51.6278 165.689 52.2294C166.11 52.8311 166.326 53.6711 166.326 54.7268C166.326 55.7825 166.11 56.6339 165.689 57.2469ZM169.395 52.1159C169.1 51.3327 168.691 50.6629 168.168 50.1067C167.645 49.5504 167.019 49.1191 166.28 48.8126C165.541 48.5061 164.746 48.3471 163.87 48.3471C162.995 48.3471 162.21 48.5061 161.483 48.8126C160.755 49.1191 160.118 49.5504 159.596 50.1067C159.061 50.6629 158.652 51.3327 158.345 52.1159C158.049 52.8992 157.89 53.7733 157.89 54.7155C157.89 55.6577 158.038 56.5431 158.334 57.3377C158.629 58.1323 159.038 58.8021 159.561 59.3697C160.084 59.9373 160.71 60.3686 161.437 60.6751C162.165 60.9816 162.983 61.1405 163.87 61.1405C164.757 61.1405 165.598 60.9816 166.326 60.6751C167.053 60.3686 167.69 59.9373 168.202 59.3697C168.725 58.8134 169.123 58.1323 169.407 57.3377C169.68 56.5431 169.827 55.669 169.827 54.7155C169.827 53.7619 169.68 52.8992 169.384 52.1159M155.173 43.6929C154.764 43.3297 154.286 43.1481 153.729 43.1481C153.172 43.1481 152.695 43.3297 152.285 43.6929C151.876 44.0562 151.671 44.5443 151.671 45.18C151.671 45.8157 151.876 46.3038 152.285 46.6671C152.695 47.0303 153.172 47.212 153.729 47.212C154.286 47.212 154.764 47.0303 155.173 46.6671C155.582 46.3038 155.787 45.8157 155.787 45.18C155.787 44.5443 155.582 44.0562 155.173 43.6929ZM155.457 48.6877H152.013V60.8113H155.457V48.6877ZM141.883 55.862C141.883 56.6453 141.962 57.3604 142.099 58.0075C142.247 58.6545 142.508 59.1994 142.872 59.6535C143.247 60.1075 143.736 60.4594 144.35 60.7092C144.964 60.9589 145.737 61.0838 146.681 61.0838C147.42 61.0838 148.045 61.027 148.556 60.9022C149.068 60.7773 149.523 60.6297 149.943 60.4594L149.455 57.7804C149.136 57.9053 148.772 57.9961 148.374 58.0642C147.988 58.1323 147.601 58.1664 147.226 58.1664C146.453 58.1664 145.942 57.9507 145.691 57.5193C145.441 57.088 145.305 56.509 145.305 55.7939V51.5256H149.443V48.665H145.305V45.0892L141.86 45.6454V55.8393L141.883 55.862ZM132.64 48.4266C132.242 48.4607 131.878 48.5174 131.515 48.5628C131.162 48.6196 130.832 48.6763 130.537 48.7445C130.241 48.8126 129.991 48.8807 129.786 48.9374L130.23 51.7073C130.639 51.5483 131.139 51.4348 131.708 51.3554C132.276 51.2759 132.856 51.2305 133.436 51.2305C134.311 51.2305 134.925 51.4121 135.278 51.764C135.63 52.1159 135.812 52.5813 135.812 53.1716V53.4895C135.596 53.4327 135.312 53.376 134.971 53.3419C134.618 53.3079 134.232 53.2851 133.777 53.2851C133.118 53.2851 132.481 53.3533 131.856 53.4781C131.242 53.6143 130.696 53.8187 130.218 54.1138C129.741 54.409 129.354 54.7949 129.07 55.2944C128.786 55.7825 128.638 56.3842 128.638 57.088C128.638 57.7918 128.763 58.4502 129.002 58.961C129.252 59.4718 129.605 59.8805 130.059 60.1983C130.525 60.5162 131.071 60.7432 131.708 60.8795C132.344 61.0157 133.061 61.0838 133.845 61.0838C135.096 61.0838 136.153 61.0157 137.028 60.8681C137.904 60.7205 138.586 60.5957 139.086 60.4935V53.3419C139.086 52.5927 139.007 51.9002 138.836 51.2872C138.666 50.6743 138.381 50.1521 137.972 49.7207C137.563 49.2893 137.017 48.9601 136.346 48.7331C135.664 48.5061 134.823 48.3926 133.811 48.3926C133.413 48.3926 133.015 48.4153 132.617 48.4493M132.595 58.1323C132.231 57.928 132.049 57.5534 132.049 57.0199C132.049 56.7474 132.106 56.509 132.231 56.3274C132.356 56.1458 132.526 55.9982 132.742 55.8847C132.958 55.7825 133.208 55.7031 133.493 55.669C133.777 55.635 134.084 55.6123 134.402 55.6123C134.63 55.6123 134.891 55.6236 135.164 55.6577C135.437 55.6917 135.653 55.7144 135.789 55.7485V58.348C135.607 58.3821 135.357 58.4048 135.05 58.4161C134.743 58.4275 134.414 58.4388 134.084 58.4388C133.459 58.4388 132.958 58.3367 132.595 58.1323ZM128.058 48.9261C127.877 48.8466 127.649 48.7899 127.388 48.7331C127.126 48.6763 126.865 48.6309 126.603 48.5969C126.342 48.5628 126.08 48.5288 125.819 48.5061C125.557 48.4834 125.33 48.472 125.148 48.472C124.113 48.472 123.181 48.5628 122.34 48.7558C121.499 48.9488 120.771 49.1531 120.157 49.3688V60.8454H123.602V51.5824C123.75 51.537 123.977 51.4916 124.284 51.4575C124.58 51.4235 124.841 51.4008 125.057 51.4008C125.535 51.4008 125.978 51.4462 126.399 51.5256C126.819 51.6051 127.172 51.6959 127.49 51.764L128.07 48.9261H128.058ZM109.868 53.5576C109.914 53.2624 109.993 52.9786 110.084 52.6949C110.187 52.4111 110.323 52.1613 110.516 51.9456C110.698 51.73 110.926 51.5597 111.21 51.4235C111.483 51.2872 111.824 51.2305 112.199 51.2305C112.574 51.2305 112.938 51.2986 113.199 51.4348C113.472 51.571 113.688 51.7527 113.87 51.9683C114.041 52.184 114.177 52.4338 114.268 52.7062C114.348 52.9787 114.404 53.2624 114.416 53.5576H109.868ZM106.719 57.3604C106.969 58.1323 107.367 58.7907 107.901 59.3583C108.436 59.9259 109.107 60.3573 109.914 60.6865C110.721 61.0157 111.676 61.1746 112.767 61.1746C113.199 61.1746 113.631 61.1519 114.063 61.1065C114.495 61.0611 114.905 61.0043 115.28 60.9362C115.655 60.8681 115.996 60.7886 116.303 60.6978C116.61 60.607 116.86 60.5162 117.042 60.4254L116.576 57.6329C116.189 57.8031 115.689 57.9394 115.087 58.0642C114.484 58.1777 113.859 58.2345 113.233 58.2345C112.244 58.2345 111.46 58.0302 110.88 57.6102C110.3 57.1901 109.959 56.6339 109.891 55.9301H117.69C117.701 55.7485 117.724 55.5328 117.736 55.2944C117.747 55.056 117.758 54.8403 117.758 54.636C117.758 52.5927 117.258 51.0375 116.258 49.9931C115.257 48.9374 113.893 48.4153 112.165 48.4153C111.426 48.4153 110.71 48.5515 110.005 48.8353C109.3 49.1191 108.686 49.5164 108.14 50.0613C107.606 50.5948 107.163 51.2759 106.833 52.0819C106.503 52.8878 106.333 53.83 106.333 54.9084C106.333 55.8052 106.458 56.6339 106.708 57.3945M104.059 52.184C103.775 51.4008 103.365 50.731 102.82 50.1861C102.285 49.6412 101.615 49.2212 100.83 48.9147C100.046 48.6196 99.1475 48.4607 98.147 48.4607C97.7264 48.4607 97.2944 48.4834 96.8396 48.5174C96.3849 48.5515 95.9415 48.6082 95.4981 48.665C95.0661 48.7218 94.6454 48.8012 94.2362 48.8807C93.8383 48.9715 93.4858 49.051 93.1789 49.1418V65.1137H96.6236V60.5503C97.0102 60.7205 97.4081 60.8454 97.8287 60.9476C98.238 61.0384 98.6927 61.0838 99.1702 61.0838C100.034 61.0838 100.796 60.9249 101.455 60.6184C102.115 60.3119 102.672 59.8805 103.115 59.3243C103.559 58.768 103.9 58.1096 104.127 57.3377C104.354 56.5658 104.479 55.7144 104.479 54.7836C104.479 53.8527 104.332 52.9446 104.047 52.15M98.5222 58.1664C98.1698 58.1664 97.8173 58.121 97.4763 58.0302C97.1238 57.9394 96.851 57.8258 96.635 57.6783V51.4802C96.8055 51.4462 97.0215 51.4235 97.283 51.4008C97.5445 51.3781 97.8287 51.3667 98.1357 51.3667C99.0793 51.3667 99.7841 51.6846 100.262 52.3203C100.739 52.9559 100.978 53.8073 100.978 54.863C100.978 57.0653 100.159 58.155 98.5336 58.155M90.0411 49.2212C89.6318 48.1882 89.052 47.3141 88.3357 46.599C87.6081 45.8952 86.7668 45.3616 85.8005 45.0097C84.8341 44.6578 83.7996 44.4762 82.7082 44.4762C81.6168 44.4762 80.6391 44.6578 79.6727 45.0097C78.7064 45.3616 77.8651 45.8952 77.1375 46.599C76.4098 47.3028 75.83 48.1769 75.398 49.2212C74.966 50.2656 74.75 51.4575 74.75 52.8311C74.75 54.2046 74.9546 55.3966 75.3753 56.4409C75.7846 57.4739 76.3644 58.348 77.0806 59.0405C77.8082 59.7443 78.6495 60.2665 79.6159 60.6184C80.5822 60.9703 81.6168 61.1519 82.7082 61.1519C83.7996 61.1519 84.8796 60.9703 85.8573 60.6184C86.8351 60.2665 87.6763 59.7443 88.3812 59.0405C89.0861 58.3367 89.6432 57.4739 90.0524 56.4409C90.4617 55.4079 90.6664 54.2046 90.6664 52.8311C90.6664 51.4575 90.4617 50.2656 90.0411 49.2212ZM78.7405 50.7197C78.9337 50.084 79.2066 49.5391 79.5704 49.085C79.9342 48.6309 80.3776 48.279 80.9005 48.0293C81.4235 47.7796 82.026 47.6547 82.6968 47.6547C83.3676 47.6547 83.9587 47.7796 84.4817 48.0179C85.016 48.2677 85.4594 48.6082 85.8232 49.0623C86.187 49.5164 86.4599 50.0613 86.6532 50.697C86.8464 51.3327 86.9374 52.0478 86.9374 52.8311C86.9374 53.6143 86.8464 54.3182 86.6532 54.9539C86.4599 55.5895 86.187 56.1231 85.8232 56.5772C85.4594 57.0312 85.016 57.3831 84.4817 57.6215C83.9474 57.8712 83.3562 57.9848 82.6968 57.9848C82.0374 57.9848 81.4235 57.8599 80.9005 57.6215C80.3776 57.3718 79.9342 57.0312 79.5704 56.5772C79.2066 56.1231 78.9337 55.5782 78.7405 54.9539C78.5472 54.3182 78.4562 53.6143 78.4562 52.8311C78.4562 52.0478 78.5586 51.3554 78.7405 50.7197Z" fill="#40BDA6"/>
<path d="M299 33.6124V0.760445H291.644V20.1492C290.507 18.4464 289.291 16.6642 287.984 14.8139C286.687 12.9636 285.38 11.1813 284.061 9.45587C282.754 7.73041 281.458 6.11846 280.196 4.59733C278.934 3.0762 277.774 1.8048 276.728 0.760445H270.703V33.6124H278.013V12.0895C280.798 15.3474 283.425 18.8097 285.892 22.465C288.359 26.1316 290.655 29.8436 292.77 33.601H298.989L299 33.6124ZM263.256 9.75101C262.404 7.61689 261.233 5.82332 259.743 4.37029C258.254 2.91727 256.515 1.82751 254.525 1.101C252.536 0.374486 250.41 0.0112305 248.159 0.0112305C245.908 0.0112305 243.895 0.374486 241.917 1.101C239.939 1.82751 238.199 2.91727 236.699 4.37029C235.198 5.82332 234.004 7.61689 233.118 9.75101C232.231 11.8851 231.787 14.3598 231.787 17.175C231.787 19.9903 232.219 22.465 233.072 24.5991C233.925 26.7332 235.096 28.5154 236.585 29.9571C238.074 31.3988 239.814 32.4772 241.803 33.2037C243.793 33.9302 245.919 34.2935 248.17 34.2935C250.421 34.2935 252.638 33.9302 254.65 33.2037C256.662 32.4772 258.39 31.3988 259.846 29.9571C261.301 28.5154 262.449 26.7332 263.29 24.5991C264.132 22.465 264.552 19.9903 264.552 17.175C264.552 14.3598 264.12 11.8851 263.268 9.75101M240.03 12.8273C240.428 11.5219 240.996 10.3981 241.735 9.46722C242.474 8.53638 243.395 7.80987 244.464 7.28769C245.544 6.76551 246.772 6.50442 248.17 6.50442C249.568 6.50442 250.762 6.75416 251.853 7.26499C252.945 7.77581 253.866 8.49097 254.605 9.42181C255.344 10.3527 255.912 11.4765 256.31 12.7819C256.708 14.0987 256.901 15.5517 256.901 17.1637C256.901 18.7756 256.708 20.2287 256.31 21.5228C255.912 22.8169 255.344 23.9293 254.605 24.8602C253.866 25.791 252.945 26.5062 251.853 27.017C250.762 27.5165 249.534 27.7776 248.17 27.7776C246.806 27.7776 245.544 27.5278 244.464 27.017C243.384 26.5062 242.474 25.791 241.735 24.8602C240.996 23.9293 240.428 22.8169 240.03 21.5228C239.632 20.2287 239.439 18.7756 239.439 17.1637C239.439 15.5517 239.632 14.1328 240.03 12.8273ZM218.213 33.6124H225.614V0.760445H218.213V33.6124ZM186.21 0.760445V7.06065H196.135V33.6124H203.536V7.06065H213.461V0.760445H186.21ZM172.67 10.1256C172.988 10.9429 173.363 11.8965 173.784 12.9749C174.204 14.0533 174.659 15.2339 175.125 16.5393C175.603 17.8334 176.08 19.1957 176.592 20.626H167.178C167.701 19.207 168.213 17.8448 168.713 16.5507C169.213 15.2566 169.668 14.076 170.077 12.9976C170.487 11.9192 170.839 10.977 171.158 10.1483C171.476 9.331 171.715 8.68395 171.885 8.20718C172.078 8.6726 172.34 9.31965 172.658 10.137M188.711 33.6124C187.472 30.0706 186.301 26.8013 185.187 23.8045C184.073 20.8076 182.981 17.9697 181.924 15.3247C180.855 12.6684 179.798 10.1483 178.752 7.76446C177.706 5.3806 176.637 3.05349 175.557 0.771796H168.543C167.429 3.04214 166.36 5.3806 165.325 7.76446C164.291 10.1483 163.245 12.6684 162.188 15.3247C161.119 17.981 160.039 20.8076 158.925 23.8045C157.811 26.8127 156.64 30.082 155.4 33.6124H163.086C163.449 32.4772 163.836 31.3079 164.257 30.1047C164.677 28.9014 165.087 27.6981 165.507 26.5062H178.354C178.775 27.6981 179.195 28.9014 179.616 30.1047C180.037 31.3079 180.434 32.4772 180.798 33.6237H188.734L188.711 33.6124ZM143.702 33.6124H151.103V0.760445H143.702V33.6124ZM126.33 33.6124C127.638 30.8652 128.922 28.0046 130.184 25.0304C131.446 22.0563 132.651 19.1162 133.788 16.2101C134.925 13.3041 135.982 10.5229 136.937 7.87798C137.892 5.23303 138.745 2.86051 139.484 0.760445H131.605C130.98 2.66754 130.298 4.7222 129.548 6.91308C128.797 9.10397 128.024 11.2948 127.24 13.4744C126.455 15.6539 125.705 17.7426 124.966 19.7292C124.238 21.7271 123.556 23.4412 122.942 24.8829C122.283 23.4298 121.601 21.7157 120.885 19.7178C120.168 17.7199 119.418 15.6312 118.634 13.463C117.849 11.2835 117.087 9.10397 116.326 6.90173C115.575 4.71085 114.882 2.66754 114.268 0.760445H106.105C106.799 2.84916 107.64 5.21032 108.595 7.86663C109.561 10.5229 110.607 13.3041 111.755 16.2101C112.904 19.1162 114.109 22.0563 115.382 25.0191C116.655 27.9819 117.951 30.8539 119.259 33.6124H126.319H126.33ZM92.2352 10.137C92.5535 10.9543 92.9287 11.9078 93.3493 12.9863C93.77 14.0647 94.2247 15.2453 94.6908 16.5507C95.1683 17.8448 95.6458 19.207 96.1574 20.6373H86.7554C87.2784 19.2184 87.7786 17.8561 88.2902 16.5621C88.7904 15.268 89.2452 14.0874 89.6544 13.009C90.0637 11.9305 90.4275 10.9884 90.7459 10.1597C91.0642 9.34235 91.3029 8.6953 91.4735 8.21853C91.6667 8.68395 91.9282 9.331 92.2465 10.1483M108.299 33.6237C107.06 30.082 105.878 26.8127 104.775 23.8158C103.661 20.819 102.569 17.981 101.512 15.3361C100.443 12.6798 99.3862 10.1597 98.3402 7.77581C97.2943 5.39195 96.2256 3.06485 95.1456 0.783148H88.1197C87.0055 3.05349 85.9368 5.39195 84.9023 7.77581C83.8677 10.1597 82.8218 12.6798 81.7645 15.3361C80.6958 17.9924 79.6158 20.819 78.5016 23.8158C77.3875 26.824 76.2165 30.0933 74.9773 33.6237H82.6626C83.0264 32.4885 83.413 31.3193 83.8336 30.116C84.2543 28.9127 84.6635 27.7095 85.0842 26.5175H97.9309C98.3516 27.7095 98.7722 28.9127 99.1929 30.116C99.6135 31.3193 100.011 32.4885 100.375 33.6351H108.311L108.299 33.6237Z" fill="white"/>
</g>
<defs>
<clipPath id="clip0_21_1639">
<rect width="299" height="65" fill="white"/>
</clipPath>
</defs>
</svg>
