<svg width="78" height="79" viewBox="0 0 78 79" fill="none" xmlns="http://www.w3.org/2000/svg">
<g clip-path="url(#clip0_21_1544)">
<path d="M9.72999 6.74512H6.48999V10.0151H9.72999V6.74512Z" fill="#40BDA6"/>
<path d="M16.21 6.74512H12.97V10.0151H16.21V6.74512Z" fill="#40BDA6"/>
<path d="M22.7 6.74512H19.46V10.0151H22.7V6.74512Z" fill="#40BDA6"/>
<path d="M77.83 41.1351H74.59V16.5751H1.62C0.72 16.5751 0 15.8451 0 14.9351V5.10507C0 2.39507 2.18 0.195068 4.86 0.195068H72.97C75.65 0.195068 77.84 2.39507 77.84 5.10507V10.0151H74.6V5.10507C74.6 4.20507 73.87 3.46507 72.98 3.46507H4.86C3.97 3.46507 3.24 4.20507 3.24 5.10507V13.2951H76.21C77.11 13.2951 77.83 14.0251 77.83 14.9351V41.1351Z" fill="#40BDA6"/>
<path d="M48.65 72.255H4.86C2.18 72.255 0 70.055 0 67.345V19.845H3.24V67.335C3.24 68.235 3.97 68.975 4.86 68.975H48.65V72.245V72.255Z" fill="#40BDA6"/>
<path d="M55.1299 72.2551C54.2299 72.2551 53.5099 71.5251 53.5099 70.6151V66.3751L47.4999 60.3051C45.6799 58.4651 45.3999 55.7051 45.3999 54.2351V49.3251C45.3999 48.4251 46.1199 47.6851 47.0199 47.6851C47.9199 47.6851 48.6399 48.4151 48.6399 49.3251V54.2351C48.6399 55.8851 49.0599 57.2551 49.7899 57.9851L56.2799 64.5351C56.5799 64.8451 56.7499 65.2551 56.7499 65.6951V70.6051C56.7499 71.5151 56.0299 72.2451 55.1299 72.2451" fill="#40BDA6"/>
<path d="M74.5899 72.255C73.6899 72.255 72.9699 71.525 72.9699 70.615V65.705C72.9699 65.455 73.0299 65.195 73.1399 64.975L74.5899 62.045V52.605C74.5899 50.265 73.1899 48.395 70.8299 47.605C66.0799 46.005 59.6599 44.385 59.5999 44.365C58.8799 44.185 58.3699 43.535 58.3699 42.775V31.315C58.3699 30.415 57.6399 29.675 56.7499 29.675C55.8599 29.675 55.1299 30.415 55.1299 31.315V52.605C55.1299 53.515 54.3999 54.245 53.5099 54.245C52.6199 54.245 51.8899 53.515 51.8899 52.605V31.315C51.8899 28.605 54.0699 26.405 56.7499 26.405C59.4299 26.405 61.6099 28.605 61.6099 31.315V41.505C63.7299 42.065 68.1999 43.275 71.8499 44.495C75.5399 45.735 77.8199 48.835 77.8199 52.595V62.425C77.8199 62.675 77.7599 62.935 77.6499 63.155L76.1999 66.085V70.615C76.1999 71.525 75.4799 72.255 74.5799 72.255" fill="#40BDA6"/>
<path d="M76.2099 78.8051C75.3099 78.8051 74.5899 78.0751 74.5899 77.1651V72.2551H55.1299V77.1651C55.1299 78.0751 54.4099 78.8051 53.5099 78.8051C52.6099 78.8051 51.8899 78.0751 51.8899 77.1651V70.6151C51.8899 69.7051 52.6199 68.9751 53.5099 68.9751H76.2099C77.1099 68.9751 77.8299 69.7051 77.8299 70.6151V77.1651C77.8299 78.0751 77.1099 78.8051 76.2099 78.8051Z" fill="#40BDA6"/>
<path d="M69.7199 36.225H66.4799C65.5799 36.225 64.8599 35.495 64.8599 34.585C64.8599 33.675 65.5899 32.945 66.4799 32.945H68.0999V23.115H45.3999V32.945H47.0199C47.9199 32.945 48.6399 33.675 48.6399 34.585C48.6399 35.495 47.9099 36.225 47.0199 36.225H43.7799C42.8799 36.225 42.1599 35.495 42.1599 34.585V21.485C42.1599 20.585 42.8899 19.845 43.7799 19.845H69.7199C70.6199 19.845 71.3399 20.575 71.3399 21.485V34.585C71.3399 35.485 70.6199 36.225 69.7199 36.225Z" fill="#40BDA6"/>
<path d="M22.71 19.845H6.48999V23.115H22.71V19.845Z" fill="#40BDA6"/>
<path d="M38.92 26.395H6.48999V29.665H38.92V26.395Z" fill="#40BDA6"/>
<path d="M38.92 32.9451H6.48999V36.2251H38.92V32.9451Z" fill="#40BDA6"/>
<path d="M38.92 39.4951H6.48999V42.7651H38.92V39.4951Z" fill="#40BDA6"/>
<path d="M38.92 46.0552H6.48999V49.3252H38.92V46.0552Z" fill="#40BDA6"/>
<path d="M38.92 52.605H6.48999V55.875H38.92V52.605Z" fill="#40BDA6"/>
<path d="M22.71 59.155H6.48999V62.425H22.71V59.155Z" fill="#40BDA6"/>
</g>
<defs>
<clipPath id="clip0_21_1544">
<rect width="77.83" height="78.61" fill="white" transform="translate(0 0.195068)"/>
</clipPath>
</defs>
</svg>
