<svg width="119" height="60" viewBox="0 0 119 60" fill="none" xmlns="http://www.w3.org/2000/svg">
<path d="M103.138 53.8617C100.942 53.8617 99.1833 52.1027 99.1833 49.907C99.1833 47.7113 100.967 45.9523 103.138 45.9523C105.309 45.9523 107.093 47.7113 107.093 49.907C107.093 52.1027 105.309 53.8617 103.138 53.8617ZM103.138 41.0514C98.237 41.0514 94.2581 45.0061 94.2581 49.907C94.2581 54.808 98.237 58.7627 103.138 58.7627C108.039 58.7627 111.994 54.7837 111.994 49.907C111.994 45.0304 108.015 41.0514 103.138 41.0514Z" stroke="#0A2E45" stroke-width="2" stroke-miterlimit="10"/>
<path d="M23.4007 53.8617C21.2049 53.8617 19.4459 52.1027 19.4459 49.907C19.4459 47.7113 21.2292 45.9523 23.4007 45.9523C25.5721 45.9523 27.3554 47.7113 27.3554 49.907C27.3554 52.1027 25.5721 53.8617 23.4007 53.8617ZM23.4007 41.0514C18.4997 41.0514 14.5208 45.0061 14.5208 49.907C14.5208 54.808 18.4997 58.7627 23.4007 58.7627C28.3016 58.7627 32.2563 54.7837 32.2563 49.907C32.2563 45.0304 28.2773 41.0514 23.4007 41.0514Z" stroke="#0A2E45" stroke-width="2" stroke-miterlimit="10"/>
<path d="M43.5139 53.8617C41.3425 53.8617 39.5592 52.1027 39.5592 49.907C39.5592 47.7113 41.3182 45.9766 43.5139 45.9766C45.7096 45.9766 47.4686 47.7356 47.4686 49.907C47.4686 52.0785 45.6854 53.8617 43.5139 53.8617ZM43.5139 41.0514C38.613 41.0514 34.634 45.0061 34.634 49.907C34.634 54.808 38.5887 58.7869 43.5139 58.7869C48.4391 58.7869 52.3938 54.808 52.3938 49.907C52.3696 45.0304 48.4149 41.0514 43.5139 41.0514Z" stroke="#0A2E45" stroke-width="2" stroke-miterlimit="10"/>
<path d="M16.1949 38.8557V41.1848C20.7805 37.3636 27.962 37.679 32.1472 42.7497H34.7918C39.3167 37.1937 47.7841 37.2786 52.2847 42.7497H79.3126V38.8678C85.0991 38.7829 89.7453 34.0518 89.7453 28.2532V16.3769C89.7453 10.5298 85.0021 5.76227 79.1306 5.76227H74.5936V3.38459H74.7513C75.3336 3.38459 75.7946 2.91148 75.7946 2.31706C75.7946 1.72264 75.3215 1.27379 74.7513 1.27379H65.459C64.8767 1.27379 64.3915 1.7469 64.3915 2.31706C64.3915 2.88722 64.8646 3.38459 65.459 3.38459H65.6167V5.76227H25.3902V3.38459H25.548C26.1302 3.38459 26.5912 2.91148 26.5912 2.31706C26.5912 0.424624 23.7647 1.61346 16.2677 1.27379C14.8605 1.27379 14.8848 3.37246 16.2677 3.37246H16.4254V5.75014H11.8399C5.98062 5.75014 1.21313 10.5176 1.21313 16.3769V28.241C1.21313 34.1125 5.98062 38.8557 11.8278 38.8557H16.1949Z" stroke="#0A2E45" stroke-width="2" stroke-miterlimit="10"/>
<path d="M6.21118 47.5536C6.21118 48.8638 7.27871 49.9313 8.58886 49.9313H12.0705C12.0705 48.2329 12.4344 46.6559 13.1137 45.2123H8.60099C7.29084 45.1881 6.22331 46.2556 6.22331 47.5657L6.21118 47.5536Z" stroke="#0A2E45" stroke-width="2" stroke-miterlimit="10"/>
<path d="M101.767 29.5269V23.4492C101.767 22.9761 102.155 22.5879 102.628 22.5879H110.623L113.013 30.3639C103.926 30.0728 101.755 31.0675 101.755 29.5269H101.767ZM116.858 37.8366C116.858 36.5507 116.652 35.2649 116.276 34.0396C115.863 32.7295 117.537 38.0793 111.144 17.408H112.976C113.837 17.408 114.541 16.7044 114.541 15.8431C114.541 14.9818 113.862 14.2782 112.976 14.2782H94.0396C92.8144 14.2782 91.8075 15.2729 91.8075 16.5103V45.188H53.801C54.4804 46.6316 54.8443 48.2208 54.8443 49.907H92.3049C92.3049 43.9385 97.1694 39.1104 103.126 39.1104C109.082 39.1104 113.947 43.9628 113.947 49.907H115.863C117.671 49.8827 116.494 47.4929 116.858 37.8124V37.8366Z" stroke="#0A2E45" stroke-width="2" stroke-miterlimit="10"/>
<path d="M43.4775 32.8265C45.8066 32.8993 48.0509 32.0987 49.7007 30.5944C51.3505 29.1023 52.2361 27.0521 52.1511 24.9414C52.1511 21.2899 46.5345 13.1743 43.4775 9.97168C40.4204 13.1743 34.7917 21.2899 34.7917 24.9414C34.7067 27.0521 35.6044 29.1023 37.2421 30.5944C38.8919 32.0865 41.1483 32.8993 43.4653 32.8265" fill="#0A2E45"/>
</svg>
