<svg aria-hidden="true" style="position: absolute; width: 0; height: 0; overflow: hidden;" version="1.1" xmlns="http://www.w3.org/2000/svg" xmlns:xlink="http://www.w3.org/1999/xlink">
<defs>
<symbol id="icon-triangel" viewBox="0 0 33 32">
<path fill="#fff" style="fill: var(--color1, #fff)" d="M16.588 22.787h-0.119v8.169h0.119v-8.169z"></path>
<path fill="#fff" style="fill: var(--color1, #fff)" d="M6.204 12.628l-0.056 0.105 7.012 3.746 0.056-0.105-7.012-3.746z"></path>
<path fill="#fff" style="fill: var(--color1, #fff)" d="M16.364 31.195c-6.811 0-12.351-5.537-12.351-12.343s5.541-12.343 12.351-12.343c6.811 0 12.351 5.537 12.351 12.343s-5.541 12.343-12.351 12.343zM16.364 6.628c-6.745 0-12.232 5.483-12.232 12.224s5.487 12.224 12.232 12.224 12.232-5.483 12.232-12.224c0-6.741-5.487-12.224-12.232-12.224z"></path>
<path fill="#464647" style="fill: var(--color2, #464647)" d="M15.826 24.976v4.192h-14.702c-0.864 0-1.404-0.935-0.972-1.682l7.526-13.026 2.788 1.575c-0.301 0.752-0.467 1.572-0.467 2.43 0 3.372 2.549 6.148 5.827 6.51z"></path>
<path fill="#fff" style="fill: var(--color1, #fff)" d="M32.008 29.168h-14.772v-4.187c3.3-0.34 5.873-3.128 5.873-6.516 0-0.867-0.169-1.695-0.475-2.453l2.782-1.572 7.55 13.068c0.426 0.737-0.106 1.659-0.958 1.659z"></path>
<path fill="#40bda6" style="fill: var(--color3, #40bda6)" d="M24.711 13.032l-2.838 1.604c-1.19-1.648-3.129-2.721-5.318-2.721s-4.143 1.081-5.333 2.741l-2.84-1.605 7.225-12.505c0.42-0.727 1.47-0.727 1.89 0l7.214 12.486z"></path>
<path fill="#40bda6" style="fill: var(--color3, #40bda6)" d="M13.7 20.715c-0.431-0.587-0.686-1.311-0.686-2.095 0-0.933 0.361-1.782 0.951-2.414 0.058-0.062 0.118-0.122 0.18-0.18 0.584-0.543 1.35-0.891 2.198-0.943 0.051-0.003 0.091-0.045 0.091-0.096v-0.579c0-0.055-0.046-0.099-0.101-0.097-1.056 0.055-2.012 0.49-2.733 1.169-0.062 0.058-0.122 0.118-0.18 0.18-0.729 0.773-1.176 1.814-1.176 2.96 0 1.079 0.396 2.066 1.051 2.822 0.137 0.159 0.286 0.306 0.444 0.444 0.757 0.654 1.744 1.049 2.822 1.049 0.942 0 1.813-0.302 2.523-0.813-0.241-0.139-0.427-0.34-0.527-0.574-0.569 0.388-1.255 0.616-1.995 0.616-0.828 0-1.589-0.283-2.192-0.759-0.253-0.199-0.478-0.432-0.668-0.691zM20.608 20.128c0.15-0.402 0.242-0.831 0.266-1.28 0.003-0.055-0.041-0.101-0.097-0.101h-0.579c-0.051 0-0.093 0.040-0.096 0.091-0.024 0.398-0.116 0.778-0.262 1.131 0.018 0 0.036-0.002 0.055-0.002 0.261 0 0.504 0.059 0.714 0.161z"></path>
<path fill="#fff" style="fill: var(--color1, #fff)" d="M20.777 18.493h-0.579c-0.051 0-0.093-0.040-0.096-0.091-0.029-0.472-0.15-0.918-0.345-1.322-0.020-0.041-0.008-0.091 0.028-0.119l0.467-0.36c0.048-0.037 0.117-0.021 0.145 0.032 0.276 0.531 0.445 1.126 0.478 1.757 0.003 0.055-0.041 0.101-0.097 0.101zM16.78 15.082c1.073 0.066 2.019 0.608 2.625 1.419 0.029 0.039 0.082 0.051 0.125 0.026l0.507-0.287c0.050-0.028 0.064-0.094 0.031-0.14-0.742-1.030-1.928-1.72-3.278-1.791-0.055-0.003-0.101 0.041-0.101 0.097v0.579c0 0.051 0.040 0.093 0.091 0.096z"></path>
<path fill="#fff" style="fill: var(--color1, #fff)" d="M15.904 19.927l0.277-0.212 1.741-1.324c0.033-0.025 0.081-0.015 0.1 0.021l0.926 1.71c0.035 0.064-0.012 0.142-0.085 0.142h-0.856c-0.049 0-0.094-0.027-0.117-0.070l-0.326-0.604c-0.13-0.241-0.434-0.325-0.67-0.186l-0.991 0.522zM15.198 20.237l5.040-3.88-4.287 2.426c0.123-0.232 1.146-1.987 1.146-1.987l-0.453-0.927c-0.036-0.067-0.132-0.067-0.169-0.001l-2.372 4.253c-0.036 0.064 0.011 0.143 0.084 0.143h0.93c0.029 0 0.058-0.009 0.081-0.027z"></path>
<path fill="#40bda6" style="fill: var(--color3, #40bda6)" d="M20.808 21.174c0-0.147-0.024-0.281-0.071-0.403s-0.115-0.227-0.203-0.315c-0.088-0.088-0.195-0.157-0.32-0.206s-0.265-0.075-0.421-0.075c-0.156 0-0.289 0.022-0.415 0.066s-0.233 0.105-0.325 0.183c-0.091 0.079-0.162 0.174-0.212 0.286s-0.076 0.235-0.076 0.37c0 0.135 0.025 0.264 0.075 0.37s0.116 0.199 0.2 0.28c0.084 0.081 0.181 0.151 0.291 0.21s0.227 0.112 0.348 0.158c0.102 0.041 0.184 0.080 0.246 0.117s0.109 0.075 0.142 0.114c0.033 0.039 0.055 0.081 0.066 0.125s0.016 0.095 0.016 0.151c0 0.052-0.006 0.1-0.018 0.144s-0.032 0.082-0.059 0.114c-0.027 0.032-0.063 0.057-0.107 0.076s-0.097 0.028-0.159 0.028c-0.077 0-0.144-0.009-0.202-0.028s-0.106-0.049-0.146-0.091c-0.039-0.042-0.069-0.097-0.088-0.166-0.013-0.047-0.021-0.101-0.026-0.162h-0.655c0.009 0.147 0.039 0.277 0.093 0.388 0.064 0.134 0.149 0.244 0.255 0.331s0.225 0.152 0.359 0.194c0.134 0.042 0.271 0.063 0.411 0.063 0.154 0 0.293-0.020 0.416-0.061s0.228-0.099 0.314-0.175c0.087-0.076 0.153-0.17 0.2-0.281s0.070-0.238 0.070-0.38c0-0.134-0.018-0.253-0.055-0.359s-0.094-0.201-0.169-0.286c-0.075-0.085-0.17-0.16-0.282-0.227s-0.245-0.128-0.396-0.182c-0.073-0.031-0.139-0.063-0.199-0.095s-0.111-0.067-0.153-0.104c-0.042-0.037-0.075-0.077-0.098-0.12s-0.035-0.091-0.035-0.144c0-0.053 0.007-0.101 0.022-0.147s0.037-0.085 0.067-0.119c0.030-0.033 0.067-0.060 0.112-0.079s0.099-0.029 0.161-0.029c0.067 0 0.123 0.011 0.171 0.035s0.087 0.055 0.117 0.095c0.030 0.041 0.053 0.089 0.067 0.147s0.021 0.12 0.021 0.188l0.652-0.001z"></path>
<path fill="#0a2e45" style="fill: var(--color4, #0a2e45)" d="M26.802 27.288c0 0.050 0.004 0.094 0.013 0.132s0.023 0.072 0.044 0.099 0.050 0.048 0.085 0.062c0.036 0.014 0.081 0.021 0.134 0.021 0.044 0 0.082-0.005 0.115-0.014s0.058-0.018 0.079-0.026l-0.029-0.137c-0.014 0.006-0.033 0.012-0.058 0.018s-0.053 0.010-0.084 0.010c-0.046 0-0.078-0.013-0.097-0.039s-0.029-0.069-0.029-0.129v-0.305h0.266v-0.144h-0.266v-0.226l-0.173 0.029v0.648l-0.001-0.001zM26.69 26.847c-0.008-0.003-0.020-0.006-0.035-0.010s-0.029-0.006-0.044-0.008c-0.016-0.002-0.030-0.004-0.046-0.006s-0.029-0.002-0.040-0.002c-0.061 0-0.117 0.005-0.167 0.017s-0.092 0.023-0.125 0.035v0.713h0.173v-0.6c0.008-0.003 0.024-0.006 0.045-0.010s0.042-0.006 0.061-0.006c0.033 0 0.063 0.002 0.088 0.008s0.045 0.010 0.060 0.015l0.030-0.146v0.001zM25.829 27.39c-0.032 0.044-0.076 0.066-0.134 0.066s-0.102-0.022-0.134-0.066c-0.032-0.044-0.048-0.104-0.048-0.179s0.016-0.134 0.048-0.176c0.032-0.044 0.076-0.065 0.134-0.065s0.102 0.021 0.134 0.065c0.032 0.044 0.048 0.103 0.048 0.176s-0.016 0.135-0.048 0.179zM26.028 27.050c-0.018-0.048-0.042-0.089-0.074-0.124s-0.069-0.061-0.114-0.079c-0.044-0.018-0.093-0.028-0.146-0.028s-0.101 0.010-0.144 0.028c-0.044 0.018-0.082 0.045-0.114 0.079s-0.057 0.076-0.075 0.124c-0.018 0.048-0.026 0.102-0.026 0.161s0.009 0.113 0.026 0.162c0.018 0.049 0.042 0.090 0.074 0.125s0.069 0.061 0.113 0.080c0.044 0.019 0.093 0.029 0.146 0.029s0.103-0.010 0.147-0.029c0.044-0.019 0.082-0.046 0.114-0.080s0.056-0.076 0.073-0.125c0.017-0.049 0.026-0.103 0.026-0.162s-0.009-0.113-0.026-0.161zM25.172 27.050c-0.018-0.048-0.043-0.089-0.076-0.123s-0.073-0.060-0.119-0.078c-0.047-0.018-0.1-0.027-0.159-0.027s-0.112 0.004-0.163 0.013c-0.051 0.008-0.095 0.018-0.13 0.027v0.989h0.173v-0.29c0.019 0.011 0.044 0.020 0.073 0.029s0.062 0.013 0.097 0.013c0.053 0 0.1-0.009 0.141-0.029s0.076-0.046 0.104-0.080c0.027-0.035 0.049-0.075 0.064-0.123s0.022-0.1 0.022-0.157c0-0.060-0.009-0.114-0.026-0.162zM24.977 27.39c-0.029 0.043-0.075 0.064-0.138 0.064-0.029 0-0.055-0.005-0.081-0.014s-0.046-0.019-0.061-0.029v-0.428c0.017-0.005 0.035-0.008 0.053-0.009s0.035-0.002 0.051-0.002c0.078 0 0.134 0.021 0.168 0.064s0.052 0.103 0.052 0.18c0 0.073-0.014 0.13-0.044 0.173zM24.404 26.848c-0.008-0.003-0.020-0.006-0.035-0.010s-0.029-0.006-0.044-0.008c-0.016-0.002-0.030-0.004-0.046-0.006s-0.029-0.002-0.040-0.002c-0.061 0-0.117 0.005-0.167 0.017s-0.092 0.023-0.125 0.035v0.713h0.173v-0.6c0.008-0.003 0.024-0.006 0.045-0.010s0.042-0.006 0.061-0.006c0.033 0 0.063 0.002 0.088 0.008s0.045 0.010 0.060 0.015l0.030-0.146v0.001zM23.714 26.54c-0.021-0.019-0.046-0.029-0.075-0.029s-0.055 0.009-0.076 0.029c-0.021 0.019-0.032 0.045-0.032 0.079s0.011 0.058 0.032 0.078c0.021 0.019 0.047 0.029 0.076 0.029s0.054-0.010 0.075-0.029c0.021-0.019 0.032-0.045 0.032-0.078s-0.011-0.060-0.032-0.079zM23.727 26.838h-0.173v0.748h0.173v-0.748zM23.023 26.97c0.029 0.073 0.058 0.153 0.089 0.237h-0.326c0.030-0.085 0.060-0.163 0.088-0.236s0.053-0.134 0.075-0.185c0.021 0.049 0.046 0.11 0.075 0.183zM23.437 27.586c-0.037-0.106-0.073-0.204-0.107-0.293s-0.067-0.175-0.099-0.255c-0.032-0.080-0.064-0.156-0.095-0.229s-0.064-0.144-0.097-0.215h-0.172c-0.033 0.070-0.066 0.142-0.097 0.215s-0.063 0.149-0.095 0.229c-0.032 0.080-0.064 0.165-0.098 0.255s-0.069 0.187-0.106 0.293h0.187c0.014-0.038 0.027-0.076 0.041-0.115s0.027-0.078 0.041-0.118h0.419c0.013 0.040 0.027 0.079 0.042 0.117s0.028 0.077 0.042 0.116h0.194z"></path>
<path fill="#fff" style="fill: var(--color1, #fff)" d="M22.075 9.748c-0.035-0.010-0.078-0.018-0.129-0.027s-0.104-0.013-0.161-0.013c-0.057 0-0.11 0.009-0.156 0.027s-0.085 0.044-0.117 0.076c-0.032 0.032-0.056 0.072-0.073 0.117s-0.025 0.096-0.025 0.15c0 0.058 0.008 0.11 0.024 0.154s0.038 0.081 0.066 0.111 0.062 0.052 0.101 0.067c0.039 0.015 0.084 0.023 0.131 0.023 0.036 0 0.069-0.004 0.097-0.013s0.051-0.017 0.068-0.026v0.029c0 0.056-0.015 0.099-0.044 0.128s-0.079 0.043-0.149 0.043c-0.044 0-0.085-0.004-0.122-0.011s-0.072-0.018-0.101-0.030l-0.032 0.147c0.035 0.013 0.075 0.023 0.118 0.030s0.088 0.011 0.134 0.011c0.125 0 0.218-0.027 0.279-0.083s0.091-0.143 0.091-0.262v-0.648h0.001zM21.643 9.915c0.033-0.042 0.082-0.062 0.144-0.062 0.027 0 0.051 0.001 0.069 0.004s0.033 0.005 0.046 0.008v0.388c-0.016 0.011-0.035 0.020-0.060 0.027s-0.050 0.011-0.078 0.011c-0.051 0-0.092-0.017-0.124-0.051s-0.048-0.088-0.048-0.161c0-0.068 0.017-0.122 0.050-0.164zM20.618 10.473h0.173v-0.604c0.011-0.002 0.029-0.004 0.053-0.007s0.047-0.004 0.069-0.004c0.030 0 0.055 0.004 0.075 0.012s0.037 0.021 0.049 0.039c0.012 0.018 0.020 0.041 0.026 0.069s0.008 0.062 0.008 0.103v0.393h0.173v-0.421c0-0.051-0.005-0.097-0.015-0.14s-0.027-0.079-0.051-0.109c-0.024-0.030-0.057-0.054-0.098-0.070s-0.092-0.025-0.153-0.025c-0.065 0-0.124 0.004-0.178 0.013s-0.097 0.018-0.13 0.027v0.724zM20.385 9.427c-0.021-0.019-0.046-0.029-0.075-0.029s-0.055 0.009-0.076 0.029c-0.021 0.019-0.032 0.045-0.032 0.079s0.011 0.058 0.032 0.078c0.021 0.019 0.047 0.029 0.076 0.029s0.054-0.010 0.075-0.029c0.021-0.019 0.032-0.045 0.032-0.078s-0.011-0.060-0.032-0.079zM20.398 9.724h-0.173v0.748h0.173v-0.748zM20.083 10.344c-0.023-0.003-0.042-0.007-0.057-0.012s-0.026-0.013-0.035-0.023c-0.008-0.010-0.014-0.022-0.018-0.036s-0.005-0.032-0.005-0.053v-0.857l-0.173 0.029v0.862c0 0.037 0.004 0.070 0.012 0.1s0.022 0.054 0.042 0.073c0.020 0.020 0.047 0.035 0.081 0.045s0.076 0.016 0.128 0.017l0.024-0.143-0.001-0.001zM19.577 9.362l-0.173 0.029v0.359c-0.020-0.011-0.044-0.020-0.072-0.029s-0.060-0.013-0.096-0.013c-0.054 0-0.101 0.010-0.142 0.028s-0.076 0.045-0.104 0.079c-0.029 0.035-0.050 0.076-0.065 0.124s-0.022 0.102-0.022 0.161c0 0.059 0.009 0.114 0.026 0.162s0.043 0.089 0.076 0.123c0.033 0.034 0.073 0.060 0.119 0.078s0.1 0.027 0.159 0.027c0.059 0 0.112-0.004 0.164-0.013s0.095-0.018 0.129-0.029v-1.088l0.001 0.001zM19.124 9.922c0.029-0.043 0.075-0.064 0.138-0.064 0.029 0 0.055 0.005 0.081 0.014s0.045 0.019 0.061 0.029v0.429c-0.012 0.003-0.029 0.005-0.048 0.008s-0.043 0.004-0.071 0.004c-0.064 0-0.114-0.021-0.15-0.065s-0.054-0.103-0.054-0.179 0.014-0.132 0.044-0.175zM18.107 10.473h0.173v-0.604c0.011-0.002 0.029-0.004 0.053-0.007s0.047-0.004 0.069-0.004c0.030 0 0.055 0.004 0.075 0.012s0.036 0.021 0.049 0.039c0.012 0.018 0.020 0.041 0.026 0.069s0.008 0.062 0.008 0.103v0.393h0.173v-0.421c0-0.051-0.005-0.097-0.015-0.14s-0.027-0.079-0.051-0.109c-0.024-0.030-0.057-0.054-0.098-0.070s-0.092-0.025-0.153-0.025c-0.065 0-0.124 0.004-0.178 0.013s-0.097 0.018-0.13 0.027v0.724zM17.457 9.717c-0.042 0.008-0.074 0.016-0.096 0.023l0.021 0.14c0.021-0.008 0.048-0.014 0.082-0.020s0.070-0.008 0.11-0.008c0.030 0 0.054 0.004 0.074 0.011s0.035 0.018 0.047 0.032c0.012 0.014 0.020 0.030 0.025 0.048s0.007 0.037 0.007 0.057v0.029c-0.024-0.006-0.047-0.009-0.067-0.012s-0.041-0.004-0.060-0.004c-0.041 0-0.081 0.004-0.118 0.012s-0.071 0.021-0.1 0.040c-0.029 0.018-0.051 0.043-0.068 0.072s-0.025 0.066-0.025 0.108c0 0.043 0.007 0.082 0.022 0.113s0.035 0.055 0.061 0.075c0.026 0.019 0.058 0.033 0.095 0.042s0.078 0.013 0.123 0.013c0.068 0 0.129-0.004 0.183-0.012s0.094-0.015 0.121-0.021v-0.454c0-0.044-0.005-0.084-0.015-0.121s-0.027-0.068-0.050-0.094-0.055-0.046-0.094-0.060c-0.039-0.014-0.087-0.021-0.144-0.021-0.048 0-0.093 0.004-0.135 0.011zM17.501 10.327c-0.026-0.016-0.039-0.044-0.039-0.085 0-0.021 0.005-0.038 0.014-0.052s0.022-0.024 0.038-0.032c0.016-0.008 0.033-0.013 0.053-0.016s0.039-0.004 0.058-0.004c0.022 0 0.042 0.001 0.060 0.004s0.032 0.006 0.042 0.008v0.192c-0.027 0.006-0.068 0.008-0.122 0.008-0.044 0-0.079-0.008-0.104-0.024zM16.933 9.876h-0.431v-0.397h-0.18v0.992h0.18v-0.44h0.431v0.44h0.18v-0.992h-0.18v0.397zM15.759 9.361l-0.173 0.029v0.359c-0.020-0.011-0.044-0.020-0.072-0.029s-0.060-0.013-0.096-0.013c-0.054 0-0.101 0.009-0.142 0.028s-0.076 0.045-0.104 0.079c-0.029 0.035-0.050 0.076-0.065 0.124s-0.022 0.102-0.022 0.161 0.009 0.114 0.026 0.162c0.018 0.048 0.043 0.089 0.076 0.123s0.073 0.060 0.119 0.078c0.047 0.018 0.1 0.027 0.159 0.027s0.112-0.004 0.164-0.013c0.052-0.008 0.095-0.018 0.13-0.029v-1.088l0.001 0.001zM15.305 9.921c0.029-0.043 0.075-0.064 0.138-0.064 0.029 0 0.056 0.005 0.081 0.014s0.045 0.019 0.061 0.029v0.429c-0.013 0.003-0.029 0.005-0.048 0.008s-0.043 0.004-0.071 0.004c-0.064 0-0.114-0.021-0.15-0.065s-0.054-0.103-0.054-0.179c0-0.076 0.014-0.132 0.044-0.175zM14.288 10.472h0.173v-0.604c0.011-0.002 0.029-0.004 0.053-0.007s0.046-0.004 0.069-0.004c0.030 0 0.055 0.004 0.075 0.012s0.036 0.021 0.049 0.039c0.012 0.018 0.020 0.040 0.026 0.069s0.008 0.062 0.008 0.103v0.394h0.173v-0.421c0-0.051-0.005-0.097-0.015-0.14s-0.027-0.079-0.051-0.108c-0.024-0.030-0.057-0.054-0.098-0.070s-0.092-0.025-0.153-0.025c-0.065 0-0.124 0.004-0.178 0.013s-0.097 0.018-0.13 0.027v0.724zM14.068 9.723h-0.173v0.605c-0.011 0.003-0.029 0.005-0.053 0.007s-0.045 0.003-0.067 0.003c-0.058 0-0.099-0.017-0.122-0.051s-0.035-0.092-0.035-0.172v-0.392h-0.173v0.419c0 0.051 0.005 0.097 0.016 0.14s0.028 0.079 0.053 0.11c0.024 0.030 0.057 0.054 0.097 0.072s0.091 0.026 0.151 0.026c0.064 0 0.123-0.005 0.176-0.014s0.097-0.018 0.13-0.026v-0.726h0.001zM13.048 10.275c-0.032 0.044-0.076 0.066-0.134 0.066s-0.102-0.022-0.134-0.066-0.048-0.104-0.048-0.179c0-0.075 0.016-0.134 0.048-0.177s0.076-0.065 0.134-0.065c0.057 0 0.102 0.021 0.134 0.065s0.048 0.103 0.048 0.177-0.016 0.135-0.048 0.179zM13.248 9.935c-0.018-0.048-0.042-0.089-0.074-0.124s-0.069-0.061-0.114-0.079c-0.044-0.018-0.093-0.028-0.146-0.028s-0.101 0.009-0.144 0.028c-0.044 0.018-0.082 0.045-0.114 0.079s-0.057 0.076-0.075 0.124-0.026 0.102-0.026 0.161c0 0.059 0.009 0.113 0.026 0.162s0.042 0.090 0.074 0.125c0.032 0.035 0.069 0.061 0.113 0.080s0.092 0.029 0.146 0.029 0.103-0.009 0.147-0.029c0.044-0.019 0.082-0.046 0.114-0.080s0.056-0.076 0.073-0.125c0.017-0.049 0.026-0.103 0.026-0.162s-0.009-0.113-0.026-0.161zM12.477 9.733c-0.008-0.003-0.020-0.006-0.035-0.009s-0.029-0.006-0.044-0.008c-0.015-0.002-0.030-0.004-0.046-0.006s-0.029-0.002-0.040-0.002c-0.061 0-0.117 0.005-0.167 0.017s-0.092 0.023-0.125 0.035v0.713h0.173v-0.6c0.008-0.003 0.024-0.006 0.045-0.010s0.042-0.006 0.061-0.006c0.033 0 0.063 0.002 0.088 0.008s0.045 0.010 0.060 0.015l0.030-0.146v0.001zM11.649 9.633c0.042 0.012 0.078 0.026 0.107 0.044l0.054-0.147c-0.007-0.004-0.018-0.010-0.035-0.018s-0.038-0.017-0.064-0.024c-0.026-0.008-0.057-0.014-0.092-0.021s-0.076-0.010-0.122-0.010c-0.067 0-0.13 0.011-0.189 0.035s-0.111 0.057-0.155 0.101c-0.044 0.044-0.079 0.098-0.104 0.162s-0.038 0.137-0.038 0.221c0 0.084 0.011 0.156 0.035 0.221s0.055 0.118 0.097 0.162c0.042 0.044 0.092 0.078 0.151 0.1s0.125 0.035 0.196 0.035c0.078 0 0.146-0.006 0.205-0.017s0.101-0.022 0.126-0.032v-0.476h-0.18v0.357c-0.013 0.004-0.032 0.007-0.054 0.010s-0.050 0.004-0.082 0.004c-0.051 0-0.095-0.009-0.132-0.026s-0.069-0.042-0.094-0.074c-0.025-0.032-0.044-0.069-0.057-0.114s-0.019-0.093-0.019-0.147c0-0.113 0.027-0.2 0.081-0.264s0.132-0.095 0.234-0.095c0.047 0 0.091 0.006 0.134 0.018z"></path>
<path fill="#fff" style="fill: var(--color1, #fff)" d="M10.948 27.138c0.003-0.022 0.008-0.044 0.016-0.064s0.018-0.039 0.032-0.056c0.014-0.016 0.031-0.029 0.051-0.039s0.044-0.015 0.070-0.015 0.048 0.005 0.067 0.014c0.018 0.009 0.035 0.021 0.047 0.037s0.023 0.035 0.029 0.056c0.007 0.021 0.010 0.044 0.010 0.068h-0.322zM10.791 27.37c0.016 0.047 0.039 0.088 0.070 0.123s0.072 0.062 0.12 0.082c0.049 0.020 0.106 0.029 0.172 0.029 0.026 0 0.051-0.001 0.076-0.004s0.048-0.007 0.069-0.011c0.021-0.004 0.041-0.009 0.057-0.014s0.030-0.010 0.039-0.015l-0.023-0.142c-0.020 0.008-0.048 0.017-0.082 0.024s-0.073 0.011-0.115 0.011c-0.072 0-0.127-0.017-0.164-0.049s-0.059-0.079-0.064-0.14h0.494c0.001-0.009 0.002-0.020 0.002-0.032s0.001-0.023 0.001-0.032c0-0.127-0.029-0.222-0.087-0.286s-0.138-0.096-0.241-0.096c-0.044 0-0.087 0.008-0.129 0.025s-0.079 0.042-0.112 0.075-0.058 0.074-0.078 0.124c-0.020 0.049-0.029 0.107-0.029 0.173 0 0.056 0.008 0.108 0.023 0.155zM9.972 27.585h0.173v-0.604c0.011-0.002 0.029-0.004 0.053-0.007s0.047-0.004 0.069-0.004c0.029 0 0.055 0.004 0.075 0.012s0.036 0.021 0.049 0.039c0.012 0.018 0.020 0.041 0.026 0.069s0.008 0.062 0.008 0.103v0.394h0.173v-0.421c0-0.051-0.005-0.097-0.015-0.14s-0.027-0.079-0.051-0.108c-0.024-0.030-0.057-0.054-0.098-0.070s-0.092-0.025-0.153-0.025c-0.065 0-0.124 0.004-0.178 0.013s-0.097 0.018-0.13 0.027v0.724zM9.321 26.83c-0.042 0.008-0.074 0.016-0.096 0.023l0.021 0.14c0.021-0.008 0.048-0.014 0.082-0.020s0.070-0.008 0.11-0.008c0.029 0 0.054 0.004 0.074 0.011s0.035 0.018 0.047 0.032c0.012 0.014 0.020 0.030 0.025 0.048s0.007 0.037 0.007 0.057v0.029c-0.024-0.006-0.047-0.010-0.067-0.012s-0.041-0.004-0.060-0.004c-0.041 0-0.081 0.004-0.118 0.012s-0.071 0.021-0.1 0.040c-0.029 0.018-0.051 0.043-0.068 0.072s-0.025 0.066-0.025 0.109 0.007 0.082 0.022 0.113c0.015 0.030 0.035 0.055 0.061 0.075s0.058 0.033 0.095 0.042c0.037 0.008 0.078 0.013 0.123 0.013 0.068 0 0.129-0.004 0.183-0.012s0.094-0.015 0.121-0.021v-0.454c0-0.044-0.005-0.084-0.015-0.121s-0.027-0.068-0.050-0.094c-0.023-0.026-0.055-0.046-0.094-0.060s-0.087-0.021-0.144-0.021c-0.048 0-0.092 0.004-0.135 0.011zM9.366 27.44c-0.026-0.016-0.039-0.044-0.039-0.085 0-0.021 0.005-0.038 0.014-0.052s0.022-0.024 0.038-0.032c0.016-0.008 0.033-0.013 0.053-0.016s0.039-0.004 0.058-0.004c0.022 0 0.042 0.001 0.060 0.004s0.032 0.006 0.042 0.008v0.192c-0.027 0.006-0.068 0.008-0.122 0.008-0.044 0-0.079-0.008-0.104-0.024zM9.067 27.456c-0.023-0.003-0.042-0.007-0.057-0.012s-0.026-0.013-0.035-0.023c-0.009-0.009-0.014-0.022-0.018-0.036s-0.005-0.032-0.005-0.053v-0.857l-0.173 0.029v0.862c0 0.037 0.004 0.070 0.012 0.1s0.022 0.054 0.042 0.073c0.020 0.020 0.047 0.035 0.081 0.045s0.076 0.016 0.128 0.017l0.024-0.143-0.001-0.001zM8.289 26.747c0.030 0.005 0.056 0.014 0.078 0.026s0.039 0.030 0.051 0.051c0.012 0.022 0.018 0.049 0.018 0.082 0 0.068-0.023 0.114-0.070 0.138s-0.113 0.036-0.2 0.036h-0.087v-0.337c0.030-0.003 0.067-0.004 0.113-0.004 0.035 0 0.067 0.002 0.097 0.008zM8.038 26.588c-0.051 0.004-0.098 0.010-0.14 0.019v0.977h0.18v-0.349h0.090c0.073 0 0.137-0.006 0.193-0.018s0.104-0.032 0.143-0.058c0.039-0.026 0.069-0.060 0.089-0.101s0.031-0.091 0.031-0.15c0-0.112-0.038-0.194-0.115-0.246s-0.187-0.079-0.332-0.079c-0.043 0-0.090 0.002-0.141 0.005zM7.361 27.255h0.385v-0.159h-0.385v0.159zM7.034 27.388c-0.032 0.044-0.076 0.066-0.134 0.066s-0.102-0.022-0.134-0.066c-0.032-0.044-0.048-0.104-0.048-0.179s0.016-0.134 0.048-0.177c0.032-0.043 0.076-0.065 0.134-0.065s0.102 0.021 0.134 0.065c0.032 0.044 0.048 0.103 0.048 0.177s-0.016 0.135-0.048 0.179zM7.234 27.048c-0.018-0.048-0.042-0.089-0.074-0.124s-0.069-0.061-0.114-0.079c-0.044-0.018-0.093-0.028-0.146-0.028s-0.101 0.009-0.144 0.028c-0.044 0.018-0.082 0.045-0.114 0.079s-0.057 0.076-0.075 0.124-0.026 0.102-0.026 0.161c0 0.059 0.009 0.113 0.026 0.162s0.042 0.090 0.074 0.125c0.032 0.035 0.069 0.061 0.113 0.080s0.092 0.029 0.146 0.029c0.054 0 0.103-0.009 0.147-0.029s0.082-0.046 0.114-0.080c0.032-0.035 0.056-0.076 0.073-0.125s0.026-0.103 0.026-0.162c0-0.059-0.009-0.113-0.026-0.161zM5.993 27.287c0 0.049 0.004 0.094 0.013 0.132s0.023 0.072 0.044 0.099c0.021 0.027 0.050 0.048 0.085 0.062s0.081 0.021 0.134 0.021c0.044 0 0.082-0.005 0.115-0.014s0.059-0.018 0.079-0.026l-0.029-0.137c-0.014 0.006-0.033 0.012-0.058 0.018s-0.053 0.010-0.084 0.010c-0.046 0-0.078-0.013-0.097-0.039s-0.029-0.069-0.029-0.129v-0.305h0.266v-0.144h-0.266v-0.226l-0.173 0.029v0.648l-0.001-0.001zM5.164 27.584h0.173v-0.604c0.011-0.002 0.029-0.004 0.053-0.007s0.047-0.004 0.069-0.004c0.029 0 0.055 0.004 0.075 0.012s0.037 0.021 0.049 0.039c0.012 0.018 0.020 0.041 0.026 0.069s0.008 0.062 0.008 0.103v0.394h0.173v-0.421c0-0.051-0.005-0.097-0.015-0.14s-0.027-0.079-0.051-0.108c-0.024-0.030-0.057-0.054-0.098-0.070s-0.092-0.025-0.153-0.025c-0.065 0-0.124 0.004-0.178 0.013s-0.097 0.018-0.13 0.027v0.724zM4.754 27.584h0.18v-0.992h-0.18v0.992z"></path>
<path fill="#fff" style="fill: var(--color1, #fff)" d="M9.671 25.168c-0.208 0-0.378-0.169-0.378-0.377s0.169-0.377 0.378-0.377c0.208 0 0.377 0.169 0.377 0.377s-0.169 0.377-0.377 0.377zM9.671 24.504c-0.159 0-0.288 0.129-0.288 0.287s0.129 0.287 0.288 0.287c0.159 0 0.288-0.129 0.288-0.287s-0.129-0.287-0.288-0.287zM9.671 24.984c-0.106 0-0.193-0.086-0.193-0.193s0.087-0.193 0.193-0.193c0.107 0 0.193 0.087 0.193 0.193s-0.086 0.193-0.193 0.193zM9.671 24.688c-0.057 0-0.104 0.047-0.104 0.104s0.047 0.104 0.104 0.104c0.057 0 0.104-0.047 0.104-0.104s-0.047-0.104-0.104-0.104z"></path>
<path fill="#fff" style="fill: var(--color1, #fff)" d="M6.68 25.168c-0.208 0-0.378-0.169-0.378-0.377s0.169-0.377 0.378-0.377c0.208 0 0.377 0.169 0.377 0.377s-0.169 0.377-0.377 0.377zM6.68 24.504c-0.159 0-0.288 0.129-0.288 0.287s0.129 0.287 0.288 0.287c0.159 0 0.288-0.129 0.288-0.287s-0.129-0.287-0.288-0.287zM6.68 24.984c-0.106 0-0.193-0.086-0.193-0.193s0.087-0.193 0.193-0.193c0.107 0 0.193 0.087 0.193 0.193s-0.087 0.193-0.193 0.193zM6.68 24.688c-0.057 0-0.104 0.047-0.104 0.104s0.047 0.104 0.104 0.104c0.057 0 0.104-0.047 0.104-0.104s-0.047-0.104-0.104-0.104z"></path>
<path fill="#fff" style="fill: var(--color1, #fff)" d="M7.434 25.169c-0.208 0-0.378-0.169-0.378-0.377s0.169-0.377 0.378-0.377c0.208 0 0.377 0.169 0.378 0.376 0 0.209-0.169 0.378-0.378 0.378zM7.434 24.504c-0.159 0-0.288 0.129-0.288 0.287s0.13 0.288 0.288 0.288c0.159 0 0.288-0.129 0.288-0.288s-0.13-0.287-0.288-0.287zM7.434 24.984c-0.106 0-0.193-0.086-0.193-0.193s0.087-0.192 0.193-0.192c0.107 0 0.193 0.086 0.193 0.192s-0.087 0.193-0.193 0.193zM7.434 24.688c-0.057 0-0.104 0.046-0.104 0.103s0.046 0.104 0.104 0.104 0.104-0.047 0.104-0.104c0-0.057-0.046-0.103-0.104-0.103z"></path>
<path fill="#fff" style="fill: var(--color1, #fff)" d="M8.821 24.568h-1.079l-0.014-0.016c-0.073-0.088-0.18-0.139-0.295-0.139h-0.001c-0.113 0-0.22 0.051-0.291 0.138l-0.014 0.017h-0.141l-0.013-0.016c-0.066-0.079-0.157-0.128-0.258-0.138s-0.201 0.021-0.277 0.085l-0.073 0.061v-0.138h-0.119c-0.244 0-0.443-0.199-0.443-0.443v-0.445c0-0.244 0.199-0.443 0.443-0.443h0.127v-0.010c-0.028-0.014-0.045-0.041-0.045-0.075 0-0.048 0.036-0.084 0.084-0.084 0.103 0.005 0.182 0.002 0.239-0.001 0.089-0.004 0.138-0.005 0.169 0.025 0.015 0.015 0.023 0.035 0.023 0.059 0 0.032-0.019 0.061-0.045 0.075v0.009h1.419v-0.010c-0.028-0.014-0.046-0.042-0.046-0.074 0-0.046 0.038-0.084 0.085-0.084h0.348c0.046 0 0.084 0.038 0.084 0.084 0 0.032-0.018 0.061-0.045 0.075v0.009h0.125c0.244 0 0.443 0.199 0.443 0.443v0.445c0 0.225-0.172 0.414-0.391 0.44v0.15zM7.784 24.478h0.948v-0.145h0.044c0.192-0.004 0.347-0.162 0.347-0.354v-0.445c0-0.195-0.159-0.354-0.354-0.354h-0.215v-0.168h-0.251l0.005 0.034v0.134h-1.598v-0.17c-0.017 0-0.036 0.001-0.055 0.002-0.050 0.002-0.115 0.004-0.197 0.002l0.005 0.032v0.134h-0.217c-0.195 0-0.354 0.159-0.354 0.354v0.445c0 0.195 0.159 0.354 0.354 0.354h0.208v0.048c0.081-0.044 0.176-0.064 0.27-0.055 0.118 0.011 0.225 0.065 0.304 0.153h0.058c0.088-0.098 0.213-0.154 0.346-0.155 0.136-0.003 0.261 0.056 0.351 0.155z"></path>
<path fill="#fff" style="fill: var(--color1, #fff)" d="M6.299 24.837h-0.175c-0.074 0-0.134-0.060-0.134-0.134 0-0.036 0.014-0.070 0.040-0.095s0.061-0.038 0.095-0.038h0.239l-0.030 0.064c-0.023 0.049-0.035 0.103-0.035 0.158v0.045l-0.001-0.001zM6.123 24.66c-0.012 0-0.023 0.004-0.030 0.012s-0.013 0.019-0.013 0.031c0 0.024 0.020 0.044 0.044 0.044h0.088c0.003-0.030 0.008-0.059 0.017-0.088h-0.106l0.001 0.001z"></path>
<path fill="#fff" style="fill: var(--color1, #fff)" d="M10.076 24.837h-0.045v-0.045c0-0.199-0.162-0.36-0.361-0.36s-0.361 0.162-0.361 0.36v0.045h-1.495v-0.045c0-0.055-0.012-0.109-0.035-0.158l-0.030-0.064h1.451v-1.030c0-0.071 0.058-0.129 0.129-0.129h0.71c0.057 0 0.103 0.047 0.103 0.103s-0.047 0.103-0.103 0.103h-0.008c0.079 0.256 0.122 0.395 0.145 0.469 0.010 0.033 0.018 0.058 0.023 0.076l0.003 0.008h-0.001c0 0 0 0.003 0.001 0.004h0.001l0.002 0.008c0.016 0.051 0.024 0.103 0.024 0.156v0.002c-0.005 0.135-0.002 0.231 0 0.301 0.003 0.098 0.005 0.142-0.024 0.172-0.014 0.015-0.033 0.023-0.057 0.023h-0.073l0.001-0.001zM10.118 24.748h0.022c0.002-0.019 0.001-0.060 0-0.103-0.002-0.071-0.005-0.168 0-0.306 0-0.043-0.007-0.087-0.020-0.128-0.001-0.002-0.001-0.004-0.002-0.006s-0.001-0.003-0.001-0.005c0 0-0.007-0.023-0.029-0.094l-0.048-0.002c-0.127-0.004-0.217-0.001-0.282 0-0.095 0.003-0.135 0.004-0.163-0.023-0.014-0.014-0.021-0.032-0.021-0.053v-0.228c0-0.042 0.035-0.077 0.077-0.077h0.319c-0.013-0.042-0.027-0.087-0.042-0.136l-0.018-0.058h0.129c0.007 0 0.014-0.007 0.014-0.014s-0.006-0.014-0.014-0.014h-0.71c-0.021 0-0.039 0.017-0.039 0.039v1.010c0.080-0.125 0.22-0.208 0.38-0.208 0.233 0 0.426 0.178 0.449 0.405h-0.001zM7.901 24.748h1.32c0.003-0.030 0.009-0.060 0.018-0.088h-1.354c0.008 0.029 0.014 0.058 0.017 0.088zM9.663 24.015c0.019 0.002 0.054 0 0.092 0 0.055-0.002 0.127-0.004 0.224-0.002l-0.061-0.2h-0.254v0.203l-0.001-0.001z"></path>
<path fill="#0a2e45" style="fill: var(--color4, #0a2e45)" d="M23.366 25.67h0.47v0.111h-0.47v-0.111zM23.214 23.708c-0.008-0.008-0.012-0.017-0.012-0.028v-0.418h0.799v0.418c0 0.011-0.004 0.021-0.012 0.028l-0.12 0.117h-0.535l-0.12-0.117zM23.231 23.011h0.742c0.016 0 0.029 0.013 0.029 0.028v0.115h-0.799v-0.115c0-0.016 0.013-0.028 0.029-0.028zM24.985 24.362h0.002c0.535 0 1.051 0.188 1.463 0.532h-2.503v-0.283c0.319-0.163 0.677-0.25 1.037-0.25zM25.776 25.002h0.103v0.778h-0.103v-0.778zM25.329 25.002h0.337v0.778h-0.337v-0.778zM25.115 25.002h0.103v0.778h-0.103v-0.778zM24.668 25.002h0.337v0.778h-0.337v-0.778zM24.455 25.002h0.103v0.778h-0.103v-0.778zM23.947 25.002h0.397v0.778h-0.397v-0.778zM23.366 25.24h0.47v0.32h-0.47v-0.32zM23.366 24.16h0.47v0.419h-0.47v-0.419zM23.837 25.133h-0.47v-0.445h0.47v0.445zM23.837 24.052h-0.47v-0.12h0.47v0.12zM26.325 25.779h-0.337v-0.778h0.337v0.778zM26.798 25.779h-0.149v-0.249c0-0.030-0.024-0.054-0.055-0.054s-0.055 0.024-0.055 0.054v0.249h-0.103v-0.778h0.103v0.298c0 0.030 0.024 0.054 0.055 0.054s0.055-0.024 0.055-0.054v-0.25c0 0 0.005 0 0.007 0s0.002 0 0.004 0c0.020-0.001 0.039-0.009 0.052-0.024l0.115-0.123c0.028-0.030 0.026-0.077-0.005-0.104l-0.097-0.086c-0.113-0.101-0.236-0.193-0.365-0.273-0.026-0.016-0.060-0.008-0.076 0.017s-0.009 0.058 0.017 0.075c0.124 0.077 0.242 0.165 0.35 0.261l0.071 0.063-0.067 0.072-0.072-0.064c-0.442-0.394-1.008-0.611-1.595-0.611h-0.002c-0.359 0-0.716 0.082-1.037 0.237v-0.108c0.322-0.148 0.68-0.226 1.037-0.227h0.002c0.383 0 0.768 0.091 1.113 0.264 0.008 0.004 0.017 0.006 0.025 0.006 0.020 0 0.039-0.011 0.049-0.029 0.014-0.026 0.003-0.059-0.024-0.073-0.361-0.181-0.763-0.276-1.164-0.276h-0.003c-0.356 0-0.712 0.075-1.037 0.216v-0.363l0.12-0.117c0.029-0.028 0.044-0.065 0.044-0.104v-0.641c0-0.075-0.062-0.136-0.139-0.136h-0.175v-0.284c0-0.030-0.024-0.054-0.055-0.054s-0.055 0.024-0.055 0.054v0.284h-0.193v-0.647c0-0.030-0.024-0.054-0.055-0.054s-0.055 0.024-0.055 0.054v0.647h-0.153c-0.076 0-0.139 0.061-0.139 0.136v0.641c0 0.039 0.016 0.076 0.044 0.104l0.12 0.117v1.879h-0.109c-0.030 0-0.055 0.024-0.055 0.054s0.024 0.054 0.055 0.054h3.651c0.030 0 0.055-0.024 0.055-0.054s-0.024-0.054-0.055-0.054z"></path>
<path fill="#0a2e45" style="fill: var(--color4, #0a2e45)" d="M23.343 23.477h0.066c0.030 0 0.055-0.024 0.055-0.054s-0.024-0.054-0.055-0.054h-0.066c-0.030 0-0.055 0.024-0.055 0.054s0.024 0.054 0.055 0.054z"></path>
<path fill="#0a2e45" style="fill: var(--color4, #0a2e45)" d="M23.8 23.477h0.066c0.030 0 0.055-0.024 0.055-0.054s-0.024-0.054-0.055-0.054h-0.066c-0.030 0-0.055 0.024-0.055 0.054s0.024 0.054 0.055 0.054z"></path>
<path fill="#0a2e45" style="fill: var(--color4, #0a2e45)" d="M25.35 23.429h0.331v0.090h-0.331c-0.025 0-0.046-0.020-0.046-0.045s0.021-0.045 0.046-0.045zM24.929 23.477h0.265c0.002 0.083 0.071 0.15 0.156 0.15h0.343c0.054 0 0.099-0.044 0.099-0.097v-0.053h0.351c0.081 0 0.151-0.053 0.171-0.129l0.091-0.35c0.007-0.027 0.001-0.056-0.017-0.078s-0.044-0.035-0.073-0.035h-0.119c-0.028 0-0.054 0.012-0.072 0.033l-0.158 0.189h-0.576c-0.030 0-0.055 0.024-0.055 0.054s0.024 0.054 0.055 0.054h0.602c0.017 0 0.032-0.007 0.043-0.020l0.169-0.203h0.088l-0.086 0.329c-0.007 0.029-0.033 0.048-0.064 0.048h-0.365c-0.017-0.029-0.049-0.048-0.085-0.048h-0.343c-0.045 0-0.085 0.018-0.113 0.048h-0.308c-0.044 0-0.079-0.035-0.079-0.077s0.035-0.077 0.079-0.077h0.228c0.030 0 0.055-0.024 0.055-0.054s-0.024-0.054-0.055-0.054h-0.228c-0.104 0-0.189 0.083-0.189 0.185s0.085 0.185 0.189 0.185v0.001z"></path>
<path fill="#fff" style="fill: var(--color1, #fff)" d="M18.257 8.119h-3.4c-0.038 0-0.069-0.031-0.069-0.069v-1.060c0-0.038 0.031-0.069 0.069-0.069s0.069 0.031 0.069 0.069v0.991h0.152v-1.85c0-0.038 0.031-0.069 0.069-0.069h2.819c0.038 0 0.069 0.031 0.069 0.069v1.85h0.152v-2.622l-1.631-0.625-1.631 0.625v1.013c0 0.038-0.031 0.069-0.069 0.069s-0.069-0.031-0.069-0.069v-1.060c0-0.029 0.018-0.054 0.044-0.064l1.7-0.651c0.016-0.006 0.033-0.006 0.049 0l1.7 0.651c0.027 0.010 0.044 0.036 0.044 0.064v2.739c0 0.038-0.031 0.069-0.069 0.069v0.001zM15.216 7.981h2.681v-1.781h-2.681v1.781z"></path>
<path fill="#fff" style="fill: var(--color1, #fff)" d="M16.557 6.961c-0.038 0-0.069-0.031-0.069-0.069v-0.206h-0.314c-0.038 0-0.069-0.031-0.069-0.069s0.031-0.069 0.069-0.069h0.314v-0.073c0-0.038 0.031-0.069 0.069-0.069s0.069 0.031 0.069 0.069v0.073h0.314c0.038 0 0.069 0.031 0.069 0.069s-0.031 0.069-0.069 0.069h-0.314v0.206c0 0.038-0.031 0.069-0.069 0.069z"></path>
<path fill="#fff" style="fill: var(--color1, #fff)" d="M17.402 8.119c-0.038 0-0.069-0.031-0.069-0.069v-0.315h-0.133v0.315c0 0.038-0.031 0.069-0.069 0.069s-0.069-0.031-0.069-0.069v-0.315h-0.249c-0.056 0.045-0.119 0.076-0.187 0.089v0.225c0 0.038-0.031 0.069-0.069 0.069s-0.069-0.031-0.069-0.069v-0.225c-0.067-0.013-0.131-0.045-0.187-0.089h-0.249v0.315c0 0.038-0.031 0.069-0.069 0.069s-0.069-0.031-0.069-0.069v-0.315h-0.133v0.315c0 0.038-0.031 0.069-0.069 0.069s-0.069-0.031-0.069-0.069v-0.315h-0.495c-0.038 0-0.069-0.031-0.069-0.069s0.031-0.069 0.069-0.069h1.027c-0.055-0.081-0.095-0.175-0.113-0.268l-0.905 0.13c-0.038 0.006-0.073-0.021-0.078-0.058s0.021-0.073 0.058-0.078l0.915-0.132c0.016-0.231 0.202-0.368 0.504-0.368s0.488 0.137 0.504 0.368l0.915 0.132c0.038 0.005 0.064 0.040 0.058 0.078s-0.041 0.064-0.078 0.058l-0.905-0.13c-0.017 0.093-0.057 0.187-0.113 0.268h1.027c0.038 0 0.069 0.031 0.069 0.069s-0.031 0.069-0.069 0.069h-0.495v0.315c0 0.038-0.031 0.069-0.069 0.069h0.002zM16.556 6.961c-0.168 0-0.368 0.046-0.368 0.263s0.173 0.469 0.368 0.469c0.195 0 0.354-0.243 0.366-0.445 0-0.001 0-0.001 0-0.002 0-0.007 0.001-0.014 0.001-0.021 0-0.218-0.2-0.263-0.368-0.263l0.001-0.001zM16.556 7.309c-0.045 0-0.091-0.010-0.136-0.030-0.035-0.016-0.050-0.057-0.035-0.091s0.057-0.050 0.091-0.035c0.054 0.024 0.106 0.024 0.159 0 0.035-0.016 0.076 0 0.091 0.035s0 0.076-0.035 0.091c-0.045 0.020-0.091 0.030-0.136 0.030h-0.001zM14.856 6.749c-0.038 0-0.069-0.031-0.069-0.069s0.031-0.069 0.069-0.069c0.038 0 0.069 0.031 0.069 0.069s-0.031 0.069-0.069 0.069zM17.966 6.199c-0.038 0-0.069-0.031-0.069-0.069v-0.257h-2.681v0.257c0 0.038-0.031 0.069-0.069 0.069s-0.069-0.031-0.069-0.069v-0.326c0-0.038 0.031-0.069 0.069-0.069h2.819c0.038 0 0.069 0.031 0.069 0.069v0.326c0 0.038-0.031 0.069-0.069 0.069zM17.966 5.567h-0.519c-0.038 0-0.069-0.031-0.069-0.069s0.031-0.069 0.069-0.069h0.519c0.038 0 0.069 0.031 0.069 0.069s-0.031 0.069-0.069 0.069zM17.019 5.567h-0.911c-0.038 0-0.069-0.031-0.069-0.069v-0.32c0-0.038 0.031-0.069 0.069-0.069h0.911c0.038 0 0.069 0.031 0.069 0.069v0.32c0 0.038-0.031 0.069-0.069 0.069zM16.633 5.429h0.317v-0.182h-0.317v0.182zM16.177 5.429h0.317v-0.182h-0.317v0.182zM15.666 5.567h-0.519c-0.038 0-0.069-0.031-0.069-0.069s0.031-0.069 0.069-0.069h0.519c0.038 0 0.069 0.031 0.069 0.069s-0.031 0.069-0.069 0.069z"></path>
<path fill="#fff" style="fill: var(--color1, #fff)" d="M7.489 24.138c0.072 0.002 0.142-0.024 0.193-0.075s0.079-0.118 0.076-0.189c0-0.122-0.174-0.393-0.269-0.5-0.095 0.107-0.269 0.378-0.269 0.5-0.002 0.070 0.025 0.139 0.076 0.189s0.121 0.077 0.193 0.075z"></path>
<path fill="#fff" style="fill: var(--color1, #fff)" d="M5.848 13.306c0.445 0 0.806-0.36 0.806-0.805s-0.36-0.805-0.806-0.805-0.806 0.36-0.806 0.805c0 0.445 0.36 0.805 0.806 0.805z"></path>
<path fill="#fff" style="fill: var(--color1, #fff)" d="M16.558 32c0.445 0 0.806-0.36 0.806-0.805s-0.36-0.805-0.806-0.805-0.806 0.36-0.806 0.805c0 0.445 0.36 0.805 0.806 0.805z"></path>
<path fill="#fff" style="fill: var(--color1, #fff)" d="M26.791 13.485c0.445 0 0.806-0.36 0.806-0.805s-0.36-0.805-0.806-0.805-0.806 0.36-0.806 0.805c0 0.445 0.36 0.805 0.806 0.805z"></path>
<path fill="#fff" style="fill: var(--color1, #fff)" d="M27.448 12.472l-7.011 3.747 0.056 0.105 7.011-3.747-0.056-0.105z"></path>
</symbol>
</defs>
</svg>
