<svg aria-hidden="true" style="position: absolute; width: 0; height: 0; overflow: hidden;" version="1.1" xmlns="http://www.w3.org/2000/svg" xmlns:xlink="http://www.w3.org/1999/xlink">
<defs>
<symbol id="icon-Lamp" viewBox="0 0 26 32">
<path fill="#40bda6" style="fill: var(--color1, #40bda6)" d="M25.223 7.741c0 0.284-0.234 0.517-0.525 0.517h-1.576c0-1.139-0.942-2.064-2.102-2.064s-2.102 0.925-2.102 2.064h-2.102v-2.581h-1.051c-0.58 0-1.051-0.463-1.051-1.034s0.471-1.031 1.051-1.031h1.051v-2.064c0-0.284 0.234-0.517 0.525-0.517h7.357c0.288 0 0.525 0.233 0.525 0.517v6.193zM24.697 0h-7.357c-0.868 0-1.576 0.696-1.576 1.548v1.034c-1.16 0-2.102 0.925-2.102 2.064s0.942 2.064 2.102 2.064v2.581h4.204v-1.034c0-0.568 0.471-1.031 1.051-1.031s1.051 0.463 1.051 1.031v1.034h2.627c0.868 0 1.576-0.696 1.576-1.548v-6.196c0-0.855-0.708-1.548-1.576-1.548z"></path>
<path fill="#40bda6" style="fill: var(--color1, #40bda6)" d="M16.629 19.987l-2.442 1.962v1.793h-2.627v-5.163h-1.051c-0.58 0-1.051-0.463-1.051-1.031s0.471-1.034 1.051-1.034h1.051v-3.098h3.153v-1.031c0-0.568 0.471-1.034 1.051-1.034s1.051 0.463 1.051 1.034v1.031h3.146c-0.099 2.559-1.301 4.936-3.329 6.567zM14.716 25.804h-8.411c-0.288 0-0.525-0.233-0.525-0.517s0.234-0.517 0.525-0.517h8.408c0.292 0 0.525 0.233 0.525 0.517s-0.234 0.517-0.525 0.517zM13.662 27.868h-6.306c-0.288 0-0.525-0.233-0.525-0.517s0.234-0.517 0.525-0.517h6.306c0.292 0 0.525 0.233 0.525 0.517s-0.234 0.517-0.525 0.517zM10.509 30.966c-1.269 0-2.329-0.887-2.573-2.064h5.149c-0.243 1.177-1.307 2.064-2.573 2.064zM4.39 19.987c-2.028-1.63-3.23-4.008-3.329-6.567h4.197v-1.031c0-0.568 0.471-1.034 1.051-1.034s1.051 0.463 1.051 1.034v1.031h3.153v2.064c-1.16 0-2.102 0.925-2.102 2.064s0.942 2.064 2.102 2.064v4.129h-3.678v-1.793l-2.442-1.962h-0.003zM10.151 4.129h0.359v2.581c-1.16 0-2.102 0.925-2.102 2.064s0.942 2.064 2.102 2.064v1.548h-2.102c0-1.139-0.942-2.064-2.102-2.064s-2.102 0.925-2.102 2.064h-3.127c0.356-4.614 4.29-8.258 9.074-8.258zM15.764 10.322c-1.16 0-2.102 0.925-2.102 2.064h-2.102v-2.581h-1.051c-0.58 0-1.051-0.463-1.051-1.034s0.471-1.034 1.051-1.034h1.051v-4.639h-1.41c-5.598 0-10.151 4.473-10.151 9.971 0 3.003 1.359 5.817 3.723 7.718l2.057 1.653v1.401c-0.609 0.214-1.051 0.782-1.051 1.455 0 0.715 0.497 1.311 1.166 1.49-0.074 0.179-0.115 0.373-0.115 0.574 0 0.683 0.455 1.257 1.080 1.461 0.218 1.79 1.769 3.184 3.649 3.184s3.432-1.394 3.649-3.184c0.625-0.207 1.080-0.779 1.080-1.461 0-0.204-0.042-0.399-0.115-0.578 0.67-0.179 1.166-0.775 1.166-1.49 0-0.673-0.442-1.238-1.051-1.452v-1.401l2.057-1.653c2.365-1.902 3.723-4.713 3.723-7.718v-0.68h-3.153c0-1.139-0.942-2.064-2.102-2.064z"></path>
</symbol>
<symbol id="icon-Monitor" viewBox="0 0 32 32">
<path fill="#40bda6" style="fill: var(--color1, #40bda6)" d="M3.941 2.732h-1.312v1.325h1.312v-1.325z"></path>
<path fill="#40bda6" style="fill: var(--color1, #40bda6)" d="M6.566 2.732h-1.312v1.325h1.312v-1.325z"></path>
<path fill="#40bda6" style="fill: var(--color1, #40bda6)" d="M9.195 2.732h-1.312v1.325h1.312v-1.325z"></path>
<path fill="#40bda6" style="fill: var(--color1, #40bda6)" d="M31.526 16.662h-1.312v-9.948h-29.557c-0.365 0-0.656-0.296-0.656-0.664v-3.982c0-1.098 0.883-1.989 1.969-1.989h27.589c1.086 0 1.973 0.891 1.973 1.989v1.989h-1.312v-1.989c0-0.365-0.296-0.664-0.656-0.664h-27.593c-0.361 0-0.656 0.3-0.656 0.664v3.317h29.557c0.365 0 0.656 0.296 0.656 0.664v10.613z"></path>
<path fill="#40bda6" style="fill: var(--color1, #40bda6)" d="M19.706 29.268h-17.738c-1.086 0-1.969-0.891-1.969-1.989v-19.241h1.312v19.236c0 0.365 0.296 0.664 0.656 0.664h17.738v1.329z"></path>
<path fill="#40bda6" style="fill: var(--color1, #40bda6)" d="M22.331 29.268c-0.365 0-0.656-0.296-0.656-0.664v-1.717l-2.434-2.459c-0.737-0.745-0.851-1.863-0.851-2.459v-1.989c0-0.365 0.292-0.664 0.656-0.664s0.656 0.296 0.656 0.664v1.989c0 0.668 0.17 1.223 0.466 1.519l2.629 2.653c0.122 0.126 0.19 0.292 0.19 0.47v1.989c0 0.369-0.292 0.664-0.656 0.664z"></path>
<path fill="#40bda6" style="fill: var(--color1, #40bda6)" d="M30.214 29.268c-0.365 0-0.656-0.296-0.656-0.664v-1.989c0-0.101 0.024-0.207 0.069-0.296l0.587-1.187v-3.824c0-0.948-0.567-1.705-1.523-2.025-1.924-0.648-4.525-1.304-4.549-1.312-0.292-0.073-0.498-0.336-0.498-0.644v-4.642c0-0.365-0.296-0.664-0.656-0.664s-0.656 0.3-0.656 0.664v8.624c0 0.369-0.296 0.664-0.656 0.664s-0.656-0.296-0.656-0.664v-8.624c0-1.098 0.883-1.989 1.969-1.989s1.969 0.891 1.969 1.989v4.128c0.859 0.227 2.669 0.717 4.148 1.211 1.495 0.502 2.418 1.758 2.418 3.281v3.982c0 0.101-0.024 0.207-0.069 0.296l-0.587 1.187v1.835c0 0.369-0.292 0.664-0.656 0.664z"></path>
<path fill="#40bda6" style="fill: var(--color1, #40bda6)" d="M30.87 31.921c-0.365 0-0.656-0.296-0.656-0.664v-1.989h-7.883v1.989c0 0.369-0.292 0.664-0.656 0.664s-0.656-0.296-0.656-0.664v-2.653c0-0.369 0.296-0.664 0.656-0.664h9.195c0.365 0 0.656 0.296 0.656 0.664v2.653c0 0.369-0.292 0.664-0.656 0.664z"></path>
<path fill="#40bda6" style="fill: var(--color1, #40bda6)" d="M28.241 14.673h-1.312c-0.365 0-0.656-0.296-0.656-0.664s0.296-0.664 0.656-0.664h0.656v-3.982h-9.195v3.982h0.656c0.365 0 0.656 0.296 0.656 0.664s-0.296 0.664-0.656 0.664h-1.312c-0.365 0-0.656-0.296-0.656-0.664v-5.306c0-0.365 0.296-0.664 0.656-0.664h10.507c0.365 0 0.656 0.296 0.656 0.664v5.306c0 0.365-0.292 0.664-0.656 0.664z"></path>
<path fill="#40bda6" style="fill: var(--color1, #40bda6)" d="M9.199 8.038h-6.57v1.325h6.57v-1.325z"></path>
<path fill="#40bda6" style="fill: var(--color1, #40bda6)" d="M15.765 10.692h-13.136v1.325h13.136v-1.325z"></path>
<path fill="#40bda6" style="fill: var(--color1, #40bda6)" d="M15.765 13.345h-13.136v1.329h13.136v-1.329z"></path>
<path fill="#40bda6" style="fill: var(--color1, #40bda6)" d="M15.765 15.998h-13.136v1.325h13.136v-1.325z"></path>
<path fill="#40bda6" style="fill: var(--color1, #40bda6)" d="M15.765 18.655h-13.136v1.325h13.136v-1.325z"></path>
<path fill="#40bda6" style="fill: var(--color1, #40bda6)" d="M15.765 21.308h-13.136v1.325h13.136v-1.325z"></path>
<path fill="#40bda6" style="fill: var(--color1, #40bda6)" d="M9.199 23.962h-6.57v1.325h6.57v-1.325z"></path>
</symbol>
<symbol id="icon-HandTools" viewBox="0 0 28 32">
<path fill="#40bda6" style="fill: var(--color1, #40bda6)" d="M9.235 5.032c1.607 0 2.908 1.338 2.908 2.99s-1.301 2.99-2.908 2.99c-1.607 0-2.908-1.338-2.908-2.99s1.301-2.987 2.908-2.99zM9.235 12.007c2.14 0 3.874-1.786 3.874-3.985s-1.734-3.985-3.874-3.985c-2.14 0-3.874 1.786-3.874 3.985s1.734 3.985 3.874 3.985zM3.2 7.4h0.609c0.231 0 0.43-0.169 0.475-0.399 0.127-0.664 0.382-1.297 0.75-1.858 0.127-0.196 0.103-0.461-0.062-0.63l-0.43-0.444 0.853-0.877 0.43 0.444c0.162 0.169 0.42 0.193 0.612 0.062 0.547-0.375 1.16-0.637 1.806-0.771 0.227-0.045 0.389-0.251 0.389-0.489v-0.626h1.208v0.626c0 0.237 0.162 0.44 0.389 0.489 0.647 0.131 1.259 0.396 1.806 0.771 0.193 0.131 0.447 0.107 0.612-0.062l0.43-0.444 0.853 0.877-0.43 0.444c-0.165 0.169-0.189 0.43-0.062 0.63 0.365 0.564 0.619 1.194 0.75 1.858 0.045 0.234 0.244 0.399 0.475 0.399h0.609v1.242h-0.609c-0.231 0-0.43 0.169-0.475 0.403-0.127 0.664-0.382 1.297-0.75 1.858-0.127 0.196-0.103 0.461 0.062 0.63l0.43 0.444-0.853 0.877-0.43-0.444c-0.162-0.169-0.42-0.193-0.612-0.062-0.547 0.375-1.16 0.637-1.806 0.771-0.227 0.045-0.389 0.251-0.389 0.489v0.626h-1.208v-0.626c0-0.237-0.162-0.44-0.389-0.489-0.647-0.131-1.259-0.392-1.806-0.771-0.193-0.131-0.447-0.107-0.612 0.062l-0.43 0.444-0.853-0.877 0.43-0.444c0.162-0.169 0.189-0.43 0.062-0.63-0.365-0.564-0.619-1.194-0.75-1.858-0.045-0.234-0.244-0.399-0.475-0.399h-0.609v-1.246zM16.557 10.775v6.675h-1.875v-4.848l0.272-0.282c0.189-0.196 0.189-0.509 0-0.705l-0.502-0.516c0.062-0.107 0.117-0.217 0.172-0.33h1.93l0.003 0.007zM9.717 17.45v-2.226h0.606c0.268 0 0.485-0.224 0.485-0.499v-0.729c0.268-0.076 0.53-0.169 0.788-0.282v3.733h-1.875l-0.003 0.003zM2.715 9.64h0.709c0.134 0.513 0.334 1.005 0.592 1.466l-0.502 0.516c-0.189 0.196-0.189 0.509 0 0.705l1.538 1.583c0.189 0.193 0.495 0.193 0.685 0l0.502-0.516c0.447 0.265 0.926 0.468 1.425 0.609v0.729c0 0.275 0.217 0.499 0.485 0.499h0.606v2.725c0 0.275 0.217 0.499 0.485 0.499h2.842c0.268 0 0.485-0.224 0.485-0.499v-4.218l0.172 0.175c0.189 0.193 0.495 0.193 0.685 0l0.296-0.306v4.349c0 0.275 0.217 0.499 0.485 0.499h2.842c0.268 0 0.485-0.224 0.485-0.499v-7.677c0-0.275-0.217-0.499-0.485-0.499h-2.037c0.014-0.048 0.028-0.093 0.038-0.141h0.709c0.268 0 0.485-0.224 0.485-0.499v-2.24c0-0.158-0.072-0.306-0.196-0.399l7.26-4.311-0.399 1.204c-0.086 0.262 0.048 0.544 0.299 0.633s0.53-0.048 0.616-0.31c0 0 0 0 0-0.003l0.812-2.46c0.086-0.262-0.048-0.544-0.303-0.633-0.021-0.007-0.041-0.014-0.062-0.017l-2.477-0.499c-0.262-0.052-0.516 0.12-0.568 0.392-0.052 0.268 0.12 0.533 0.382 0.585l1.215 0.248-7.886 4.683c-0.124-0.372-0.282-0.733-0.475-1.074l0.502-0.516c0.189-0.196 0.189-0.509 0-0.705l-1.538-1.583c-0.189-0.196-0.495-0.196-0.685 0l-0.502 0.516c-0.447-0.265-0.926-0.468-1.425-0.609v-0.726c0-0.275-0.217-0.499-0.485-0.499h-2.175c-0.268 0-0.485 0.224-0.485 0.499v0.729c-0.499 0.138-0.977 0.341-1.425 0.609l-0.502-0.516c-0.189-0.196-0.495-0.196-0.685 0l-1.538 1.583c-0.189 0.193-0.189 0.509 0 0.705l0.502 0.516c-0.258 0.461-0.458 0.953-0.592 1.466h-0.709c-0.268 0-0.485 0.224-0.485 0.499v2.24c0 0.275 0.217 0.499 0.485 0.499zM24.616 5.431h1.875v12.022h-1.875v-12.022zM23.649 4.932v13.017c0 0.275 0.217 0.499 0.485 0.499h2.842c0.268 0 0.485-0.224 0.485-0.499v-13.027c0-0.275-0.217-0.499-0.485-0.499h-2.842c-0.268 0-0.485 0.224-0.485 0.499v0.010zM21.526 17.461h-1.875v-9.363h1.875v9.363zM19.166 7.111c-0.268 0-0.485 0.224-0.485 0.499v10.35c0 0.275 0.217 0.499 0.485 0.499h2.842c0.268 0 0.485-0.224 0.485-0.499v-10.36c0-0.275-0.217-0.499-0.485-0.499h-2.842v0.010zM25.896 22.832l-10.175 6.042c-0.678 0.403-1.421 0.502-2.271 0.299l-4.067-0.96c-1.29-0.303-2.405-0.096-3.534 0.674l-1.741-6.686 2.212-1.741c0.609-0.499 1.394-0.719 2.164-0.606l7.071 1.979c0.867 0.241 1.376 1.16 1.142 2.051-0.237 0.891-1.129 1.418-1.996 1.173l-3.795-1.063c-0.258-0.069-0.523 0.089-0.592 0.358-0.065 0.262 0.083 0.53 0.337 0.606l3.795 1.063c1.28 0.358 2.619-0.337 3.097-1.61l6.93-4.115c0.681-0.403 1.552-0.165 1.944 0.537 0.392 0.698 0.158 1.593-0.52 1.999h-0.003zM3.685 30.894l-2.416-9.28 1.566-0.434 2.419 9.28-1.566 0.43-0.003 0.003zM27.252 20.33c-0.661-1.173-2.123-1.576-3.265-0.901l-6.286 3.733c-0.114-1.091-0.867-2.003-1.896-2.292l-7.105-1.989c-0.021-0.007-0.041-0.010-0.062-0.014-1.036-0.155-2.089 0.134-2.911 0.798l-1.892 1.493-0.079-0.299c-0.131-0.495-0.626-0.791-1.108-0.657l-1.689 0.465c-0.482 0.134-0.767 0.643-0.64 1.139l2.45 9.407c0.127 0.495 0.623 0.791 1.105 0.657l1.689-0.465c0.482-0.134 0.767-0.643 0.64-1.139l-0.093-0.358c1.005-0.774 1.93-0.994 3.052-0.729l4.071 0.96c0.337 0.083 0.685 0.124 1.032 0.124 0.681 0 1.352-0.182 1.941-0.533l10.175-6.042c1.142-0.681 1.535-2.181 0.874-3.358z"></path>
</symbol>
<symbol id="icon-Globe" viewBox="0 0 31 32">
<path fill="#40bda6" style="fill: var(--color1, #40bda6)" d="M24.671 27.296c-0.112 0.089-0.177 0.224-0.185 0.366s0.046 0.281 0.146 0.386l0.532 0.536-3.088 0.37 0.366-3.123 0.32 0.324c0.177 0.181 0.463 0.197 0.663 0.042 3.158-2.483 4.97-6.227 4.97-10.263 0-7.167-5.768-13.001-12.858-13.001-1.982 0-3.933 0.463-5.694 1.342l0.177-1.5c0.015-0.127 0-0.251-0.042-0.366 1.758-0.74 3.62-1.118 5.56-1.118 7.985 0 14.481 6.57 14.481 14.643 0 4.422-1.947 8.567-5.344 11.362zM7.248 22.269c0.802 1.126 1.631 2.29 2.818 3.065 0.883 0.574 1.862 0.856 2.969 0.856 0.046 0 0.093 0 0.135 0 0.567 0.131 1.141 0.216 1.723 0.254 0.278 0.466 0.505 0.956 0.694 1.48-0.019 0-0.035 0-0.054 0-5.44 0-10.036-3.724-11.424-8.783 0.066 0.146 0.185 0.27 0.343 0.335 1.13 0.459 1.939 1.592 2.791 2.795zM6.142 16.447h3.1c0.019 0.474 0.066 0.941 0.139 1.403-1.049-0.112-2.105-0.054-3.042 0.077-0.104-0.486-0.166-0.983-0.193-1.48zM8.497 9.639c0.605 0.351 1.272 0.644 1.982 0.887-0.744 1.527-1.168 3.2-1.234 4.908h-3.107c0.116-2.217 0.983-4.233 2.352-5.795zM10.957 9.631c-0.617-0.2-1.199-0.447-1.739-0.74 1.176-1.076 2.618-1.858 4.218-2.228-0.975 0.848-1.816 1.851-2.479 2.965zM20.106 9.627c-0.667-1.114-1.507-2.117-2.479-2.965 1.6 0.37 3.042 1.149 4.218 2.228-0.536 0.289-1.122 0.536-1.739 0.74zM21.829 15.433c-0.066-1.704-0.49-3.381-1.238-4.908 0.709-0.239 1.376-0.536 1.982-0.887 1.365 1.561 2.236 3.578 2.352 5.791h-3.096v0.004zM24.679 18.167c-0.089-0.258-0.328-0.432-0.605-0.428-0.663 0.015-1.504 0.069-2.398 0.22 0.081-0.497 0.135-1.006 0.154-1.515h3.096c-0.031 0.586-0.116 1.16-0.247 1.723zM22.581 22.238c-0.019-0.012-0.042-0.023-0.062-0.035 0.505-1.346 0.991-2.606 1.939-3.323 0.008-0.008 0.015-0.012 0.023-0.019-0.397 1.245-1.045 2.394-1.905 3.377zM19.651 22.257c-0.197-0.197-0.513-0.197-0.709 0-1.095 1.11-1.935 2.14-2.56 3.154-0.112 0.012-0.224 0.019-0.335 0.023-0.008-0.062-0.012-0.127-0.015-0.189v-1.164c0.089-1.068 0.424-1.982 1.010-2.73 1.442-1.835 4.121-2.398 6.061-2.552-0.721 0.887-1.149 2.032-1.565 3.15-0.856 2.294-1.673 4.468-4.781 4.85 0.605-1.222 1.534-2.452 2.892-3.825 0.197-0.197 0.197-0.52 0-0.717zM15.025 16.443v4.114c-0.27 0.008-0.544 0.023-0.813 0.042-0.343-0.54-0.76-1.006-1.253-1.396-0.756-0.601-1.631-0.972-2.541-1.18-0.096-0.517-0.158-1.045-0.181-1.577l4.788-0.004zM15.025 11.308v4.121h-4.792c0.069-1.639 0.486-3.208 1.199-4.619 1.141 0.297 2.363 0.463 3.593 0.497zM15.025 6.697v3.62c-1.053-0.031-2.094-0.17-3.080-0.405 0.787-1.249 1.827-2.344 3.080-3.212zM16.027 10.321v-3.62c1.253 0.871 2.294 1.966 3.080 3.212-0.987 0.239-2.028 0.374-3.080 0.405zM16.027 15.433v-4.121c1.23-0.035 2.452-0.2 3.593-0.497 0.717 1.411 1.134 2.98 1.199 4.619h-4.792zM15.025 22.481c-0.085-0.312-0.189-0.609-0.305-0.891 0.1-0.004 0.204-0.008 0.305-0.012v0.902zM16.378 20.576c-0.116-0.008-0.235-0.012-0.351-0.015v-4.114h4.792c-0.027 0.586-0.096 1.164-0.212 1.735-1.55 0.389-3.138 1.103-4.229 2.394zM12.337 20.006c1.099 0.871 1.758 2.232 1.97 4.056-0.921-0.96-2.105-1.843-3.67-2.757-0.239-0.139-0.547-0.058-0.686 0.185s-0.058 0.551 0.185 0.694c1.623 0.948 2.857 1.889 3.778 2.934-3.107 0.451-4.449-1.438-5.868-3.431-0.69-0.972-1.4-1.966-2.321-2.633 1.959-0.366 4.75-0.52 6.608 0.956zM22.018 24.64c-0.293 0.104-0.501 0.359-0.536 0.675l-0.123 1.064c-1.457 0.837-3.077 1.346-4.75 1.5-0.004-0.012-0.008-0.027-0.012-0.039 1.669-0.15 2.961-0.752 3.933-1.827 0.405-0.447 0.725-0.948 0.999-1.473 2.76-1.974 4.403-5.178 4.403-8.598 0-5.806-4.669-10.525-10.41-10.525s-10.398 4.715-10.398 10.518c0 0.725 0.073 1.446 0.22 2.155-0.293 0.058-0.567 0.12-0.817 0.181-0.262 0.069-0.451 0.297-0.47 0.571 0 0.042 0 0.081 0 0.12-0.251-0.968-0.382-1.982-0.382-3.027 0-3.574 1.538-6.897 4.237-9.184l0.293 0.293c0.22 0.224 0.54 0.297 0.833 0.193s0.497-0.359 0.532-0.671l0.123-1.068c1.774-1.014 3.786-1.554 5.837-1.554 6.535 0 11.855 5.378 11.855 11.986 0 3.574-1.538 6.897-4.237 9.184l-0.293-0.293c-0.22-0.224-0.536-0.297-0.829-0.193zM21.085 29.455c-1.253 0.528-2.556 0.871-3.906 1.026-0.069-0.571-0.162-1.11-0.285-1.623 1.507-0.162 2.973-0.59 4.326-1.268l-0.174 1.496c-0.015 0.127 0 0.254 0.039 0.37zM1.053 15.934c0-4.422 1.947-8.563 5.344-11.362 0.112-0.093 0.177-0.224 0.185-0.366s-0.046-0.281-0.146-0.386l-0.532-0.536 3.088-0.37-0.366 3.123-0.32-0.324c-0.177-0.181-0.463-0.2-0.663-0.042-3.158 2.483-4.966 6.223-4.966 10.263 0 7.171 5.768 13 12.858 13 0.12 0 0.239 0 0.359-0.004 0.127 0.513 0.224 1.053 0.293 1.631-0.216 0.008-0.436 0.015-0.652 0.015-7.985 0-14.481-6.57-14.481-14.643zM31.017 15.934c0-4.183-1.612-8.116-4.534-11.073-2.922-2.953-6.813-4.584-10.946-4.584-2.444 0-4.781 0.559-6.947 1.662l-3.208 0.386c-0.308 0.039-0.563 0.243-0.663 0.54-0.104 0.297-0.031 0.621 0.189 0.84l0.436 0.44c-3.373 2.984-5.293 7.248-5.293 11.79 0 4.183 1.612 8.116 4.534 11.073s6.813 4.588 10.949 4.588c0.289 0 0.574-0.008 0.864-0.023 0.093 0.096 0.22 0.154 0.359 0.154 0.015 0 0.027 0 0.042 0 0.154-0.012 0.289-0.096 0.37-0.216 1.851-0.193 3.632-0.721 5.309-1.577l3.212-0.386c0.305-0.039 0.559-0.243 0.663-0.54s0.031-0.621-0.189-0.84l-0.436-0.44c3.37-2.98 5.29-7.244 5.29-11.786v-0.008z"></path>
</symbol>
</defs>
</svg>
