<svg width="623" height="602" viewBox="0 0 623 602" fill="none" xmlns="http://www.w3.org/2000/svg">
<g clip-path="url(#clip0_21_1582)">
<path d="M312.061 428.686H309.816V582.369H312.061V428.686Z" fill="white"/>
<path d="M116.713 237.561L115.654 239.54L247.563 310.014L248.621 308.035L116.713 237.561Z" fill="white"/>
<mask id="mask0_21_1582" style="mask-type:luminance" maskUnits="userSpaceOnUse" x="0" y="0" width="623" height="602">
<path d="M623 0H0V602H623V0Z" fill="white"/>
</mask>
<g mask="url(#mask0_21_1582)">
<path d="M307.841 586.856C179.716 586.856 75.4785 482.688 75.4785 354.649C75.4785 226.609 179.716 122.441 307.841 122.441C435.965 122.441 540.203 226.609 540.203 354.649C540.203 482.688 435.965 586.856 307.841 586.856ZM307.841 124.685C180.951 124.685 77.7236 227.843 77.7236 354.649C77.7236 481.454 180.951 584.612 307.841 584.612C434.731 584.612 537.958 481.454 537.958 354.649C537.958 227.843 434.731 124.685 307.841 124.685Z" fill="white"/>
<path d="M297.727 469.855V548.716H21.1484C4.8943 548.716 -5.26453 531.126 2.86254 517.071L144.446 272.019L196.902 301.656C191.233 315.802 188.124 331.226 188.124 347.38C188.124 410.816 236.078 463.046 297.738 469.855" fill="#464647"/>
<path d="M602.155 548.716H324.252V469.945C386.327 463.54 434.742 411.108 434.742 347.369C434.742 331.058 431.565 315.477 425.807 301.23L478.15 271.649L620.183 517.497C628.197 531.362 618.184 548.705 602.155 548.705" fill="white"/>
<path d="M464.881 245.164L411.483 275.339C389.089 244.334 352.618 224.142 311.433 224.142C270.247 224.142 233.485 244.479 211.113 275.698L157.692 245.511L293.607 10.2642C301.509 -3.42141 321.266 -3.42141 329.168 10.2642L464.881 245.164Z" fill="#40BDA6"/>
<path d="M257.731 389.704C249.626 378.666 244.833 365.037 244.833 350.296C244.833 332.752 251.625 316.778 262.715 304.876C263.804 303.709 264.938 302.576 266.105 301.488C277.083 291.269 291.508 284.718 307.448 283.742C308.413 283.686 309.165 282.889 309.165 281.936V271.043C309.165 270.011 308.301 269.181 307.268 269.226C287.399 270.258 269.417 278.436 255.845 291.224C254.678 292.323 253.555 293.445 252.455 294.612C238.738 309.15 230.33 328.736 230.33 350.296C230.33 370.589 237.784 389.155 250.109 403.39C252.691 406.374 255.486 409.156 258.461 411.736C272.706 424.042 291.261 431.479 311.556 431.479C329.269 431.479 345.658 425.803 359.016 416.189C354.481 413.565 350.99 409.795 349.104 405.387C338.407 412.678 325.487 416.975 311.567 416.975C295.998 416.975 281.675 411.646 270.326 402.706C265.566 398.959 261.334 394.584 257.754 389.704M387.697 378.666C390.514 371.105 392.254 363.029 392.703 354.593C392.759 353.561 391.929 352.697 390.885 352.697H379.985C379.02 352.697 378.234 353.449 378.178 354.413C377.718 361.907 375.989 369.053 373.25 375.682C373.598 375.682 373.935 375.637 374.283 375.637C379.188 375.637 383.757 376.748 387.708 378.666" fill="#40BDA6"/>
<path d="M390.863 347.907H379.963C378.997 347.907 378.212 347.155 378.156 346.191C377.617 337.317 375.338 328.915 371.667 321.321C371.297 320.547 371.51 319.616 372.195 319.089L380.973 312.324C381.871 311.629 383.173 311.932 383.701 312.93C388.898 322.914 392.075 334.12 392.692 345.989C392.748 347.021 391.918 347.885 390.874 347.885M315.676 283.73C335.87 284.964 353.651 295.172 365.056 310.429C365.606 311.158 366.605 311.382 367.413 310.922L376.943 305.526C377.875 304.999 378.156 303.765 377.527 302.89C363.563 283.517 341.258 270.538 315.867 269.203C314.834 269.147 313.958 269.977 313.958 271.021V281.913C313.958 282.878 314.711 283.663 315.676 283.719" fill="white"/>
<path d="M299.186 374.886L304.406 370.903L337.161 345.989C337.778 345.518 338.676 345.708 339.047 346.393L356.468 378.554C357.119 379.765 356.244 381.235 354.874 381.235H338.777C337.857 381.235 337.015 380.73 336.577 379.922L330.437 368.559C327.99 364.027 322.265 362.445 317.831 365.059L299.186 374.874V374.886ZM285.918 380.708L380.737 307.725L300.095 353.37C302.408 349.006 321.659 315.981 321.659 315.981L313.128 298.538C312.443 297.281 310.647 297.27 309.94 298.515L265.319 378.52C264.646 379.732 265.521 381.212 266.902 381.212H284.391C284.941 381.212 285.48 381.033 285.918 380.696" fill="white"/>
<path d="M391.457 398.331C391.457 395.571 391.008 393.047 390.122 390.748C389.224 388.448 387.955 386.474 386.294 384.813C384.632 383.153 382.623 381.863 380.266 380.932C377.909 380.001 375.271 379.53 372.341 379.53C369.411 379.53 366.897 379.945 364.539 380.764C362.182 381.583 360.15 382.738 358.433 384.208C356.715 385.688 355.391 387.472 354.437 389.581C353.494 391.69 353.011 394.001 353.011 396.547C353.011 399.094 353.483 401.517 354.414 403.502C355.346 405.499 356.603 407.249 358.175 408.774C359.746 410.289 361.576 411.613 363.653 412.723C365.729 413.834 367.918 414.832 370.197 415.696C372.116 416.47 373.665 417.21 374.822 417.906C375.978 418.601 376.876 419.319 377.493 420.059C378.122 420.8 378.537 421.585 378.728 422.415C378.919 423.245 379.02 424.199 379.02 425.253C379.02 426.229 378.908 427.138 378.683 427.968C378.459 428.798 378.088 429.516 377.572 430.122C377.055 430.728 376.382 431.199 375.563 431.546C374.743 431.894 373.744 432.074 372.577 432.074C371.129 432.074 369.86 431.905 368.771 431.546C367.682 431.199 366.773 430.627 366.032 429.83C365.291 429.034 364.741 428.002 364.382 426.712C364.135 425.837 363.978 424.816 363.899 423.672H351.574C351.743 426.431 352.304 428.877 353.314 430.974C354.526 433.487 356.12 435.562 358.107 437.2C360.083 438.849 362.339 440.061 364.865 440.857C367.391 441.654 369.961 442.046 372.588 442.046C375.484 442.046 378.099 441.665 380.412 440.891C382.724 440.117 384.7 439.029 386.328 437.593C387.955 436.157 389.212 434.396 390.088 432.309C390.964 430.223 391.401 427.833 391.401 425.164C391.401 422.651 391.053 420.407 390.357 418.41C389.661 416.414 388.595 414.63 387.181 413.037C385.766 411.444 383.981 410.031 381.871 408.774C379.75 407.518 377.269 406.374 374.429 405.342C373.059 404.758 371.813 404.153 370.691 403.547C369.557 402.93 368.603 402.279 367.806 401.584C367.009 400.888 366.403 400.137 365.965 399.329C365.527 398.521 365.314 397.613 365.314 396.614C365.314 395.616 365.449 394.719 365.729 393.855C366.01 392.991 366.425 392.251 366.986 391.623C367.548 390.994 368.244 390.501 369.097 390.142C369.95 389.783 370.96 389.603 372.128 389.603C373.385 389.603 374.451 389.816 375.349 390.254C376.247 390.691 376.977 391.286 377.549 392.049C378.122 392.812 378.537 393.731 378.807 394.808C379.076 395.885 379.199 397.063 379.199 398.342H391.457V398.331Z" fill="#40BDA6"/>
<path d="M504.203 513.357C504.203 514.289 504.282 515.119 504.45 515.848C504.608 516.577 504.888 517.194 505.281 517.71C505.674 518.226 506.213 518.607 506.886 518.877C507.56 519.146 508.402 519.28 509.401 519.28C510.231 519.28 510.95 519.191 511.556 519.022C512.162 518.854 512.656 518.686 513.038 518.529L512.499 515.949C512.229 516.061 511.87 516.173 511.41 516.297C510.95 516.42 510.422 516.487 509.838 516.487C508.974 516.487 508.368 516.24 508.009 515.758C507.65 515.276 507.47 514.468 507.47 513.335V507.603H512.476V504.888H507.47V500.637L504.215 501.175V513.369L504.203 513.357ZM502.104 505.068C501.947 505.011 501.723 504.955 501.453 504.888C501.184 504.821 500.903 504.776 500.623 504.731C500.331 504.686 500.05 504.652 499.758 504.619C499.466 504.596 499.219 504.574 499.006 504.574C497.861 504.574 496.806 504.675 495.863 504.888C494.92 505.09 494.134 505.314 493.506 505.55V518.955H496.761V507.67C496.918 507.614 497.21 507.558 497.614 507.479C498.018 507.412 498.4 507.367 498.759 507.367C499.388 507.367 499.938 507.412 500.42 507.513C500.903 507.614 501.274 507.704 501.543 507.793L502.104 505.045V505.068ZM485.906 515.276C485.3 516.106 484.469 516.51 483.392 516.51C482.314 516.51 481.472 516.095 480.877 515.276C480.271 514.446 479.979 513.324 479.979 511.91C479.979 510.497 480.282 509.398 480.877 508.59C481.484 507.771 482.314 507.367 483.392 507.367C484.469 507.367 485.311 507.771 485.906 508.59C486.512 509.409 486.804 510.519 486.804 511.91C486.804 513.301 486.501 514.446 485.906 515.276ZM489.656 508.882C489.319 507.973 488.859 507.199 488.264 506.548C487.669 505.898 486.961 505.404 486.12 505.056C485.289 504.709 484.368 504.529 483.381 504.529C482.393 504.529 481.484 504.709 480.664 505.056C479.833 505.404 479.126 505.909 478.52 506.548C477.914 507.199 477.454 507.973 477.117 508.882C476.78 509.79 476.623 510.8 476.623 511.91C476.623 513.021 476.791 514.042 477.117 514.95C477.454 515.87 477.914 516.644 478.509 517.295C479.104 517.946 479.811 518.439 480.642 518.798C481.472 519.157 482.382 519.337 483.392 519.337C484.402 519.337 485.323 519.157 486.153 518.798C486.984 518.439 487.702 517.934 488.297 517.295C488.892 516.644 489.352 515.87 489.667 514.95C489.981 514.031 490.149 513.021 490.149 511.91C490.149 510.8 489.981 509.79 489.656 508.882ZM473.547 508.882C473.211 507.973 472.739 507.199 472.122 506.571C471.504 505.943 470.752 505.449 469.877 505.101C469.001 504.765 468.002 504.585 466.891 504.585C465.779 504.585 464.792 504.664 463.815 504.832C462.85 504.989 462.03 505.169 461.368 505.348V523.947H464.623V518.484C464.982 518.686 465.443 518.865 465.993 519.022C466.554 519.179 467.16 519.269 467.822 519.269C468.81 519.269 469.697 519.09 470.472 518.731C471.257 518.372 471.908 517.867 472.425 517.228C472.941 516.577 473.345 515.814 473.626 514.917C473.907 514.019 474.041 513.032 474.041 511.955C474.041 510.822 473.873 509.801 473.547 508.904M469.888 515.276C469.338 516.083 468.474 516.487 467.284 516.487C466.745 516.487 466.24 516.397 465.757 516.229C465.286 516.061 464.893 515.87 464.612 515.68V507.625C464.938 507.535 465.263 507.479 465.6 507.446C465.937 507.423 466.251 507.401 466.554 507.401C468.013 507.401 469.068 507.805 469.72 508.612C470.371 509.42 470.707 510.553 470.707 512C470.707 513.369 470.438 514.446 469.888 515.253M459.1 505.079C458.943 505.023 458.719 504.967 458.449 504.899C458.18 504.832 457.899 504.787 457.619 504.742C457.327 504.697 457.046 504.664 456.754 504.63C456.463 504.608 456.216 504.585 456.002 504.585C454.857 504.585 453.802 504.686 452.859 504.899C451.916 505.101 451.131 505.326 450.502 505.561V518.966H453.757V507.681C453.914 507.625 454.206 507.569 454.61 507.491C455.014 507.423 455.396 507.378 455.755 507.378C456.384 507.378 456.934 507.423 457.417 507.524C457.888 507.625 458.27 507.715 458.539 507.805L459.1 505.056V505.079ZM446.113 499.29C445.72 498.931 445.249 498.752 444.71 498.752C444.171 498.752 443.677 498.931 443.284 499.29C442.891 499.649 442.689 500.143 442.689 500.771C442.689 501.399 442.891 501.87 443.284 502.229C443.677 502.588 444.16 502.768 444.71 502.768C445.26 502.768 445.72 502.588 446.113 502.229C446.506 501.87 446.708 501.388 446.708 500.771C446.708 500.154 446.506 499.649 446.113 499.29ZM446.36 504.888H443.104V518.966H446.36V504.888ZM433.114 507.367C433.653 508.747 434.214 510.239 434.787 511.832H428.646C429.219 510.239 429.769 508.758 430.308 507.39C430.835 506.021 431.307 504.866 431.722 503.912C432.115 504.832 432.586 505.976 433.125 507.356M440.904 518.955C440.208 516.958 439.535 515.119 438.895 513.436C438.255 511.753 437.638 510.149 437.032 508.646C436.425 507.143 435.831 505.707 435.236 504.338C434.641 502.97 434.035 501.624 433.406 500.3H430.162C429.533 501.624 428.927 502.97 428.332 504.338C427.737 505.707 427.142 507.143 426.547 508.646C425.941 510.149 425.335 511.753 424.706 513.436C424.078 515.119 423.415 516.958 422.719 518.955H426.244C426.502 518.237 426.749 517.519 427.019 516.79C427.277 516.061 427.535 515.321 427.793 514.569H435.685C435.932 515.321 436.201 516.061 436.47 516.779C436.74 517.497 436.998 518.226 437.256 518.955H440.927H440.904Z" fill="#0A2E45"/>
<path d="M415.289 183.388C414.626 183.208 413.818 183.04 412.864 182.872C411.91 182.715 410.911 182.625 409.844 182.625C408.778 182.625 407.768 182.793 406.903 183.141C406.039 183.477 405.309 183.96 404.703 184.566C404.097 185.171 403.648 185.912 403.334 186.775C403.019 187.639 402.862 188.582 402.862 189.602C402.862 190.702 403.008 191.666 403.311 192.497C403.614 193.327 404.018 194.022 404.546 194.583C405.074 195.144 405.713 195.559 406.454 195.851C407.195 196.142 408.026 196.277 408.924 196.277C409.609 196.277 410.215 196.198 410.742 196.03C411.27 195.873 411.696 195.705 412.022 195.548V196.086C412.022 197.141 411.741 197.948 411.191 198.487C410.63 199.025 409.698 199.294 408.385 199.294C407.554 199.294 406.791 199.227 406.084 199.081C405.377 198.936 404.737 198.745 404.187 198.52L403.592 201.291C404.254 201.527 404.995 201.718 405.814 201.852C406.634 201.998 407.476 202.065 408.329 202.065C410.686 202.065 412.426 201.549 413.571 200.506C414.716 199.463 415.277 197.825 415.277 195.581V183.388H415.289ZM407.15 186.529C407.779 185.743 408.688 185.362 409.867 185.362C410.383 185.362 410.821 185.384 411.158 185.429C411.494 185.474 411.786 185.519 412.022 185.575V192.867C411.73 193.069 411.36 193.237 410.899 193.383C410.439 193.529 409.957 193.596 409.429 193.596C408.475 193.596 407.7 193.282 407.094 192.642C406.488 192.003 406.196 190.993 406.196 189.614C406.196 188.335 406.51 187.314 407.139 186.529M387.877 197.017H391.132V185.654C391.345 185.62 391.682 185.575 392.131 185.519C392.58 185.463 393.006 185.441 393.422 185.441C393.983 185.441 394.454 185.519 394.836 185.665C395.218 185.822 395.532 186.058 395.757 186.394C395.981 186.731 396.138 187.157 396.239 187.684C396.34 188.211 396.385 188.851 396.385 189.614V197.017H399.641V189.098C399.641 188.144 399.551 187.269 399.36 186.473C399.169 185.676 398.844 184.992 398.395 184.431C397.934 183.87 397.317 183.421 396.554 183.107C395.779 182.793 394.825 182.636 393.669 182.636C392.445 182.636 391.334 182.715 390.324 182.883C389.313 183.04 388.505 183.219 387.877 183.399V197.017ZM383.487 177.341C383.095 176.982 382.623 176.803 382.084 176.803C381.545 176.803 381.052 176.982 380.659 177.341C380.266 177.7 380.064 178.194 380.064 178.822C380.064 179.45 380.266 179.921 380.659 180.28C381.052 180.639 381.534 180.819 382.084 180.819C382.634 180.819 383.095 180.639 383.487 180.28C383.88 179.921 384.082 179.439 384.082 178.822C384.082 178.205 383.88 177.7 383.487 177.341ZM383.734 182.939H380.479V197.017H383.734V182.939ZM377.807 194.594C377.381 194.538 377.022 194.46 376.741 194.37C376.46 194.269 376.247 194.123 376.079 193.944C375.922 193.753 375.809 193.529 375.742 193.259C375.675 192.99 375.652 192.654 375.652 192.261V176.13L372.397 176.668V192.878C372.397 193.573 372.476 194.202 372.621 194.751C372.779 195.301 373.037 195.761 373.418 196.12C373.8 196.49 374.305 196.77 374.945 196.972C375.585 197.174 376.382 197.275 377.358 197.298L377.819 194.605L377.807 194.594ZM368.3 176.13L365.044 176.668V183.421C364.663 183.219 364.214 183.04 363.697 182.883C363.181 182.726 362.575 182.636 361.89 182.636C360.88 182.636 359.993 182.816 359.219 183.163C358.444 183.511 357.793 184.016 357.254 184.655C356.715 185.306 356.311 186.08 356.031 186.989C355.75 187.897 355.615 188.907 355.615 190.017C355.615 191.128 355.784 192.171 356.109 193.069C356.446 193.977 356.917 194.751 357.535 195.379C358.152 196.019 358.904 196.501 359.78 196.849C360.655 197.186 361.654 197.365 362.766 197.365C363.877 197.365 364.876 197.287 365.853 197.118C366.829 196.961 367.649 196.782 368.288 196.58V176.119L368.3 176.13ZM359.769 186.652C360.319 185.844 361.183 185.441 362.373 185.441C362.912 185.441 363.417 185.53 363.899 185.699C364.371 185.867 364.753 186.058 365.044 186.248V194.325C364.809 194.381 364.506 194.426 364.146 194.471C363.776 194.516 363.338 194.538 362.811 194.538C361.609 194.538 360.667 194.134 359.982 193.315C359.297 192.497 358.96 191.375 358.96 189.939C358.96 188.503 359.23 187.46 359.78 186.652M340.641 197.017H343.896V185.654C344.109 185.62 344.446 185.575 344.895 185.519C345.344 185.463 345.771 185.441 346.186 185.441C346.747 185.441 347.219 185.519 347.6 185.665C347.982 185.822 348.285 186.058 348.521 186.394C348.745 186.731 348.903 187.157 349.004 187.684C349.105 188.211 349.149 188.851 349.149 189.614V197.017H352.405V189.098C352.405 188.144 352.315 187.269 352.124 186.473C351.933 185.676 351.608 184.992 351.159 184.431C350.699 183.87 350.081 183.421 349.318 183.107C348.543 182.793 347.589 182.636 346.433 182.636C345.209 182.636 344.098 182.715 343.088 182.883C342.078 183.04 341.269 183.219 340.641 183.399V197.017ZM328.405 182.804C327.619 182.95 327.013 183.096 326.598 183.231L327.002 185.867C327.395 185.721 327.911 185.598 328.54 185.485C329.169 185.373 329.865 185.328 330.617 185.328C331.178 185.328 331.638 185.396 332.009 185.542C332.379 185.687 332.671 185.889 332.895 186.147C333.12 186.405 333.277 186.708 333.367 187.045C333.457 187.381 333.502 187.74 333.502 188.122V188.66C333.053 188.548 332.626 188.481 332.233 188.436C331.84 188.391 331.459 188.368 331.099 188.368C330.325 188.368 329.584 188.447 328.877 188.593C328.17 188.75 327.541 188.997 327.002 189.344C326.463 189.692 326.037 190.152 325.722 190.702C325.408 191.251 325.251 191.936 325.251 192.743C325.251 193.551 325.386 194.291 325.666 194.875C325.947 195.447 326.329 195.918 326.823 196.277C327.316 196.636 327.911 196.894 328.619 197.062C329.315 197.219 330.089 197.309 330.931 197.309C332.211 197.309 333.356 197.23 334.366 197.085C335.376 196.928 336.139 196.804 336.645 196.692V188.155C336.645 187.325 336.555 186.574 336.364 185.878C336.173 185.183 335.859 184.599 335.421 184.117C334.983 183.635 334.388 183.253 333.659 182.984C332.918 182.715 332.02 182.58 330.942 182.58C330.044 182.58 329.202 182.647 328.405 182.793M329.236 194.28C328.753 193.988 328.506 193.45 328.506 192.676C328.506 192.283 328.596 191.958 328.776 191.689C328.955 191.431 329.191 191.229 329.494 191.083C329.786 190.937 330.123 190.836 330.493 190.791C330.864 190.735 331.223 190.713 331.582 190.713C331.997 190.713 332.368 190.735 332.716 190.791C333.053 190.848 333.322 190.904 333.502 190.948V194.561C332.985 194.673 332.222 194.718 331.212 194.718C330.381 194.718 329.73 194.572 329.247 194.269M318.55 185.8H310.445V178.34H307.055V196.995H310.445V188.727H318.55V196.995H321.94V178.34H318.55V185.8ZM296.458 176.107L293.203 176.646V183.399C292.821 183.197 292.372 183.018 291.856 182.86C291.34 182.703 290.733 182.614 290.049 182.614C289.038 182.614 288.152 182.793 287.377 183.141C286.603 183.489 285.951 183.993 285.413 184.633C284.874 185.284 284.47 186.058 284.189 186.966C283.908 187.875 283.774 188.884 283.774 189.995C283.774 191.106 283.942 192.149 284.268 193.046C284.604 193.955 285.076 194.729 285.693 195.357C286.311 195.996 287.063 196.479 287.938 196.827C288.814 197.163 289.813 197.343 290.924 197.343C292.036 197.343 293.035 197.264 294.011 197.096C294.988 196.939 295.807 196.759 296.447 196.557V176.096L296.458 176.107ZM287.927 186.63C288.477 185.822 289.341 185.418 290.531 185.418C291.07 185.418 291.575 185.508 292.058 185.676C292.529 185.844 292.911 186.035 293.203 186.226V194.303C292.967 194.359 292.664 194.404 292.305 194.448C291.934 194.493 291.497 194.516 290.969 194.516C289.768 194.516 288.825 194.112 288.14 193.293C287.456 192.474 287.119 191.352 287.119 189.916C287.119 188.481 287.388 187.437 287.938 186.63M268.799 196.995H272.055V185.631C272.268 185.598 272.605 185.553 273.054 185.497C273.503 185.441 273.929 185.418 274.345 185.418C274.906 185.418 275.377 185.497 275.759 185.642C276.141 185.8 276.444 186.035 276.679 186.372C276.904 186.708 277.061 187.134 277.162 187.662C277.263 188.189 277.308 188.828 277.308 189.591V196.995H280.563V189.075C280.563 188.122 280.474 187.247 280.283 186.45C280.092 185.654 279.766 184.969 279.317 184.409C278.857 183.848 278.24 183.399 277.476 183.085C276.702 182.771 275.737 182.614 274.592 182.614C273.368 182.614 272.257 182.692 271.246 182.86C270.236 183.018 269.428 183.197 268.799 183.377V196.995ZM264.646 182.917H261.391V194.303C261.177 194.359 260.852 194.404 260.403 194.437C259.965 194.471 259.55 194.493 259.146 194.493C258.046 194.493 257.282 194.168 256.844 193.529C256.407 192.878 256.182 191.801 256.182 190.298V182.917H252.927V190.803C252.927 191.756 253.028 192.631 253.219 193.428C253.41 194.224 253.746 194.908 254.207 195.492C254.667 196.064 255.273 196.512 256.036 196.838C256.8 197.163 257.742 197.32 258.876 197.32C260.077 197.32 261.189 197.23 262.188 197.062C263.198 196.894 264.006 196.726 264.635 196.569V182.917H264.646ZM245.473 193.304C244.867 194.134 244.036 194.538 242.959 194.538C241.881 194.538 241.039 194.123 240.444 193.304C239.849 192.485 239.546 191.352 239.546 189.939C239.546 188.525 239.849 187.426 240.444 186.618C241.039 185.811 241.881 185.396 242.959 185.396C244.036 185.396 244.878 185.8 245.473 186.618C246.079 187.437 246.371 188.548 246.371 189.939C246.371 191.33 246.068 192.474 245.473 193.304ZM249.223 186.91C248.886 186.001 248.426 185.227 247.831 184.577C247.236 183.926 246.528 183.433 245.687 183.085C244.856 182.737 243.935 182.558 242.948 182.558C241.96 182.558 241.051 182.737 240.231 183.085C239.4 183.433 238.693 183.937 238.087 184.577C237.481 185.227 237.021 186.001 236.684 186.91C236.347 187.819 236.19 188.828 236.19 189.939C236.19 191.049 236.358 192.07 236.684 192.979C237.009 193.888 237.481 194.673 238.076 195.323C238.671 195.974 239.378 196.468 240.209 196.827C241.039 197.186 241.949 197.365 242.959 197.365C243.969 197.365 244.89 197.186 245.72 196.827C246.551 196.468 247.269 195.963 247.864 195.323C248.459 194.673 248.919 193.899 249.234 192.979C249.548 192.059 249.716 191.049 249.716 189.939C249.716 188.828 249.548 187.819 249.223 186.91ZM234.72 183.096C234.562 183.04 234.338 182.984 234.068 182.917C233.799 182.849 233.518 182.804 233.238 182.76C232.957 182.715 232.665 182.681 232.373 182.647C232.082 182.625 231.835 182.602 231.621 182.602C230.476 182.602 229.421 182.703 228.478 182.917C227.535 183.118 226.75 183.343 226.121 183.578V196.984H229.376V185.699C229.533 185.642 229.825 185.586 230.229 185.508C230.634 185.441 231.015 185.396 231.374 185.396C232.003 185.396 232.553 185.441 233.036 185.542C233.507 185.642 233.889 185.732 234.158 185.822L234.72 183.074V183.096ZM219.139 181.223C219.936 181.447 220.609 181.716 221.148 182.042L222.17 179.271C222.046 179.204 221.822 179.08 221.507 178.923C221.193 178.766 220.789 178.609 220.306 178.463C219.824 178.317 219.24 178.194 218.566 178.071C217.893 177.958 217.13 177.891 216.265 177.891C215.008 177.891 213.818 178.104 212.707 178.542C211.596 178.968 210.619 179.607 209.8 180.437C208.969 181.268 208.318 182.288 207.846 183.489C207.375 184.689 207.128 186.069 207.128 187.639C207.128 189.21 207.341 190.578 207.779 191.79C208.206 192.99 208.812 194.011 209.597 194.83C210.383 195.649 211.326 196.288 212.437 196.714C213.549 197.141 214.784 197.365 216.131 197.365C217.59 197.365 218.87 197.253 219.981 197.04C221.092 196.827 221.889 196.625 222.349 196.445V187.482H218.959V194.19C218.712 194.258 218.364 194.325 217.938 194.37C217.511 194.415 216.995 194.437 216.4 194.437C215.446 194.437 214.615 194.269 213.908 193.944C213.201 193.607 212.606 193.147 212.134 192.553C211.663 191.958 211.304 191.251 211.057 190.41C210.81 189.58 210.698 188.66 210.698 187.65C210.698 185.53 211.203 183.881 212.224 182.681C213.234 181.492 214.705 180.886 216.624 180.886C217.5 180.886 218.342 180.998 219.139 181.223Z" fill="white"/>
<path d="M205.96 510.531C206.017 510.116 206.118 509.712 206.252 509.319C206.398 508.927 206.6 508.579 206.858 508.265C207.117 507.962 207.442 507.715 207.813 507.524C208.194 507.334 208.632 507.244 209.137 507.244C209.642 507.244 210.035 507.334 210.394 507.502C210.742 507.67 211.045 507.906 211.281 508.197C211.528 508.489 211.708 508.848 211.831 509.252C211.955 509.656 212.022 510.082 212.022 510.531H205.96ZM202.997 514.906C203.289 515.792 203.727 516.566 204.322 517.217C204.917 517.878 205.669 518.383 206.589 518.753C207.51 519.124 208.587 519.303 209.822 519.303C210.305 519.303 210.787 519.281 211.248 519.224C211.719 519.168 212.146 519.101 212.55 519.023C212.954 518.944 213.313 518.854 213.627 518.753C213.942 518.652 214.189 518.563 214.368 518.473L213.942 515.803C213.56 515.96 213.044 516.117 212.393 516.263C211.741 516.409 211.012 516.476 210.226 516.476C208.879 516.476 207.846 516.162 207.139 515.545C206.432 514.928 206.028 514.053 205.938 512.92H215.233C215.255 512.741 215.266 512.539 215.277 512.314C215.277 512.09 215.289 511.888 215.289 511.709C215.289 509.319 214.75 507.524 213.661 506.324C212.572 505.124 211.057 504.518 209.126 504.518C208.295 504.518 207.487 504.675 206.701 504.989C205.916 505.303 205.208 505.774 204.602 506.391C203.996 507.008 203.502 507.782 203.132 508.725C202.761 509.656 202.582 510.744 202.582 511.978C202.582 513.032 202.728 514.008 203.008 514.894M187.596 518.944H190.851V507.58C191.065 507.547 191.401 507.502 191.85 507.446C192.299 507.39 192.726 507.367 193.141 507.367C193.691 507.367 194.174 507.446 194.556 507.592C194.937 507.749 195.24 507.984 195.476 508.321C195.701 508.657 195.858 509.084 195.959 509.611C196.06 510.138 196.105 510.778 196.105 511.54V518.944H199.36V511.024C199.36 510.071 199.27 509.196 199.079 508.399C198.889 507.603 198.563 506.919 198.114 506.358C197.654 505.797 197.036 505.348 196.273 505.034C195.499 504.72 194.544 504.563 193.388 504.563C192.165 504.563 191.053 504.641 190.043 504.81C189.033 504.967 188.225 505.146 187.596 505.326V518.944ZM175.36 504.731C174.564 504.877 173.969 505.023 173.553 505.157L173.957 507.794C174.35 507.648 174.867 507.524 175.495 507.412C176.124 507.3 176.82 507.255 177.572 507.255C178.122 507.255 178.593 507.322 178.964 507.468C179.334 507.614 179.626 507.816 179.851 508.074C180.075 508.332 180.232 508.635 180.322 508.971C180.412 509.308 180.457 509.667 180.457 510.048V510.587C180.008 510.475 179.581 510.407 179.188 510.362C178.795 510.318 178.414 510.295 178.055 510.295C177.28 510.295 176.539 510.374 175.832 510.52C175.125 510.677 174.496 510.923 173.957 511.271C173.419 511.619 172.992 512.079 172.678 512.628C172.363 513.189 172.206 513.862 172.206 514.67C172.206 515.478 172.341 516.218 172.622 516.801C172.902 517.374 173.284 517.845 173.778 518.204C174.272 518.563 174.867 518.821 175.574 518.989C176.27 519.146 177.044 519.236 177.886 519.236C179.166 519.236 180.311 519.157 181.321 519.011C182.331 518.854 183.095 518.731 183.6 518.619V510.082C183.6 509.252 183.51 508.5 183.319 507.805C183.128 507.121 182.814 506.526 182.376 506.044C181.938 505.561 181.344 505.18 180.614 504.911C179.873 504.641 178.975 504.507 177.897 504.507C176.999 504.507 176.157 504.574 175.36 504.72M176.191 516.207C175.708 515.915 175.462 515.377 175.462 514.603C175.462 514.21 175.551 513.885 175.731 513.616C175.911 513.358 176.146 513.156 176.449 513.01C176.741 512.864 177.078 512.763 177.448 512.718C177.819 512.662 178.178 512.64 178.537 512.64C178.953 512.64 179.323 512.662 179.671 512.718C180.008 512.774 180.277 512.83 180.457 512.875V516.487C179.94 516.6 179.177 516.644 178.167 516.644C177.336 516.644 176.685 516.499 176.202 516.196M170.567 516.51C170.141 516.454 169.782 516.375 169.501 516.285C169.22 516.184 169.007 516.039 168.839 515.859C168.67 515.68 168.569 515.444 168.502 515.175C168.435 514.906 168.412 514.569 168.412 514.176V498.045L165.157 498.584V514.793C165.157 515.489 165.235 516.117 165.381 516.667C165.527 517.216 165.797 517.676 166.178 518.035C166.56 518.406 167.065 518.686 167.705 518.888C168.345 519.09 169.142 519.191 170.118 519.213L170.579 516.521L170.567 516.51ZM155.93 503.172C156.491 503.273 156.985 503.441 157.4 503.665C157.815 503.901 158.141 504.226 158.366 504.63C158.601 505.045 158.713 505.561 158.713 506.167C158.713 507.446 158.276 508.31 157.389 508.77C156.513 509.229 155.256 509.454 153.617 509.454H151.978V503.105C152.54 503.048 153.247 503.026 154.111 503.026C154.762 503.026 155.368 503.071 155.93 503.172ZM151.215 500.188C150.25 500.255 149.374 500.379 148.588 500.547V518.933H151.978V512.359H153.673C155.043 512.359 156.255 512.247 157.31 512.011C158.366 511.776 159.264 511.417 160.004 510.923C160.745 510.43 161.307 509.79 161.688 509.016C162.07 508.231 162.272 507.3 162.272 506.201C162.272 504.103 161.553 502.555 160.105 501.568C158.657 500.581 156.581 500.087 153.864 500.087C153.056 500.087 152.169 500.121 151.215 500.177M138.486 512.741H145.737V509.757H138.486V512.741ZM132.334 515.242C131.728 516.072 130.897 516.476 129.82 516.476C128.742 516.476 127.9 516.061 127.305 515.242C126.699 514.412 126.407 513.29 126.407 511.877C126.407 510.463 126.71 509.364 127.305 508.556C127.911 507.738 128.742 507.334 129.82 507.334C130.897 507.334 131.739 507.738 132.334 508.556C132.94 509.375 133.232 510.486 133.232 511.877C133.232 513.268 132.929 514.412 132.334 515.242ZM136.083 508.848C135.747 507.939 135.286 507.165 134.692 506.515C134.097 505.864 133.389 505.371 132.547 505.023C131.717 504.675 130.796 504.496 129.809 504.496C128.821 504.496 127.911 504.675 127.092 505.023C126.261 505.371 125.554 505.875 124.948 506.515C124.342 507.165 123.882 507.939 123.545 508.848C123.208 509.757 123.051 510.766 123.051 511.877C123.051 512.987 123.219 514.008 123.545 514.917C123.87 515.837 124.342 516.611 124.937 517.261C125.532 517.912 126.239 518.406 127.07 518.765C127.9 519.124 128.809 519.303 129.82 519.303C130.83 519.303 131.75 519.124 132.581 518.765C133.412 518.406 134.13 517.901 134.725 517.261C135.32 516.611 135.78 515.837 136.095 514.917C136.42 513.997 136.577 512.987 136.577 511.877C136.577 510.766 136.409 509.757 136.083 508.848ZM112.735 513.335C112.735 514.266 112.814 515.096 112.982 515.826C113.139 516.555 113.42 517.172 113.813 517.688C114.205 518.204 114.744 518.585 115.418 518.854C116.091 519.124 116.933 519.258 117.932 519.258C118.763 519.258 119.481 519.168 120.087 519C120.694 518.832 121.188 518.664 121.569 518.507L121.03 515.926C120.761 516.039 120.402 516.151 119.942 516.274C119.481 516.398 118.954 516.465 118.37 516.465C117.506 516.465 116.9 516.218 116.54 515.736C116.181 515.253 116.002 514.446 116.002 513.313V507.58H121.008V504.866H116.002V500.614L112.746 501.153V513.346L112.735 513.335ZM97.1431 518.933H100.398V507.569C100.612 507.536 100.948 507.491 101.397 507.435C101.847 507.379 102.273 507.356 102.688 507.356C103.238 507.356 103.721 507.435 104.103 507.58C104.484 507.738 104.799 507.973 105.023 508.31C105.248 508.646 105.405 509.072 105.506 509.6C105.607 510.127 105.652 510.766 105.652 511.529V518.933H108.907V511.013C108.907 510.06 108.817 509.185 108.627 508.388C108.436 507.592 108.11 506.907 107.661 506.347C107.201 505.786 106.584 505.337 105.82 505.023C105.046 504.709 104.092 504.552 102.935 504.552C101.712 504.552 100.601 504.63 99.5902 504.798C98.58 504.956 97.7717 505.135 97.1431 505.314V518.933ZM89.4426 518.933H92.8326V500.278H89.4426V518.933Z" fill="white"/>
<path d="M181.927 473.479C178.01 473.479 174.822 470.304 174.822 466.389C174.822 462.474 178.01 459.299 181.927 459.299C185.845 459.299 189.022 462.474 189.022 466.389C189.022 470.304 185.845 473.479 181.927 473.479ZM181.927 460.982C178.941 460.982 176.506 463.405 176.506 466.389C176.506 469.373 178.941 471.796 181.927 471.796C184.913 471.796 187.338 469.373 187.338 466.389C187.338 463.405 184.913 460.982 181.927 460.982ZM181.927 470.012C179.929 470.012 178.29 468.386 178.29 466.378C178.29 464.37 179.918 462.743 181.927 462.743C183.937 462.743 185.564 464.37 185.564 466.378C185.564 468.386 183.937 470.012 181.927 470.012ZM181.927 464.437C180.85 464.437 179.974 465.312 179.974 466.389C179.974 467.466 180.85 468.341 181.927 468.341C183.005 468.341 183.881 467.466 183.881 466.389C183.881 465.312 183.005 464.437 181.927 464.437Z" fill="white"/>
<path d="M125.666 473.479C121.749 473.479 118.561 470.304 118.561 466.389C118.561 462.474 121.749 459.299 125.666 459.299C129.584 459.299 132.761 462.474 132.761 466.389C132.761 470.304 129.584 473.479 125.666 473.479ZM125.666 460.982C122.68 460.982 120.245 463.405 120.245 466.389C120.245 469.373 122.68 471.796 125.666 471.796C128.652 471.796 131.077 469.373 131.077 466.389C131.077 463.405 128.652 460.982 125.666 460.982ZM125.666 470.012C123.668 470.012 122.029 468.386 122.029 466.378C122.029 464.37 123.657 462.743 125.666 462.743C127.676 462.743 129.303 464.37 129.303 466.378C129.303 468.386 127.676 470.012 125.666 470.012ZM125.666 464.437C124.589 464.437 123.713 465.312 123.713 466.389C123.713 467.466 124.589 468.341 125.666 468.341C126.744 468.341 127.62 467.466 127.62 466.389C127.62 465.312 126.744 464.437 125.666 464.437Z" fill="white"/>
<path d="M139.855 473.49C135.937 473.49 132.75 470.304 132.75 466.389C132.75 462.474 135.937 459.299 139.855 459.299C143.773 459.299 146.949 462.474 146.961 466.378C146.961 470.304 143.773 473.49 139.855 473.49ZM139.855 460.982C136.869 460.982 134.433 463.405 134.433 466.389C134.433 469.373 136.869 471.807 139.855 471.807C142.841 471.807 145.277 469.373 145.277 466.389C145.266 463.405 142.83 460.982 139.855 460.982ZM139.855 470.012C137.857 470.012 136.218 468.386 136.218 466.378C136.218 464.37 137.846 462.766 139.855 462.766C141.864 462.766 143.492 464.392 143.492 466.378C143.492 468.363 141.864 470.012 139.855 470.012ZM139.855 464.448C138.777 464.448 137.902 465.312 137.902 466.378C137.902 467.443 138.777 468.33 139.855 468.33C140.933 468.33 141.808 467.455 141.808 466.378C141.808 465.301 140.933 464.448 139.855 464.448Z" fill="white"/>
<path d="M165.954 462.182H145.647L145.389 461.879C144.02 460.219 141.999 459.266 139.844 459.266H139.821C137.689 459.266 135.69 460.219 134.343 461.868L134.085 462.182H131.425L131.178 461.879C129.943 460.387 128.226 459.467 126.329 459.288C124.443 459.108 122.546 459.692 121.109 460.881L119.728 462.025V459.434H117.494C112.903 459.434 109.154 455.698 109.154 451.099V442.731C109.154 438.143 112.892 434.396 117.494 434.396H119.885V434.216C119.358 433.958 119.043 433.442 119.043 432.814C119.043 431.917 119.717 431.232 120.626 431.232C122.557 431.322 124.05 431.266 125.128 431.221C126.8 431.154 127.721 431.12 128.316 431.692C128.607 431.973 128.753 432.343 128.753 432.803C128.753 433.409 128.405 433.947 127.911 434.216V434.385H154.605V434.194C154.077 433.925 153.741 433.397 153.741 432.803C153.741 431.939 154.459 431.232 155.335 431.232H161.89C162.755 431.232 163.462 431.939 163.462 432.803C163.462 433.409 163.114 433.947 162.62 434.216V434.385H164.977C169.568 434.385 173.317 438.12 173.317 442.719V451.088C173.317 455.328 170.085 458.884 165.954 459.366V462.16V462.182ZM146.433 460.499H164.27V457.774H165.101C168.704 457.706 171.634 454.722 171.634 451.11V442.742C171.634 439.074 168.648 436.09 164.977 436.09H160.936V432.937H156.21L156.3 433.577V436.09H126.239V432.893C125.925 432.893 125.565 432.915 125.206 432.926C124.263 432.96 123.04 433.005 121.502 432.971L121.592 433.577V436.09H117.517C113.846 436.09 110.86 439.074 110.86 442.742V451.11C110.86 454.778 113.846 457.762 117.517 457.762H121.434V458.66C122.961 457.83 124.746 457.448 126.508 457.617C128.72 457.818 130.74 458.839 132.233 460.499H133.322C134.972 458.649 137.329 457.594 139.833 457.583C142.392 457.527 144.749 458.637 146.433 460.499Z" fill="white"/>
<path d="M118.505 467.252H115.204C113.812 467.252 112.69 466.12 112.69 464.74C112.69 464.067 112.959 463.427 113.442 462.956C113.925 462.485 114.587 462.238 115.227 462.249H119.728L119.167 463.45C118.729 464.37 118.516 465.379 118.516 466.422V467.264L118.505 467.252ZM115.193 463.921C114.969 463.921 114.767 463.999 114.621 464.145C114.464 464.302 114.374 464.504 114.374 464.729C114.374 465.188 114.744 465.559 115.204 465.559H116.854C116.911 464.998 117.012 464.448 117.169 463.91H115.182L115.193 463.921Z" fill="white"/>
<path d="M189.549 467.252H188.707V466.411C188.707 462.675 185.654 459.635 181.916 459.635C178.178 459.635 175.125 462.675 175.125 466.411V467.252H147.006V466.411C147.006 465.368 146.781 464.358 146.354 463.438L145.793 462.238H173.093V442.865C173.093 441.53 174.182 440.442 175.518 440.442H188.876C189.942 440.442 190.818 441.317 190.818 442.383C190.818 443.448 189.942 444.323 188.876 444.323H188.73C190.223 449.136 191.02 451.749 191.457 453.152C191.648 453.78 191.794 454.24 191.884 454.587L191.94 454.733H191.918C191.918 454.733 191.918 454.789 191.929 454.812H191.951L191.996 454.969C192.299 455.922 192.445 456.91 192.445 457.897V457.93C192.344 460.477 192.412 462.283 192.445 463.595C192.501 465.435 192.535 466.276 191.985 466.837C191.716 467.118 191.356 467.264 190.907 467.264H189.538L189.549 467.252ZM190.346 465.57H190.761C190.806 465.211 190.784 464.448 190.761 463.629C190.717 462.294 190.66 460.466 190.761 457.863C190.761 457.055 190.638 456.236 190.391 455.451C190.38 455.406 190.369 455.373 190.357 455.339C190.357 455.305 190.346 455.283 190.335 455.249C190.335 455.249 190.2 454.823 189.785 453.477L188.876 453.443C186.485 453.365 184.801 453.421 183.577 453.443C181.781 453.499 181.04 453.522 180.513 453.006C180.255 452.748 180.12 452.411 180.12 452.007V447.722C180.12 446.926 180.771 446.275 181.568 446.275H187.562C187.315 445.49 187.057 444.637 186.765 443.717L186.429 442.629H188.864C188.999 442.629 189.123 442.506 189.123 442.371C189.123 442.226 189.01 442.113 188.864 442.113H175.506C175.102 442.113 174.766 442.439 174.766 442.854V461.857C176.27 459.512 178.908 457.953 181.916 457.953C186.305 457.953 189.931 461.296 190.357 465.57H190.346ZM148.633 465.57H173.463C173.52 464.998 173.632 464.448 173.8 463.921H148.319C148.476 464.459 148.588 465.009 148.633 465.57ZM181.792 451.783C182.152 451.817 182.814 451.783 183.521 451.783C184.554 451.749 185.912 451.716 187.742 451.749L186.586 447.98H181.804V451.794L181.792 451.783Z" fill="white"/>
<path d="M439.58 482.912H448.425V484.999H439.58V482.912ZM436.717 446.006C436.572 445.86 436.493 445.681 436.493 445.479V437.615H451.524V445.479C451.524 445.681 451.445 445.871 451.299 446.006L449.043 448.216H438.974L436.717 446.006ZM437.032 432.892H450.985C451.277 432.892 451.524 433.128 451.524 433.42V435.585H436.493V433.42C436.493 433.128 436.729 432.892 437.032 432.892ZM470.023 458.312H470.068C480.125 458.312 489.835 461.857 497.592 468.329H450.513V463.012C456.508 459.938 463.243 458.312 470.023 458.301M484.907 470.348H486.849V484.976H484.907V470.348ZM476.5 470.348H482.831V484.976H476.5V470.348ZM472.481 470.348H474.423V484.976H472.481V470.348ZM464.073 470.348H470.404V484.976H464.073V470.348ZM460.055 470.348H461.997V484.976H460.055V470.348ZM450.502 470.348H457.978V484.976H450.502V470.348ZM439.58 474.836H448.425V480.848H439.58V474.836ZM439.58 454.509H448.425V462.395H439.58V454.509ZM448.425 472.805H439.58V464.425H448.425V472.805ZM448.425 452.479H439.58V450.224H448.425V452.479ZM495.246 484.976H488.915V470.348H495.246V484.976ZM504.136 484.976H501.341V480.287C501.341 479.726 500.881 479.266 500.308 479.266C499.736 479.266 499.264 479.726 499.264 480.287V484.976H497.322V470.348H499.264V475.957C499.264 476.518 499.725 476.978 500.308 476.978C500.892 476.978 501.341 476.518 501.341 475.957V471.257C501.341 471.257 501.431 471.257 501.465 471.257C501.487 471.257 501.509 471.257 501.532 471.257C501.914 471.246 502.262 471.078 502.509 470.808L504.664 468.497C505.191 467.937 505.146 467.05 504.574 466.534L502.755 464.908C500.634 463.012 498.322 461.284 495.886 459.781C495.403 459.478 494.763 459.624 494.449 460.095C494.146 460.567 494.28 461.195 494.774 461.498C497.109 462.945 499.321 464.594 501.364 466.411L502.699 467.6L501.442 468.957L500.084 467.746C491.777 460.342 481.124 456.259 470.079 456.259H470.034C463.276 456.259 456.564 457.807 450.524 460.724V458.693C456.586 455.911 463.321 454.442 470.034 454.43H470.079C477.285 454.43 484.526 456.147 491.025 459.4C491.171 459.478 491.339 459.512 491.497 459.512C491.878 459.512 492.237 459.31 492.428 458.962C492.686 458.469 492.484 457.852 491.979 457.594C485.188 454.195 477.622 452.4 470.09 452.4H470.034C463.344 452.4 456.631 453.802 450.524 456.461V449.629L452.781 447.419C453.32 446.892 453.611 446.197 453.611 445.456V433.397C453.611 431.984 452.444 430.84 450.996 430.84H447.707V425.5C447.707 424.939 447.247 424.49 446.674 424.49C446.102 424.49 445.642 424.939 445.642 425.5V430.84H442.016V418.668C442.016 418.107 441.556 417.659 440.972 417.659C440.388 417.659 439.939 418.107 439.939 418.668V430.84H437.054C435.617 430.84 434.439 431.984 434.439 433.397V445.456C434.439 446.197 434.731 446.892 435.269 447.419L437.526 449.629V484.976H435.471C434.899 484.976 434.439 485.436 434.439 485.997C434.439 486.558 434.899 487.018 435.471 487.018H504.159C504.731 487.018 505.191 486.558 505.191 485.997C505.191 485.436 504.731 484.976 504.159 484.976" fill="#0A2E45"/>
<path d="M439.131 441.653H440.366C440.938 441.653 441.398 441.205 441.398 440.644C441.398 440.083 440.938 439.623 440.366 439.623H439.131C438.558 439.623 438.087 440.083 438.087 440.644C438.087 441.205 438.547 441.653 439.131 441.653Z" fill="#0A2E45"/>
<path d="M447.729 441.653H448.964C449.537 441.653 449.997 441.205 449.997 440.644C449.997 440.083 449.537 439.623 448.964 439.623H447.729C447.157 439.623 446.685 440.083 446.685 440.644C446.685 441.205 447.146 441.653 447.729 441.653Z" fill="#0A2E45"/>
<path d="M476.893 440.756H483.123V442.45H476.893C476.421 442.45 476.028 442.068 476.028 441.609C476.028 441.149 476.421 440.756 476.893 440.756ZM468.968 441.665H473.963C473.997 443.224 475.299 444.48 476.904 444.48H483.347C484.369 444.48 485.21 443.661 485.21 442.663V441.665H491.822C493.338 441.665 494.662 440.666 495.033 439.23L496.75 432.646C496.885 432.13 496.772 431.591 496.436 431.176C496.099 430.761 495.605 430.514 495.055 430.514H492.81C492.282 430.514 491.788 430.739 491.463 431.142L488.499 434.698H477.667C477.095 434.698 476.623 435.158 476.623 435.719C476.623 436.28 477.083 436.729 477.667 436.729H488.993C489.308 436.729 489.6 436.594 489.802 436.359L492.978 432.545H494.628L493.012 438.726C492.877 439.264 492.383 439.634 491.811 439.634H484.941C484.616 439.096 484.021 438.726 483.336 438.726H476.893C476.051 438.726 475.299 439.073 474.76 439.634H468.968C468.148 439.634 467.486 438.984 467.486 438.187C467.486 437.391 468.148 436.74 468.968 436.74H473.256C473.828 436.74 474.288 436.291 474.288 435.719C474.288 435.147 473.828 434.698 473.256 434.698H468.968C467.003 434.698 465.409 436.258 465.409 438.176C465.409 440.094 467.003 441.653 468.968 441.653V441.665Z" fill="#0A2E45"/>
</g>
<mask id="mask1_21_1582" style="mask-type:luminance" maskUnits="userSpaceOnUse" x="278" y="86" width="67" height="67">
<path d="M344.749 86.2979H278.24V152.752H344.749V86.2979Z" fill="white"/>
</mask>
<g mask="url(#mask1_21_1582)">
<path d="M343.459 152.74H279.497C278.779 152.74 278.195 152.157 278.195 151.439V131.494C278.195 130.776 278.779 130.193 279.497 130.193C280.216 130.193 280.799 130.776 280.799 131.494V150.138H283.662V115.329C283.662 114.611 284.245 114.028 284.964 114.028H338.003C338.721 114.028 339.305 114.611 339.305 115.329V150.138H342.168V100.802L311.489 89.046L280.811 100.802V119.85C280.811 120.568 280.227 121.151 279.508 121.151C278.79 121.151 278.206 120.568 278.206 119.85V99.9048C278.206 99.3663 278.543 98.884 279.037 98.6933L311.018 86.4435C311.321 86.3313 311.646 86.3313 311.949 86.4435L343.93 98.6933C344.435 98.884 344.761 99.3663 344.761 99.9048V151.428C344.761 152.146 344.177 152.729 343.459 152.729V152.74ZM286.255 150.138H336.69V116.63H286.255V150.138Z" fill="white"/>
</g>
<path d="M311.477 130.956C310.759 130.956 310.175 130.373 310.175 129.655V125.785H304.271C303.552 125.785 302.969 125.201 302.969 124.483C302.969 123.765 303.552 123.182 304.271 123.182H310.175V121.813C310.175 121.096 310.759 120.512 311.477 120.512C312.196 120.512 312.78 121.096 312.78 121.813V123.182H318.684C319.402 123.182 319.986 123.765 319.986 124.483C319.986 125.201 319.402 125.785 318.684 125.785H312.78V129.655C312.78 130.373 312.196 130.956 311.477 130.956Z" fill="white"/>
<mask id="mask2_21_1582" style="mask-type:luminance" maskUnits="userSpaceOnUse" x="278" y="86" width="64" height="67">
<path d="M341.73 86.2979H278.24V152.752H341.73V86.2979Z" fill="white"/>
</mask>
<g mask="url(#mask2_21_1582)">
<path d="M327.373 152.74C326.654 152.74 326.07 152.157 326.07 151.439V145.516H323.567V151.439C323.567 152.157 322.983 152.74 322.265 152.74C321.547 152.74 320.963 152.157 320.963 151.439V145.516H316.271C315.216 146.358 314.026 146.952 312.757 147.199V151.428C312.757 152.146 312.174 152.729 311.455 152.729C310.737 152.729 310.153 152.146 310.153 151.428V147.199C308.885 146.952 307.695 146.346 306.64 145.516H301.947V151.439C301.947 152.157 301.364 152.74 300.645 152.74C299.927 152.74 299.343 152.157 299.343 151.439V145.516H296.84V151.439C296.84 152.157 296.256 152.74 295.538 152.74C294.819 152.74 294.236 152.157 294.236 151.439V145.516H284.919C284.2 145.516 283.617 144.933 283.617 144.215C283.617 143.497 284.2 142.914 284.919 142.914H304.237C303.193 141.388 302.453 139.627 302.116 137.877L285.098 140.322C284.391 140.435 283.729 139.93 283.628 139.223C283.527 138.516 284.021 137.854 284.728 137.754L301.947 135.274C302.25 130.922 305.753 128.353 311.433 128.353C317.113 128.353 320.615 130.922 320.918 135.274L338.138 137.754C338.845 137.854 339.339 138.516 339.238 139.223C339.137 139.93 338.474 140.435 337.767 140.322L320.75 137.877C320.424 139.627 319.672 141.388 318.628 142.914H337.947C338.665 142.914 339.249 143.497 339.249 144.215C339.249 144.933 338.665 145.516 337.947 145.516H328.63V151.439C328.63 152.157 328.046 152.74 327.328 152.74H327.373ZM311.466 130.956C308.312 130.956 304.552 131.819 304.552 135.903C304.552 139.986 307.807 144.731 311.466 144.731C315.126 144.731 318.134 140.165 318.359 136.351C318.359 136.34 318.359 136.329 318.359 136.318C318.359 136.183 318.37 136.048 318.37 135.914C318.37 131.819 314.609 130.967 311.455 130.967L311.466 130.956ZM311.466 137.507C310.613 137.507 309.76 137.316 308.907 136.935C308.256 136.643 307.964 135.869 308.256 135.218C308.548 134.568 309.322 134.276 309.973 134.568C310.984 135.016 311.96 135.016 312.971 134.568C313.622 134.276 314.396 134.568 314.688 135.218C314.98 135.869 314.688 136.643 314.037 136.935C313.184 137.316 312.331 137.507 311.478 137.507H311.466ZM279.486 126.962C278.767 126.962 278.184 126.379 278.184 125.661C278.184 124.943 278.767 124.36 279.486 124.36C280.204 124.36 280.788 124.943 280.788 125.661C280.788 126.379 280.204 126.962 279.486 126.962ZM337.992 116.619C337.273 116.619 336.689 116.036 336.689 115.318V110.483H286.255V115.318C286.255 116.036 285.671 116.619 284.952 116.619C284.234 116.619 283.65 116.036 283.65 115.318V109.182C283.65 108.464 284.234 107.881 284.952 107.881H337.992C338.71 107.881 339.294 108.464 339.294 109.182V115.318C339.294 116.036 338.71 116.619 337.992 116.619ZM337.992 104.729H328.226C327.507 104.729 326.924 104.145 326.924 103.427C326.924 102.709 327.507 102.126 328.226 102.126H337.992C338.71 102.126 339.294 102.709 339.294 103.427C339.294 104.145 338.71 104.729 337.992 104.729ZM320.177 104.729H303.036C302.318 104.729 301.734 104.145 301.734 103.427V97.4145C301.734 96.6966 302.318 96.1133 303.036 96.1133H320.177C320.896 96.1133 321.479 96.6966 321.479 97.4145V103.427C321.479 104.145 320.896 104.729 320.177 104.729ZM312.903 102.126H318.875V98.7046H312.903V102.126ZM304.338 102.126H310.31V98.7046H304.338V102.126ZM294.718 104.729H284.952C284.234 104.729 283.65 104.145 283.65 103.427C283.65 102.709 284.234 102.126 284.952 102.126H294.718C295.437 102.126 296.02 102.709 296.02 103.427C296.02 104.145 295.437 104.729 294.718 104.729Z" fill="white"/>
</g>
<mask id="mask3_21_1582" style="mask-type:luminance" maskUnits="userSpaceOnUse" x="0" y="0" width="623" height="602">
<path d="M623 0H0V602H623V0Z" fill="white"/>
</mask>
<g mask="url(#mask3_21_1582)">
<path d="M140.888 454.094C142.246 454.139 143.56 453.634 144.514 452.692C145.468 451.75 145.996 450.471 145.939 449.136C145.939 446.847 142.662 441.743 140.888 439.735C139.103 441.743 135.825 446.847 135.825 449.136C135.781 450.46 136.297 451.75 137.251 452.692C138.205 453.634 139.53 454.139 140.877 454.094" fill="white"/>
<path d="M110.007 250.324C118.381 250.324 125.161 243.549 125.161 235.18C125.161 226.812 118.381 220.036 110.007 220.036C101.633 220.036 94.8533 226.812 94.8533 235.18C94.8533 243.549 101.633 250.324 110.007 250.324Z" fill="white"/>
<path d="M311.5 602C319.874 602 326.654 595.225 326.654 586.856C326.654 578.488 319.874 571.712 311.5 571.712C303.126 571.712 296.346 578.488 296.346 586.856C296.346 595.225 303.126 602 311.5 602Z" fill="white"/>
<path d="M504.013 253.689C512.387 253.689 519.167 246.914 519.167 238.545C519.167 230.177 512.387 223.401 504.013 223.401C495.639 223.401 488.859 230.177 488.859 238.545C488.859 246.914 495.639 253.689 504.013 253.689Z" fill="white"/>
</g>
<path d="M516.364 234.632L384.468 305.129L385.527 307.107L517.422 236.61L516.364 234.632Z" fill="white"/>
</g>
<defs>
<clipPath id="clip0_21_1582">
<rect width="623" height="602" fill="white"/>
</clipPath>
</defs>
</svg>
