<svg width="299" height="65" fill="none" xmlns="http://www.w3.org/2000/svg">
    <g clip-path="url(#a)">
        <path
            d="M61.153 61.06V30.526C61.153 13.668 47.453 0 30.57 0 13.688 0 0 13.668 0 30.525S13.688 61.05 30.57 61.05h30.572l.01.01z"
            fill="#fff" />
        <path
            d="M15.36 41.66a18.729 18.729 0 0 1-3.65-11.147c0-4.96 1.921-9.478 5.059-12.839a18.826 18.826 0 0 1 12.654-5.971.512.512 0 0 0 .488-.51V8.116a.507.507 0 0 0-.534-.51 22.904 22.904 0 0 0-14.552 6.22c-.33.307-.648.625-.955.954-3.877 4.11-6.264 9.649-6.264 15.745a22.804 22.804 0 0 0 5.604 15.007 22.972 22.972 0 0 0 17.394 7.946c5.014 0 9.653-1.6 13.427-4.325-1.284-.738-2.273-1.805-2.808-3.054a18.785 18.785 0 0 1-10.63 3.28 18.862 18.862 0 0 1-15.234-7.707m36.778-3.122a22.922 22.922 0 0 0 1.41-6.81.508.508 0 0 0-.511-.534h-3.081c-.273 0-.5.215-.512.488a18.62 18.62 0 0 1-1.398 6.016c.102 0 .193-.011.295-.011 1.387 0 2.683.318 3.797.851z"
            fill="#0A2E45" />
        <path
            d="M53.036 29.832h-3.081a.512.512 0 0 1-.512-.488 18.69 18.69 0 0 0-1.842-7.027.528.528 0 0 1 .148-.635l2.49-1.907a.52.52 0 0 1 .773.17 22.959 22.959 0 0 1 2.547 9.354.508.508 0 0 1-.512.533m-21.294-18.14a18.877 18.877 0 0 1 13.972 7.55c.16.203.444.272.66.135l2.694-1.532a.505.505 0 0 0 .16-.738c-3.957-5.483-10.267-9.15-17.452-9.524a.508.508 0 0 0-.534.51v3.077c0 .273.216.5.489.51"
            fill="#40BDA6" />
        <path
            d="m27.092 37.46 1.478-1.123 9.266-7.05a.359.359 0 0 1 .534.114l4.934 9.093a.515.515 0 0 1-.455.76H38.29a.696.696 0 0 1-.625-.374l-1.74-3.213a2.575 2.575 0 0 0-3.57-.987l-5.274 2.78h.011zm-3.752 1.647 26.83-20.638-22.817 12.907c.648-1.237 6.105-10.568 6.105-10.568l-2.41-4.938a.51.51 0 0 0-.898 0L17.52 38.494a.51.51 0 0 0 .443.76h4.945c.16 0 .307-.045.432-.147z"
            fill="#40BDA6" />
        <path
            d="M53.206 44.09c0-.783-.125-1.498-.375-2.145a4.801 4.801 0 0 0-1.08-1.68c-.466-.466-1.035-.83-1.706-1.102a6.142 6.142 0 0 0-2.24-.397c-.818 0-1.545.114-2.205.352-.67.227-1.239.556-1.728.976-.489.42-.864.92-1.125 1.521-.273.59-.398 1.25-.398 1.964 0 .715.136 1.408.398 1.964a4.774 4.774 0 0 0 1.068 1.487c.444.431.967.806 1.547 1.113.59.318 1.205.59 1.853.84.545.215.977.431 1.307.624.33.193.58.397.762.613.182.204.295.431.352.67.057.238.08.5.08.806 0 .272-.034.533-.091.772a1.44 1.44 0 0 1-.318.613c-.148.17-.33.306-.569.397-.227.102-.511.148-.841.148-.41 0-.773-.046-1.08-.148a1.768 1.768 0 0 1-.773-.488 2.19 2.19 0 0 1-.466-.886 4.428 4.428 0 0 1-.137-.862h-3.49c.045.783.205 1.475.489 2.066a5.245 5.245 0 0 0 1.353 1.76 5.56 5.56 0 0 0 1.91 1.032c.716.227 1.444.34 2.182.34.819 0 1.558-.101 2.217-.328a4.767 4.767 0 0 0 1.672-.931 4.067 4.067 0 0 0 1.068-1.499c.25-.59.375-1.26.375-2.02a5.84 5.84 0 0 0-.295-1.907 4.488 4.488 0 0 0-.898-1.522c-.398-.454-.91-.85-1.501-1.203a12.523 12.523 0 0 0-2.103-.965c-.387-.17-.74-.329-1.058-.51a4.67 4.67 0 0 1-.818-.557 2.26 2.26 0 0 1-.523-.636 1.58 1.58 0 0 1-.182-.771c0-.284.046-.534.114-.784.08-.25.193-.454.352-.635.16-.182.353-.318.603-.42.239-.103.523-.16.852-.16.353 0 .66.058.91.182.25.125.455.295.625.511.17.216.284.477.353.783.08.307.113.636.113 1h3.468l-.023.022z"
            fill="#0A2E45" />
        <path
            d="M291.121 53.455a5.69 5.69 0 0 1 .216-.862c.103-.284.239-.534.432-.75.194-.215.421-.386.694-.522.273-.136.602-.193.989-.193s.739.068 1 .205c.273.136.489.318.671.533.171.216.307.466.387.738.079.273.136.556.148.851h-4.548.011zm-3.149 3.803a5.21 5.21 0 0 0 1.183 1.998c.534.568 1.205 1 2.012 1.328.807.33 1.762.488 2.853.488.432 0 .865-.022 1.297-.068.432-.045.829-.102 1.216-.17a9.786 9.786 0 0 0 1.023-.238 4.74 4.74 0 0 0 .739-.273l-.466-2.792c-.387.17-.875.306-1.489.431-.603.114-1.228.17-1.865.17-.989 0-1.773-.204-2.353-.624-.591-.42-.921-.976-.989-1.68h7.81c.012-.182.034-.397.046-.636.011-.238.022-.454.022-.658 0-2.044-.5-3.599-1.5-4.643-1.001-1.056-2.365-1.578-4.082-1.578-.739 0-1.455.136-2.16.42a5.177 5.177 0 0 0-1.853 1.226c-.534.534-.978 1.215-1.307 2.02-.33.807-.501 1.749-.501 2.827 0 .897.126 1.726.387 2.486m-1.194-8.434a3.686 3.686 0 0 0-.671-.193 9.33 9.33 0 0 0-.784-.136 18.337 18.337 0 0 0-.784-.091 8.023 8.023 0 0 0-.671-.034c-1.035 0-1.967.09-2.808.284-.842.193-1.569.397-2.183.613v11.476h3.445v-9.263c.159-.045.386-.09.682-.125a7.08 7.08 0 0 1 .773-.056c.477 0 .921.045 1.341.125.421.079.773.17 1.08.238l.58-2.838zm-17.258-.477c-.398.034-.761.091-1.114.136-.352.057-.682.114-.977.182-.296.068-.546.136-.751.193l.444 2.77a6.88 6.88 0 0 1 1.478-.352c.568-.08 1.148-.125 1.728-.125.875 0 1.489.182 1.841.534.353.352.535.817.535 1.407v.318a5.491 5.491 0 0 0-.842-.148 12.006 12.006 0 0 0-1.193-.056c-.66 0-1.308.068-1.922.193-.614.136-1.159.34-1.637.635a3.272 3.272 0 0 0-1.148 1.181c-.284.488-.432 1.09-.432 1.794 0 .703.125 1.362.364 1.873.25.51.602.92 1.057 1.237.455.318 1.012.545 1.649.681.636.136 1.352.204 2.137.204 1.25 0 2.308-.068 3.183-.215a63.168 63.168 0 0 0 2.058-.375v-7.151c0-.75-.08-1.442-.25-2.055a3.657 3.657 0 0 0-.864-1.567c-.41-.431-.955-.76-1.626-.987-.671-.227-1.523-.34-2.535-.34-.398 0-.796.022-1.194.056m-.023 9.683c-.364-.204-.545-.579-.545-1.113 0-.272.056-.51.181-.692.126-.182.296-.33.512-.443a2.42 2.42 0 0 1 .75-.215 7.68 7.68 0 0 1 .91-.057c.227 0 .489.011.762.045s.488.057.625.091v2.6a5.297 5.297 0 0 1-.739.068c-.307.011-.625.022-.966.022-.626 0-1.126-.102-1.49-.306zm-12.38-.772c.375 1.158.75 2.316 1.137 3.485h2.683c.272-.647.579-1.419.909-2.304.33-.897.671-1.862 1.023-2.918.341-1.056.705-2.168 1.069-3.337.364-1.18.716-2.361 1.057-3.565h-3.581a482 482 0 0 1-.409 1.805c-.148.659-.307 1.328-.466 2.02-.16.693-.341 1.386-.523 2.09-.182.703-.375 1.373-.557 2.02a54.88 54.88 0 0 1-.58-2.077c-.182-.704-.364-1.396-.535-2.089-.17-.681-.329-1.34-.488-1.986-.148-.636-.296-1.238-.41-1.783h-2.489a44.736 44.736 0 0 1-.432 1.783c-.16.635-.33 1.294-.512 1.986-.182.681-.364 1.385-.557 2.089a92.602 92.602 0 0 1-.591 2.077 98.522 98.522 0 0 1-.546-2.02 82.646 82.646 0 0 1-.512-2.09c-.159-.692-.318-1.361-.466-2.02-.148-.658-.284-1.26-.409-1.805h-3.627c.341 1.204.694 2.384 1.058 3.565.363 1.18.716 2.293 1.068 3.337.341 1.056.682 2.02 1.012 2.918.33.896.625 1.657.898 2.304h2.683c.387-1.17.751-2.327 1.103-3.485.341-1.158.671-2.316.978-3.485.307 1.17.648 2.327 1.012 3.485zm-18.782-1.476c0 .784.069 1.499.216 2.146.148.647.41 1.192.773 1.646.376.454.864.806 1.478 1.056s1.387.374 2.331.374c.739 0 1.364-.057 1.876-.181.511-.125.966-.273 1.387-.443l-.489-2.68a5.527 5.527 0 0 1-1.08.285 6.643 6.643 0 0 1-1.148.102c-.773 0-1.285-.216-1.535-.647-.25-.432-.387-1.01-.387-1.726v-4.268h4.139v-2.86h-4.139v-3.577l-3.444.557v10.194l.022.022zm-8.072-11.544c-.886.92-1.33 2.168-1.33 3.734V60.8h3.445v-9.263h4.252v-2.86h-4.252v-.602c0-.33.034-.625.102-.897.069-.272.182-.51.341-.715.16-.205.387-.364.671-.477.284-.113.637-.17 1.046-.17.307 0 .648.034 1.001.102.352.068.693.17 1 .306l.671-2.747c-.296-.125-.705-.25-1.251-.374-.534-.137-1.137-.193-1.773-.193-1.74 0-3.047.465-3.934 1.385m-7.901 12.94c-.421.625-1.023.931-1.808.931-.784 0-1.398-.306-1.819-.93-.432-.625-.648-1.465-.648-2.52 0-1.056.216-1.896.648-2.498.432-.602 1.035-.908 1.819-.908.785 0 1.387.306 1.808.908.42.602.636 1.442.636 2.497 0 1.056-.216 1.908-.636 2.52zm3.706-5.13a5.977 5.977 0 0 0-1.228-2.01 5.38 5.38 0 0 0-1.887-1.294 6.205 6.205 0 0 0-2.41-.465c-.876 0-1.66.159-2.388.465a5.643 5.643 0 0 0-1.898 1.294c-.535.556-.944 1.226-1.251 2.01a7.353 7.353 0 0 0-.455 2.6c0 .941.148 1.827.444 2.621a6.067 6.067 0 0 0 1.228 2.032 5.47 5.47 0 0 0 1.875 1.306c.728.306 1.547.465 2.433.465.887 0 1.728-.159 2.456-.465a5.316 5.316 0 0 0 1.876-1.306c.523-.556.921-1.237 1.205-2.032.273-.794.409-1.668.409-2.622 0-.953-.147-1.816-.443-2.6m-22.112 5.642a8.756 8.756 0 0 1-1.763-.703l-1.011 2.86c.216.125.477.25.795.386a9.34 9.34 0 0 0 1.137.398c.444.124.944.227 1.512.306.569.08 1.205.125 1.91.125 2.104 0 3.684-.409 4.73-1.238 1.046-.817 1.569-1.975 1.569-3.473 0-.772-.103-1.42-.296-1.964a3.862 3.862 0 0 0-.909-1.408 5.792 5.792 0 0 0-1.535-1.044 25.25 25.25 0 0 0-2.172-.908 18.942 18.942 0 0 1-1.091-.409 4.225 4.225 0 0 1-.876-.443 1.974 1.974 0 0 1-.591-.544 1.285 1.285 0 0 1-.204-.738c0-.488.193-.852.568-1.09.375-.238 1.001-.352 1.853-.352.773 0 1.433.09 1.978.261.546.182 1.046.375 1.49.613l1.034-2.838c-.511-.272-1.159-.533-1.944-.76-.784-.227-1.716-.34-2.797-.34-.909 0-1.728.113-2.444.328-.727.227-1.341.545-1.842.954-.511.42-.898.92-1.182 1.51-.284.59-.409 1.26-.409 1.998 0 .737.125 1.362.386 1.884.262.51.603.954 1.012 1.317.421.363.887.658 1.41.897.523.238 1.046.454 1.569.635 1.205.398 2.046.772 2.535 1.124.489.34.739.783.739 1.305 0 .25-.034.466-.114.67a1.15 1.15 0 0 1-.42.523c-.205.147-.466.26-.796.351-.33.08-.75.125-1.262.125-1.012 0-1.876-.102-2.569-.306m-16.633.397a9.932 9.932 0 0 1-1.796-.545l-.58 2.793c.273.125.773.272 1.489.465.716.182 1.615.273 2.695.273 1.648 0 2.921-.307 3.82-.92.898-.613 1.352-1.521 1.352-2.713 0-.51-.056-.954-.17-1.34a2.695 2.695 0 0 0-.603-1.044c-.284-.318-.67-.602-1.171-.874-.489-.272-1.114-.545-1.875-.829a8.417 8.417 0 0 1-.91-.386 3.399 3.399 0 0 1-.568-.329.82.82 0 0 1-.273-.306.91.91 0 0 1-.069-.375c0-.602.535-.897 1.615-.897.591 0 1.114.057 1.58.16.466.101.898.226 1.308.374l.602-2.68c-.398-.158-.944-.294-1.614-.43a10.813 10.813 0 0 0-2.126-.194c-1.478 0-2.638.33-3.49.988-.842.659-1.274 1.555-1.274 2.702 0 .579.091 1.078.25 1.498.171.42.41.772.717 1.067.307.295.682.556 1.125.772.443.216.932.42 1.467.625.693.26 1.205.499 1.546.703.341.205.511.454.511.727 0 .352-.136.59-.397.715-.262.125-.705.182-1.342.182a8.831 8.831 0 0 1-1.819-.193m-15.03 2.667h3.445v-9.365c.216-.034.466-.057.739-.08.273-.022.534-.033.785-.033.795 0 1.341.227 1.637.692.295.465.443 1.249.443 2.35v6.436h3.445v-6.845c0-.828-.08-1.589-.25-2.259a4.42 4.42 0 0 0-.853-1.748c-.398-.488-.944-.874-1.626-1.146-.682-.273-1.546-.41-2.58-.41-1.035 0-1.99.069-2.911.217-.921.147-1.682.306-2.262.476v11.715h-.012zm-6.571-3.564c-.42.624-1.023.93-1.807.93-.785 0-1.399-.306-1.819-.93-.432-.624-.648-1.465-.648-2.52 0-1.056.216-1.896.648-2.498.432-.601 1.034-.908 1.819-.908.784 0 1.387.307 1.807.908.421.602.637 1.442.637 2.498 0 1.056-.216 1.907-.637 2.52zm3.706-5.131a5.96 5.96 0 0 0-1.227-2.01 5.383 5.383 0 0 0-1.888-1.293 6.201 6.201 0 0 0-2.41-.466c-.875 0-1.66.16-2.387.466a5.471 5.471 0 0 0-1.887 1.294c-.535.556-.944 1.226-1.251 2.009a7.332 7.332 0 0 0-.455 2.6c0 .942.148 1.827.444 2.622a6.065 6.065 0 0 0 1.227 2.032 5.325 5.325 0 0 0 1.876 1.305c.728.307 1.546.466 2.433.466.887 0 1.728-.16 2.456-.466a5.228 5.228 0 0 0 1.876-1.305c.523-.557.921-1.238 1.205-2.032.273-.795.42-1.669.42-2.623 0-.953-.147-1.816-.443-2.6m-14.211-8.422a2.099 2.099 0 0 0-1.444-.545 2.1 2.1 0 0 0-1.444.545c-.409.363-.614.851-.614 1.487 0 .636.205 1.124.614 1.487a2.1 2.1 0 0 0 1.444.545c.557 0 1.035-.182 1.444-.545.409-.363.614-.851.614-1.487 0-.636-.205-1.124-.614-1.487zm.284 4.995h-3.444V60.81h3.444V48.688zm-13.574 7.174c0 .783.079 1.498.216 2.145a4.02 4.02 0 0 0 .773 1.647c.375.453.864.805 1.478 1.055.614.25 1.387.375 2.331.375.739 0 1.364-.057 1.875-.182a9.92 9.92 0 0 0 1.387-.443l-.488-2.679a5.556 5.556 0 0 1-1.081.284 6.635 6.635 0 0 1-1.148.102c-.773 0-1.284-.215-1.535-.647-.25-.431-.386-1.01-.386-1.725v-4.268h4.138v-2.861h-4.138v-3.576l-3.445.556V55.84l.023.023zm-9.243-7.435c-.398.034-.762.09-1.125.136-.353.057-.683.113-.978.181-.296.069-.546.137-.751.193l.444 2.77c.409-.159.909-.272 1.478-.352.568-.08 1.148-.124 1.728-.124.875 0 1.489.181 1.842.533.352.352.534.817.534 1.408v.318a5.475 5.475 0 0 0-.841-.148 12.232 12.232 0 0 0-1.194-.057c-.659 0-1.296.068-1.921.193-.614.136-1.16.34-1.638.636a3.272 3.272 0 0 0-1.148 1.18c-.284.489-.432 1.09-.432 1.794s.125 1.362.364 1.873c.25.51.603.92 1.057 1.237a4.589 4.589 0 0 0 1.649.681 10.27 10.27 0 0 0 2.137.205c1.251 0 2.308-.068 3.183-.216a63.168 63.168 0 0 0 2.058-.375v-7.151c0-.75-.079-1.442-.25-2.055a3.647 3.647 0 0 0-.864-1.566c-.409-.432-.955-.76-1.626-.988-.682-.227-1.523-.34-2.535-.34-.398 0-.796.022-1.194.056m-.022 9.683c-.364-.204-.546-.579-.546-1.112 0-.273.057-.511.182-.693.125-.181.295-.329.511-.442a2.42 2.42 0 0 1 .751-.216c.284-.034.591-.057.909-.057.228 0 .489.012.762.046s.489.056.625.09v2.6a5.297 5.297 0 0 1-.739.068c-.307.012-.636.023-.966.023-.625 0-1.126-.102-1.489-.307zm-4.537-9.206a3.674 3.674 0 0 0-.67-.193 9.423 9.423 0 0 0-.785-.136 18.337 18.337 0 0 0-.784-.09 8.023 8.023 0 0 0-.671-.035c-1.035 0-1.967.09-2.808.284-.841.193-1.569.397-2.183.613v11.476h3.445v-9.263c.148-.045.375-.09.682-.124.296-.035.557-.057.773-.057.478 0 .921.045 1.342.125.42.08.773.17 1.091.238l.58-2.838h-.012zm-18.19 4.632c.046-.296.125-.58.216-.863.103-.284.239-.534.432-.75.182-.215.41-.385.694-.522.273-.136.614-.193.989-.193s.739.069 1 .205c.273.136.489.318.671.533.171.216.307.466.398.738.08.273.136.556.148.852h-4.548zm-3.149 3.802a5.22 5.22 0 0 0 1.182 1.998c.535.568 1.206 1 2.013 1.329.807.329 1.762.488 2.853.488.432 0 .864-.023 1.296-.069.432-.045.842-.102 1.217-.17a9.785 9.785 0 0 0 1.023-.238c.307-.091.557-.182.739-.273l-.466-2.792c-.387.17-.887.306-1.489.431-.603.114-1.228.17-1.854.17-.989 0-1.773-.204-2.353-.624-.58-.42-.921-.976-.989-1.68h7.799c.011-.181.034-.397.046-.636.011-.238.022-.454.022-.658 0-2.043-.5-3.599-1.5-4.643-1.001-1.056-2.365-1.578-4.093-1.578-.739 0-1.455.136-2.16.42a5.492 5.492 0 0 0-1.865 1.226c-.534.534-.977 1.215-1.307 2.02-.33.807-.5 1.749-.5 2.827 0 .897.125 1.726.375 2.486m-2.649-5.21c-.284-.783-.694-1.453-1.239-1.998-.535-.545-1.205-.965-1.99-1.271-.784-.295-1.683-.454-2.683-.454-.42 0-.853.022-1.307.056-.455.034-.898.091-1.342.148a20.84 20.84 0 0 0-1.262.216c-.398.09-.75.17-1.057.26v15.973h3.445V60.55c.386.17.784.295 1.205.398.409.09.864.136 1.341.136.864 0 1.626-.16 2.285-.466a4.532 4.532 0 0 0 1.66-1.294 5.739 5.739 0 0 0 1.012-1.986 9.02 9.02 0 0 0 .352-2.554c0-.931-.147-1.84-.432-2.634m-5.525 6.016a4.07 4.07 0 0 1-1.046-.136c-.352-.09-.625-.204-.841-.352V51.48c.17-.034.386-.056.648-.08.261-.022.546-.033.853-.033.943 0 1.648.318 2.126.953.477.636.716 1.487.716 2.543 0 2.202-.819 3.292-2.444 3.292m-8.493-8.934a7.65 7.65 0 0 0-1.705-2.622 7.103 7.103 0 0 0-2.535-1.59c-.967-.351-2.001-.533-3.093-.533-1.091 0-2.069.182-3.035.534a7.103 7.103 0 0 0-2.535 1.589c-.728.704-1.308 1.578-1.74 2.622-.432 1.045-.648 2.237-.648 3.61 0 1.374.205 2.566.625 3.61.41 1.033.99 1.907 1.706 2.6a7.075 7.075 0 0 0 2.535 1.577c.966.352 2 .534 3.092.534a9.36 9.36 0 0 0 3.15-.534 6.748 6.748 0 0 0 2.523-1.578c.705-.703 1.262-1.566 1.671-2.6.41-1.032.614-2.235.614-3.609 0-1.373-.204-2.565-.625-3.61zm-11.3 1.499c.193-.636.466-1.18.83-1.635a3.76 3.76 0 0 1 1.33-1.056c.523-.25 1.125-.374 1.796-.374.67 0 1.262.125 1.785.363.534.25.977.59 1.341 1.044.364.454.637 1 .83 1.635.193.636.284 1.35.284 2.134 0 .783-.09 1.487-.284 2.123-.193.636-.466 1.17-.83 1.623a3.557 3.557 0 0 1-1.341 1.044c-.535.25-1.126.364-1.785.364-.66 0-1.273-.125-1.797-.364a3.73 3.73 0 0 1-1.33-1.044c-.363-.454-.636-.999-.83-1.623-.193-.636-.284-1.34-.284-2.123 0-.783.103-1.476.284-2.111z"
            fill="#40BDA6" />
        <path
            d="M299 33.612V.76h-7.356v19.39a245.748 245.748 0 0 0-3.66-5.336 160.62 160.62 0 0 0-3.923-5.358 139.613 139.613 0 0 0-3.865-4.859A55.655 55.655 0 0 0 276.728.76h-6.025v32.852h7.31V12.09a114.709 114.709 0 0 1 7.879 10.376 164.536 164.536 0 0 1 6.878 11.136h6.219l.011.011zM263.256 9.751c-.852-2.134-2.023-3.928-3.513-5.38a14.5 14.5 0 0 0-5.218-3.27c-1.989-.727-4.115-1.09-6.366-1.09-2.251 0-4.264.363-6.242 1.09a14.7 14.7 0 0 0-5.218 3.27c-1.501 1.452-2.695 3.246-3.581 5.38-.887 2.134-1.331 4.609-1.331 7.424 0 2.815.432 5.29 1.285 7.424.853 2.134 2.024 3.916 3.513 5.358 1.489 1.442 3.229 2.52 5.218 3.247 1.99.726 4.116 1.09 6.367 1.09 2.251 0 4.468-.364 6.48-1.09 2.012-.727 3.74-1.805 5.196-3.247 1.455-1.442 2.603-3.224 3.444-5.358.842-2.134 1.262-4.609 1.262-7.424 0-2.815-.432-5.29-1.284-7.424m-23.238 3.076c.398-1.305.966-2.429 1.705-3.36a7.84 7.84 0 0 1 2.729-2.18c1.08-.521 2.308-.783 3.706-.783 1.398 0 2.592.25 3.683.761a7.534 7.534 0 0 1 2.752 2.157c.739.93 1.307 2.054 1.705 3.36.398 1.317.591 2.77.591 4.382 0 1.612-.193 3.065-.591 4.359-.398 1.294-.966 2.406-1.705 3.337a7.535 7.535 0 0 1-2.752 2.157c-1.091.5-2.319.76-3.683.76-1.364 0-2.626-.25-3.706-.76a7.557 7.557 0 0 1-2.729-2.157c-.739-.93-1.307-2.043-1.705-3.337-.398-1.294-.591-2.747-.591-4.36 0-1.611.193-3.03.591-4.336zm-21.817 20.785h7.401V.76h-7.401v32.852zM186.21.76v6.3h9.925v26.552h7.401V7.061h9.925V.76H186.21zm-13.54 9.366c.318.817.693 1.77 1.114 2.849.42 1.078.875 2.259 1.341 3.564.478 1.294.955 2.657 1.467 4.087h-9.414a280.808 280.808 0 0 1 1.535-4.075c.5-1.294.955-2.475 1.364-3.553.41-1.079.762-2.021 1.081-2.85.318-.817.557-1.464.727-1.94.193.465.455 1.112.773 1.929m16.053 23.475a542.364 542.364 0 0 0-3.524-9.808 375.739 375.739 0 0 0-3.263-8.48 265.963 265.963 0 0 0-3.172-7.56 268.476 268.476 0 0 0-3.195-6.992h-7.014a165.681 165.681 0 0 0-3.218 6.992 268.359 268.359 0 0 0-3.137 7.56 342.358 342.358 0 0 0-3.263 8.48 622.854 622.854 0 0 0-3.525 9.808h7.686c.363-1.135.75-2.304 1.171-3.507.42-1.204.83-2.407 1.25-3.599h12.847c.421 1.192.841 2.395 1.262 3.599a127.65 127.65 0 0 1 1.182 3.519h7.936l-.023-.012zm-45.009 0h7.401V.76h-7.401v32.852zm-17.372 0a218.574 218.574 0 0 0 3.854-8.582 336.266 336.266 0 0 0 3.604-8.82 339.075 339.075 0 0 0 3.149-8.332A959.543 959.543 0 0 0 139.484.76h-7.879a490.438 490.438 0 0 1-2.057 6.153 462.378 462.378 0 0 1-2.308 6.561c-.785 2.18-1.535 4.269-2.274 6.255a104.541 104.541 0 0 1-2.024 5.154c-.659-1.453-1.341-3.167-2.057-5.165-.717-1.998-1.467-4.087-2.251-6.255a534.217 534.217 0 0 1-2.308-6.561A351.515 351.515 0 0 1 114.268.76h-8.163c.694 2.09 1.535 4.45 2.49 7.107a324.373 324.373 0 0 0 6.787 17.152 255.538 255.538 0 0 0 3.877 8.593h7.071zM92.235 10.137c.319.817.694 1.77 1.114 2.85.421 1.078.876 2.258 1.342 3.564.477 1.294.955 2.656 1.466 4.086h-9.402c.523-1.419 1.024-2.78 1.535-4.075.5-1.294.955-2.475 1.364-3.553.41-1.079.773-2.02 1.092-2.85.318-.817.557-1.464.728-1.94.193.465.454 1.112.772 1.93M108.3 33.623a642.851 642.851 0 0 0-3.524-9.808 375.724 375.724 0 0 0-3.263-8.48 266.042 266.042 0 0 0-3.172-7.56A268.157 268.157 0 0 0 95.146.783H88.12a164.797 164.797 0 0 0-3.218 6.993 267.48 267.48 0 0 0-3.138 7.56 344.512 344.512 0 0 0-3.262 8.48 614.221 614.221 0 0 0-3.525 9.808h7.686c.363-1.136.75-2.305 1.17-3.508.421-1.203.83-2.407 1.251-3.599h12.847c.42 1.192.841 2.396 1.262 3.599.42 1.203.818 2.373 1.182 3.52h7.936l-.012-.012z"
            fill="#fff" />
    </g>
    <defs>
        <clipPath id="a">
            <path fill="#fff" d="M0 0h299v65H0z" />
        </clipPath>
    </defs>
</svg>