<svg xmlns="http://www.w3.org/2000/svg" aria-hidden="true" style="position:absolute;width:0;height:0;overflow:hidden">
    <defs>
        <symbol id="icon-main-logo" viewBox="0 0 147 32">
            <path fill="#fff"
                d="M30.106 30.061V15.028C30.106 6.729 23.362 0 15.05 0S0 6.729 0 15.028s6.739 15.028 15.05 15.028l15.056.006z"
                style="fill:var(--color1, #fff)" />
            <path fill="#0a2e45"
                d="M7.561 20.51a9.218 9.218 0 0 1-1.797-5.488 9.236 9.236 0 0 1 2.961-6.79 9.27 9.27 0 0 1 5.759-2.47.253.253 0 0 0 .241-.252V3.996a.25.25 0 0 0-.263-.252 11.273 11.273 0 0 0-7.634 3.532 11.26 11.26 0 0 0-3.084 7.751c0 2.828 1.041 5.41 2.759 7.388a11.311 11.311 0 0 0 8.563 3.912c2.468 0 4.752-.788 6.61-2.129-.632-.363-1.119-.889-1.382-1.503a9.249 9.249 0 0 1-5.233 1.615 9.283 9.283 0 0 1-7.5-3.795zm18.107-1.531c.392-1.051.632-2.18.694-3.353a.25.25 0 0 0-.252-.263h-1.517a.253.253 0 0 0-.252.24 9.192 9.192 0 0 1-.688 2.962c.05 0 .095-.006.146-.006.683 0 1.321.157 1.869.419z"
                style="fill:var(--color2, #0a2e45)" />
            <path fill="#40bda6"
                d="M26.11 14.687h-1.517a.253.253 0 0 1-.252-.24 9.192 9.192 0 0 0-.907-3.459.261.261 0 0 1 .073-.313l1.226-.939a.256.256 0 0 1 .381.084 11.314 11.314 0 0 1 1.254 4.605.25.25 0 0 1-.252.263zM15.632 5.756a9.297 9.297 0 0 1 6.879 3.716.247.247 0 0 0 .325.067l1.326-.754a.248.248 0 0 0 .078-.363 11.313 11.313 0 0 0-8.591-4.689.25.25 0 0 0-.263.252v1.514c0 .134.106.246.241.251z"
                style="fill:var(--color3, #40bda6)" />
            <path fill="#40bda6"
                d="m13.338 18.442 5.289-4.024a.177.177 0 0 1 .263.056l2.429 4.476a.253.253 0 0 1-.224.374h-2.244a.344.344 0 0 1-.308-.184l-.856-1.582a1.267 1.267 0 0 0-1.757-.486l-2.597 1.369h.006zm-1.847.811L24.7 9.093l-11.233 6.354c.319-.609 3.006-5.203 3.006-5.203l-1.187-2.431a.251.251 0 0 0-.442 0L8.626 18.951a.25.25 0 0 0 .218.374h2.435a.326.326 0 0 0 .213-.073z"
                style="fill:var(--color3, #40bda6)" />
            <path fill="#0a2e45"
                d="M26.194 21.706c0-.386-.062-.738-.185-1.056s-.302-.598-.532-.827a2.489 2.489 0 0 0-.84-.542c-.33-.129-.7-.196-1.103-.196s-.761.056-1.086.173c-.33.112-.61.274-.851.481s-.425.453-.554.749c-.134.291-.196.615-.196.967s.067.693.196.967c.129.279.302.52.526.732.218.212.476.397.761.548.291.157.593.291.912.414.269.106.481.212.644.307s.285.196.375.302c.09.101.146.212.174.33s.039.246.039.397c0 .134-.017.263-.045.38a.71.71 0 0 1-.437.498c-.112.05-.252.073-.414.073-.201 0-.381-.022-.532-.073s-.28-.129-.381-.24a1.07 1.07 0 0 1-.229-.436 2.14 2.14 0 0 1-.067-.425h-1.718c.022.386.101.727.241 1.017a2.59 2.59 0 0 0 1.606 1.375c.353.112.711.168 1.075.168.403 0 .767-.05 1.091-.162.325-.106.599-.263.823-.458.229-.201.403-.447.526-.738s.185-.62.185-.995c0-.346-.05-.665-.146-.939-.095-.279-.246-.525-.442-.749s-.448-.419-.739-.592a6.246 6.246 0 0 0-1.035-.475 5.644 5.644 0 0 1-.521-.252c-.157-.084-.291-.179-.403-.274s-.196-.201-.257-.313c-.062-.112-.09-.24-.09-.38s.022-.263.056-.386c.039-.123.095-.224.174-.313s.174-.156.297-.207c.118-.05.257-.078.42-.078.174 0 .325.028.448.089a.895.895 0 0 1 .482.637c.039.151.056.313.056.492h1.707l-.011.011z"
                style="fill:var(--color2, #0a2e45)" />
            <path fill="#40bda6"
                d="M143.321 26.317c.023-.145.062-.285.106-.425.051-.14.118-.263.213-.369s.207-.19.342-.257.296-.095.487-.095.364.034.492.101a1.011 1.011 0 0 1 .521.626c.04.134.067.274.073.419h-2.234zm-1.55 1.872c.123.38.319.704.582.984s.593.492.991.654.867.24 1.405.24c.213 0 .426-.011.639-.034s.408-.05.599-.084c.185-.034.352-.073.504-.117s.274-.089.364-.134l-.229-1.375a3.64 3.64 0 0 1-.733.212 4.96 4.96 0 0 1-.918.084c-.487 0-.873-.101-1.158-.307a1.106 1.106 0 0 1-.487-.827h3.845c.006-.089.017-.196.023-.313s.011-.224.011-.324c0-1.006-.246-1.772-.738-2.286-.493-.52-1.164-.777-2.01-.777-.364 0-.716.067-1.063.207a2.54 2.54 0 0 0-.912.604c-.263.263-.481.598-.643.995s-.247.861-.247 1.392c0 .442.062.849.191 1.224zm-.577-4.136c-.09-.039-.201-.067-.33-.095s-.257-.05-.386-.067-.257-.034-.386-.045-.241-.017-.33-.017c-.51 0-.968.045-1.382.14s-.772.196-1.075.302v5.65h1.696v-4.56c.078-.022.19-.045.336-.061s.274-.028.381-.028c.235 0 .453.022.66.061s.381.084.532.117l.286-1.397zm-8.496-.235c-.196.017-.375.045-.548.067-.173.028-.336.056-.481.089s-.269.067-.37.095l.219 1.364c.207-.078.447-.134.728-.173s.565-.061.851-.061c.431 0 .733.089.906.263s.263.402.263.693v.157c-.106-.028-.247-.056-.415-.073s-.364-.028-.587-.028c-.325 0-.644.034-.946.095-.302.067-.571.168-.806.313s-.425.335-.565.581c-.14.24-.213.537-.213.883s.062.671.179.922c.123.251.296.453.52.609s.498.268.812.335c.313.067.666.101 1.052.101.615 0 1.136-.034 1.567-.106s.767-.134 1.013-.184v-3.521c0-.369-.039-.71-.123-1.012s-.224-.559-.425-.771c-.202-.212-.47-.374-.8-.486s-.75-.168-1.248-.168c-.196 0-.392.011-.588.028zm-.017 4.779c-.179-.101-.268-.285-.268-.548 0-.134.028-.252.089-.341s.146-.162.252-.218c.106-.05.229-.089.369-.106s.291-.028.448-.028c.112 0 .241.006.375.022s.24.028.308.045v1.28c-.09.017-.213.028-.364.034s-.308.011-.476.011c-.308 0-.554-.05-.734-.151zm-6.094-.38c.185.57.369 1.14.56 1.716h1.321c.134-.319.285-.699.447-1.134.162-.442.33-.917.504-1.436.168-.52.347-1.067.526-1.643.179-.581.352-1.162.52-1.755h-1.763l-.201.889c-.073.324-.151.654-.229.995s-.168.682-.257 1.028-.185.676-.274.995c-.101-.335-.196-.676-.286-1.023s-.179-.687-.263-1.028c-.084-.335-.162-.659-.24-.978-.073-.313-.146-.609-.202-.877h-1.225c-.062.274-.129.564-.213.877a92.71 92.71 0 0 1-.252.978c-.09.335-.179.682-.274 1.028s-.191.687-.291 1.023a48.444 48.444 0 0 1-.521-2.023c-.078-.341-.157-.671-.229-.995s-.14-.62-.201-.889h-1.786a81.691 81.691 0 0 0 1.047 3.398 38.04 38.04 0 0 0 .94 2.57h1.321c.191-.576.37-1.146.543-1.716.168-.57.33-1.14.481-1.716.151.576.319 1.146.498 1.716zm-9.247-.727c0 .386.034.738.106 1.056s.202.587.381.81c.185.224.425.397.728.52s.683.184 1.148.184c.364 0 .671-.028.924-.089s.476-.134.683-.218l-.241-1.319a2.801 2.801 0 0 1-.532.14 3.23 3.23 0 0 1-.565.05c-.381 0-.633-.106-.756-.319s-.191-.497-.191-.849v-2.101h2.038v-1.408h-2.038v-1.76l-1.695.274v5.019l.011.011zm-3.974-5.683c-.436.453-.655 1.067-.655 1.839v6.287h1.696v-4.56h2.093v-1.408h-2.093v-.296c0-.162.017-.307.05-.442s.09-.251.168-.352c.079-.101.191-.179.33-.235s.314-.084.515-.084c.151 0 .319.017.493.05s.341.084.492.151l.33-1.352a3.846 3.846 0 0 0-.616-.184 3.578 3.578 0 0 0-.873-.095c-.857 0-1.5.229-1.937.682zm-3.895 6.37c-.207.307-.504.458-.89.458s-.688-.151-.895-.458c-.213-.307-.319-.721-.319-1.241s.106-.933.319-1.23c.213-.296.51-.447.895-.447s.683.151.89.447c.207.296.313.71.313 1.23s-.106.939-.313 1.241zm1.825-2.526c-.146-.386-.347-.715-.605-.989s-.565-.486-.929-.637c-.364-.151-.756-.229-1.186-.229s-.817.078-1.176.229c-.358.151-.671.363-.934.637s-.465.604-.616.989c-.145.386-.224.816-.224 1.28s.073.9.219 1.291c.145.391.347.721.605 1 .257.274.565.492.923.643s.762.229 1.198.229c.437 0 .851-.078 1.209-.229s.666-.363.924-.643c.257-.274.453-.609.593-1 .134-.391.201-.822.201-1.291s-.072-.894-.218-1.28zm-10.903 2.778a4.36 4.36 0 0 1-.868-.346l-.498 1.408a4.637 4.637 0 0 0 .951.386c.219.061.465.112.744.151s.593.061.94.061c1.036 0 1.814-.201 2.329-.609.515-.402.772-.972.772-1.71 0-.38-.051-.699-.146-.967-.101-.263-.246-.497-.448-.693s-.453-.369-.756-.514a12.61 12.61 0 0 0-1.069-.447 9.181 9.181 0 0 1-.537-.201 2.044 2.044 0 0 1-.431-.218c-.123-.078-.224-.168-.291-.268s-.1-.218-.1-.363c0-.24.095-.419.28-.537s.493-.173.912-.173c.381 0 .705.045.974.129.269.089.515.184.734.302l.509-1.397c-.252-.134-.571-.263-.957-.374s-.845-.168-1.377-.168c-.448 0-.851.056-1.203.162-.358.112-.66.268-.907.469-.252.207-.442.453-.582.743s-.201.62-.201.984c0 .363.062.671.19.928.129.251.297.469.498.648.207.179.437.324.694.442s.515.224.772.313c.593.196 1.007.38 1.248.553.241.168.364.386.364.643 0 .123-.017.229-.056.33s-.106.184-.207.257a1.21 1.21 0 0 1-.392.173 2.706 2.706 0 0 1-.621.061c-.498 0-.924-.05-1.265-.151zm-8.189.201a4.871 4.871 0 0 1-.884-.268l-.286 1.375c.134.061.381.134.733.229.353.089.795.134 1.327.134.811 0 1.438-.151 1.881-.453s.666-.749.666-1.336c0-.251-.028-.469-.084-.659s-.157-.358-.297-.514a2.129 2.129 0 0 0-.576-.43 6.921 6.921 0 0 0-.923-.408 4.283 4.283 0 0 1-.448-.19c-.118-.056-.213-.112-.28-.162s-.112-.101-.134-.151a.441.441 0 0 1-.034-.184c0-.296.263-.442.795-.442.291 0 .548.028.778.078s.442.112.644.184l.296-1.319a4.94 4.94 0 0 0-.795-.212 5.331 5.331 0 0 0-1.047-.095c-.728 0-1.299.162-1.718.486-.415.324-.627.766-.627 1.33 0 .285.045.531.123.738.084.207.202.38.353.525s.336.274.554.38c.218.106.459.207.722.307.341.129.593.246.761.346s.252.224.252.358c0 .173-.067.291-.195.352s-.347.089-.661.089-.593-.034-.895-.095zm-7.399 1.308h1.696v-4.611c.106-.017.229-.028.364-.039s.263-.017.386-.017c.391 0 .66.112.806.341s.218.615.218 1.157v3.169h1.696v-3.37a4.54 4.54 0 0 0-.123-1.112c-.084-.335-.224-.62-.42-.861s-.465-.43-.8-.564c-.336-.134-.761-.201-1.27-.201s-.98.034-1.433.106-.828.151-1.114.235v5.767h-.006zm-3.235-1.755c-.207.307-.504.458-.89.458s-.689-.151-.895-.458c-.213-.307-.319-.721-.319-1.241s.106-.933.319-1.23c.213-.296.509-.447.895-.447s.683.151.89.447c.207.296.314.71.314 1.23s-.106.939-.314 1.241zm1.824-2.526c-.145-.386-.347-.715-.604-.989s-.566-.486-.929-.637-.755-.229-1.186-.229c-.431 0-.817.078-1.175.229s-.672.363-.929.637a2.97 2.97 0 0 0-.616.989c-.146.386-.224.816-.224 1.28s.073.9.219 1.291c.145.391.347.721.604 1s.566.492.924.643c.358.151.761.229 1.198.229s.851-.078 1.209-.229c.358-.151.671-.363.924-.643.257-.274.453-.609.593-1 .134-.391.207-.822.207-1.291s-.072-.894-.218-1.28zm-7.001-4.147c-.201-.179-.437-.268-.711-.268s-.509.089-.711.268c-.201.179-.302.419-.302.732s.101.553.302.732c.202.179.437.268.711.268s.51-.089.711-.268c.201-.179.302-.419.302-.732s-.101-.553-.302-.732zm.14 2.459h-1.695v5.969h1.695v-5.969zm-6.683 3.532c0 .386.039.738.106 1.056.073.319.201.587.381.81.185.224.425.397.728.52s.683.184 1.148.184c.364 0 .671-.028.923-.089s.476-.134.683-.218l-.24-1.319a2.801 2.801 0 0 1-.532.14c-.19.034-.381.05-.565.05-.381 0-.632-.106-.756-.319s-.19-.497-.19-.849v-2.101h2.037v-1.408h-2.037v-1.76l-1.696.274v5.019l.011.011zm-4.55-3.66c-.196.017-.375.045-.554.067-.174.028-.336.056-.481.089s-.269.067-.37.095l.219 1.364c.201-.078.448-.134.728-.173s.565-.061.851-.061c.431 0 .733.089.907.263s.263.402.263.693v.157a2.701 2.701 0 0 0-.414-.073 5.947 5.947 0 0 0-.588-.028c-.324 0-.638.034-.946.095-.302.067-.571.168-.806.313s-.425.335-.565.581c-.14.24-.213.537-.213.883s.062.671.179.922c.123.251.297.453.52.609.229.157.498.268.812.335s.666.101 1.052.101c.616 0 1.136-.034 1.567-.106s.767-.134 1.013-.184v-3.521c0-.369-.039-.71-.123-1.012s-.224-.559-.425-.771-.47-.374-.8-.486c-.336-.112-.75-.168-1.248-.168-.196 0-.392.011-.588.028zm-.022 4.778c-.179-.101-.269-.285-.269-.548 0-.134.028-.252.09-.341s.145-.162.252-.218c.106-.05.229-.089.37-.106s.291-.028.448-.028c.112 0 .241.006.375.022s.241.028.308.045v1.28c-.09.017-.213.028-.364.034s-.313.011-.476.011c-.308 0-.554-.05-.733-.151zm-2.234-4.532c-.089-.039-.201-.067-.33-.095s-.257-.05-.386-.067-.257-.034-.386-.045-.241-.017-.33-.017c-.51 0-.968.045-1.382.14s-.772.196-1.075.302v5.65h1.696v-4.56a1.91 1.91 0 0 1 .336-.061c.146-.017.274-.028.381-.028.235 0 .453.022.661.061s.381.084.537.117l.286-1.397h-.006zm-8.955 2.28c.023-.145.062-.285.106-.425.051-.14.118-.263.213-.369.09-.106.202-.19.342-.257.134-.067.302-.095.487-.095s.364.034.492.101c.134.067.241.157.33.263a1.2 1.2 0 0 1 .196.363c.039.134.067.274.073.419h-2.239zm-1.55 1.872c.123.38.319.704.582.984s.594.492.991.654.867.24 1.405.24c.213 0 .425-.011.638-.034s.415-.05.599-.084c.185-.034.352-.073.504-.117s.274-.089.364-.134l-.229-1.375a3.763 3.763 0 0 1-.733.212 4.946 4.946 0 0 1-.913.084c-.487 0-.873-.101-1.158-.307s-.453-.481-.487-.827h3.84c.005-.089.017-.196.023-.313s.011-.224.011-.324c0-1.006-.246-1.772-.738-2.286-.493-.52-1.164-.777-2.015-.777-.364 0-.716.067-1.063.207s-.649.335-.918.604c-.263.263-.481.598-.643.995s-.246.861-.246 1.392c0 .442.062.849.185 1.224zm-1.31-2.548a2.652 2.652 0 0 0-.61-.984 2.755 2.755 0 0 0-.98-.626 3.743 3.743 0 0 0-1.321-.224c-.207 0-.42.011-.644.028s-.442.045-.66.073c-.213.028-.42.067-.621.106-.196.045-.369.084-.521.129v7.863h1.696v-2.247c.19.084.386.145.593.196.202.045.425.067.66.067.425 0 .8-.078 1.125-.229s.599-.363.817-.637c.219-.274.386-.598.498-.978s.173-.799.173-1.257a3.87 3.87 0 0 0-.213-1.297zm-2.726 2.945c-.173 0-.347-.022-.515-.067a1.312 1.312 0 0 1-.414-.173v-3.051a4.952 4.952 0 0 1 .739-.056c.465 0 .812.157 1.047.469s.352.732.352 1.252c0 1.084-.403 1.621-1.203 1.621zm-4.175-4.404a3.764 3.764 0 0 0-.84-1.291c-.358-.346-.772-.609-1.248-.782s-.985-.263-1.522-.263-1.019.089-1.494.263c-.476.173-.89.436-1.248.782s-.644.777-.856 1.291c-.213.514-.319 1.101-.319 1.777s.101 1.263.308 1.777c.202.509.487.939.84 1.28.358.346.772.604 1.248.777s.985.263 1.522.263 1.069-.089 1.55-.263c.481-.173.895-.43 1.243-.777s.621-.771.823-1.28c.202-.509.302-1.101.302-1.777s-.101-1.263-.308-1.777zm-5.563.738c.095-.313.229-.581.409-.805s.397-.397.655-.52c.257-.123.554-.184.884-.184s.621.061.879.179c.263.123.481.291.66.514s.313.492.409.805c.095.313.14.665.14 1.051s-.045.732-.14 1.045c-.095.313-.23.576-.409.799s-.397.397-.66.514c-.263.123-.554.179-.879.179s-.627-.061-.884-.179c-.257-.123-.476-.291-.655-.514s-.313-.492-.409-.799c-.095-.313-.14-.66-.14-1.045s.05-.727.14-1.039z"
                style="fill:var(--color3, #40bda6)" />
            <path fill="#fff"
                d="M147.2 16.548V.375h-3.621V9.92c-.56-.838-1.158-1.716-1.802-2.627a80.786 80.786 0 0 0-1.931-2.638c-.643-.849-1.281-1.643-1.903-2.392S136.751.888 136.236.374h-2.966v16.173h3.599V5.951a56.526 56.526 0 0 1 3.879 5.108 80.884 80.884 0 0 1 3.386 5.482h3.062l.005.006zM129.603 4.801c-.419-1.051-.996-1.934-1.729-2.649S126.285.9 125.305.543c-.979-.358-2.026-.536-3.134-.536s-2.099.179-3.073.536c-.974.358-1.83.894-2.569 1.609s-1.327 1.598-1.763 2.649c-.437 1.051-.655 2.269-.655 3.655s.213 2.604.633 3.655.996 1.928 1.729 2.638c.733.71 1.59 1.241 2.569 1.598s2.026.537 3.135.537 2.2-.179 3.19-.537c.991-.358 1.841-.889 2.558-1.598s1.281-1.587 1.695-2.638c.415-1.051.621-2.269.621-3.655s-.213-2.604-.632-3.655zm-11.434 1.514c.196-.643.476-1.196.839-1.654s.817-.816 1.344-1.073c.532-.257 1.136-.386 1.825-.386s1.276.123 1.813.374c.538.251.991.604 1.355 1.062s.643 1.012.839 1.654c.196.648.291 1.364.291 2.157s-.095 1.509-.291 2.146-.476 1.185-.839 1.643c-.364.458-.817.81-1.355 1.062-.537.246-1.142.374-1.813.374s-1.293-.123-1.825-.374-.98-.604-1.344-1.062-.643-1.006-.839-1.643-.291-1.352-.291-2.146c0-.794.095-1.492.291-2.135zm-10.741 10.233h3.644V.375h-3.644v16.173zM91.673.374v3.102h4.886v13.072h3.644V3.476h4.886V.374H91.673zm-6.666 4.611.548 1.403c.207.531.431 1.112.66 1.755.235.637.47 1.308.722 2.012h-4.635c.257-.699.51-1.369.756-2.006s.47-1.218.671-1.749c.202-.531.375-.995.532-1.403.157-.402.274-.721.358-.956.095.229.224.548.381.95zm7.897 11.563c-.61-1.744-1.186-3.353-1.735-4.829s-1.086-2.873-1.606-4.175c-.526-1.308-1.047-2.548-1.562-3.722S86.96 1.503 86.428.379h-3.453c-.548 1.118-1.075 2.269-1.584 3.443s-1.024 2.414-1.544 3.722a167.539 167.539 0 0 0-1.606 4.175 303.362 303.362 0 0 0-1.735 4.829h3.784c.179-.559.369-1.135.576-1.727s.409-1.185.615-1.772h6.325c.207.587.414 1.179.621 1.772s.403 1.168.582 1.732h3.907l-.011-.006zm-22.158 0h3.644V.375h-3.644v16.173zm-8.553 0c.644-1.352 1.276-2.761 1.897-4.225s1.215-2.912 1.774-4.342c.56-1.431 1.08-2.8 1.55-4.102s.89-2.47 1.254-3.504h-3.879c-.308.939-.643 1.95-1.013 3.029s-.75 2.157-1.136 3.23a303.086 303.086 0 0 1-1.12 3.079 51.296 51.296 0 0 1-.996 2.537c-.324-.715-.66-1.559-1.013-2.543s-.722-2.012-1.108-3.079a261.047 261.047 0 0 1-1.136-3.23c-.37-1.079-.711-2.085-1.013-3.023h-4.019a160.004 160.004 0 0 0 4.568 11.943 125.91 125.91 0 0 0 1.909 4.231h3.481zM45.408 4.991l.548 1.403c.207.531.431 1.112.66 1.755.235.637.47 1.308.722 2.012h-4.629c.257-.699.504-1.369.756-2.006.246-.637.47-1.218.672-1.749s.381-.995.537-1.403c.157-.402.274-.721.358-.956.095.229.224.548.381.95zm7.908 11.562a317.895 317.895 0 0 0-1.735-4.829 185.243 185.243 0 0 0-1.606-4.175c-.526-1.308-1.047-2.548-1.562-3.722S47.372 1.508 46.84.384h-3.459c-.549 1.118-1.075 2.269-1.584 3.443s-1.024 2.414-1.545 3.722a167.539 167.539 0 0 0-1.606 4.175 303.362 303.362 0 0 0-1.735 4.829h3.784c.179-.559.369-1.134.577-1.727s.409-1.185.616-1.772h6.325c.207.587.414 1.179.621 1.772s.403 1.168.582 1.732h3.907l-.006-.006z"
                style="fill:var(--color1, #fff)" />
        </symbol>
        <symbol id="icon-triangel" viewBox="0 0 33 32">
            <path fill="#fff"
                d="M16.588 22.787h-.119v8.169h.119v-8.169zM6.204 12.628l-.056.105 7.012 3.746.056-.105-7.012-3.746z"
                style="fill:var(--color1, #fff)" />
            <path fill="#fff"
                d="M16.364 31.195c-6.811 0-12.351-5.537-12.351-12.343S9.554 6.509 16.364 6.509c6.811 0 12.351 5.537 12.351 12.343s-5.541 12.343-12.351 12.343zm0-24.567c-6.745 0-12.232 5.483-12.232 12.224s5.487 12.224 12.232 12.224 12.232-5.483 12.232-12.224c0-6.741-5.487-12.224-12.232-12.224z"
                style="fill:var(--color1, #fff)" />
            <path fill="#464647"
                d="M15.826 24.976v4.192H1.124a1.121 1.121 0 0 1-.972-1.682L7.678 14.46l2.788 1.575a6.552 6.552 0 0 0 5.36 8.94z"
                style="fill:var(--color2, #464647)" />
            <path fill="#fff"
                d="M32.008 29.168H17.236v-4.187a6.552 6.552 0 0 0 5.398-8.969l2.782-1.572 7.55 13.068a1.106 1.106 0 0 1-.958 1.659z"
                style="fill:var(--color1, #fff)" />
            <path fill="#40bda6"
                d="m24.711 13.032-2.838 1.604a6.56 6.56 0 0 0-10.651.02l-2.84-1.605L15.607.546a1.092 1.092 0 0 1 1.89 0l7.214 12.486z"
                style="fill:var(--color3, #40bda6)" />
            <path fill="#40bda6"
                d="M13.7 20.715a3.527 3.527 0 0 1-.686-2.095 3.526 3.526 0 0 1 1.131-2.594 3.537 3.537 0 0 1 2.198-.943.096.096 0 0 0 .091-.096v-.579a.097.097 0 0 0-.101-.097 4.306 4.306 0 0 0-2.913 1.349 4.3 4.3 0 0 0-1.176 2.96 4.295 4.295 0 0 0 1.495 3.266 4.303 4.303 0 0 0 2.822 1.049c.942 0 1.813-.302 2.523-.813a1.235 1.235 0 0 1-.527-.574 3.528 3.528 0 0 1-1.995.616 3.556 3.556 0 0 1-2.86-1.45zm6.908-.587a4.31 4.31 0 0 0 .266-1.28.096.096 0 0 0-.097-.101h-.579a.096.096 0 0 0-.096.091 3.506 3.506 0 0 1-.262 1.131l.055-.002c.261 0 .504.059.714.161z"
                style="fill:var(--color3, #40bda6)" />
            <path fill="#fff"
                d="M20.777 18.493h-.579a.096.096 0 0 1-.096-.091 3.533 3.533 0 0 0-.345-1.322.097.097 0 0 1 .028-.119l.467-.36a.097.097 0 0 1 .145.032c.276.531.445 1.126.478 1.757a.096.096 0 0 1-.097.101zm-3.997-3.411a3.547 3.547 0 0 1 2.625 1.419.095.095 0 0 0 .125.026l.507-.287a.097.097 0 0 0 .031-.14 4.316 4.316 0 0 0-3.278-1.791.096.096 0 0 0-.101.097v.579c0 .051.04.093.091.096z"
                style="fill:var(--color1, #fff)" />
            <path fill="#fff"
                d="m15.904 19.927.277-.212 1.741-1.324a.067.067 0 0 1 .1.021l.926 1.71a.096.096 0 0 1-.085.142h-.856a.133.133 0 0 1-.117-.07l-.326-.604a.482.482 0 0 0-.67-.186l-.991.522zm-.706.31 5.04-3.88-4.287 2.426c.123-.232 1.146-1.987 1.146-1.987l-.453-.927a.097.097 0 0 0-.169-.001l-2.372 4.253a.096.096 0 0 0 .084.143h.93a.132.132 0 0 0 .081-.027z"
                style="fill:var(--color1, #fff)" />
            <path fill="#40bda6"
                d="M20.808 21.174c0-.147-.024-.281-.071-.403a.895.895 0 0 0-.523-.521 1.144 1.144 0 0 0-.421-.075c-.156 0-.289.022-.415.066s-.233.105-.325.183c-.091.079-.162.174-.212.286s-.076.235-.076.37a.877.877 0 0 0 .275.65c.084.081.181.151.291.21s.227.112.348.158c.102.041.184.08.246.117s.109.075.142.114c.033.039.055.081.066.125a.63.63 0 0 1-.002.295.295.295 0 0 1-.059.114c-.027.032-.063.057-.107.076s-.097.028-.159.028c-.077 0-.144-.009-.202-.028a.345.345 0 0 1-.234-.257.886.886 0 0 1-.026-.162h-.655c.009.147.039.277.093.388.064.134.149.244.255.331s.225.152.359.194c.134.042.271.063.411.063.154 0 .293-.02.416-.061s.228-.099.314-.175c.087-.076.153-.17.2-.281s.07-.238.07-.38c0-.134-.018-.253-.055-.359s-.094-.201-.169-.286c-.075-.085-.17-.16-.282-.227s-.245-.128-.396-.182c-.073-.031-.139-.063-.199-.095s-.111-.067-.153-.104c-.042-.037-.075-.077-.098-.12s-.035-.091-.035-.144c0-.053.007-.101.022-.147s.037-.085.067-.119c.03-.033.067-.06.112-.079s.099-.029.161-.029c.067 0 .123.011.171.035s.087.055.117.095c.03.041.053.089.067.147s.021.12.021.188l.652-.001z"
                style="fill:var(--color3, #40bda6)" />
            <path fill="#0a2e45"
                d="M26.802 27.288c0 .05.004.094.013.132s.023.072.044.099.05.048.085.062a.373.373 0 0 0 .134.021c.044 0 .082-.005.115-.014s.058-.018.079-.026l-.029-.137a.371.371 0 0 1-.142.028c-.046 0-.078-.013-.097-.039s-.029-.069-.029-.129v-.305h.266v-.144h-.266v-.226l-.173.029v.648l-.001-.001zm-.112-.441-.035-.01a.34.34 0 0 0-.044-.008l-.046-.006c-.016-.002-.029-.002-.04-.002-.061 0-.117.005-.167.017s-.092.023-.125.035v.713h.173v-.6c.008-.003.024-.006.045-.01s.042-.006.061-.006c.033 0 .063.002.088.008s.045.01.06.015l.03-.146v.001zm-.861.543c-.032.044-.076.066-.134.066s-.102-.022-.134-.066a.3.3 0 0 1-.048-.179c0-.075.016-.134.048-.176.032-.044.076-.065.134-.065s.102.021.134.065c.032.044.048.103.048.176s-.016.135-.048.179zm.199-.34c-.018-.048-.042-.089-.074-.124s-.069-.061-.114-.079a.384.384 0 0 0-.29 0c-.044.018-.082.045-.114.079s-.057.076-.075.124c-.018.048-.026.102-.026.161s.009.113.026.162c.018.049.042.09.074.125s.069.061.113.08c.044.019.093.029.146.029s.103-.01.147-.029a.34.34 0 0 0 .187-.205.491.491 0 0 0 0-.323zm-.856 0a.333.333 0 0 0-.195-.201c-.047-.018-.1-.027-.159-.027s-.112.004-.163.013a1.379 1.379 0 0 0-.13.027v.989h.173v-.29a.37.37 0 0 0 .17.042.305.305 0 0 0 .309-.232.523.523 0 0 0-.004-.319zm-.195.34c-.029.043-.075.064-.138.064a.268.268 0 0 1-.142-.043v-.428c.017-.005.035-.008.053-.009l.051-.002c.078 0 .134.021.168.064s.052.103.052.18c0 .073-.014.13-.044.173zm-.573-.542-.035-.01a.34.34 0 0 0-.044-.008l-.046-.006c-.016-.002-.029-.002-.04-.002-.061 0-.117.005-.167.017s-.092.023-.125.035v.713h.173v-.6c.008-.003.024-.006.045-.01s.042-.006.061-.006c.033 0 .063.002.088.008s.045.01.06.015l.03-.146v.001zm-.69-.308c-.021-.019-.046-.029-.075-.029s-.055.009-.076.029c-.021.019-.032.045-.032.079s.011.058.032.078c.021.019.047.029.076.029s.054-.01.075-.029c.021-.019.032-.045.032-.078s-.011-.06-.032-.079zm.013.298h-.173v.748h.173v-.748zm-.704.132c.029.073.058.153.089.237h-.326c.03-.085.06-.163.088-.236s.053-.134.075-.185l.075.183zm.414.616a10.745 10.745 0 0 0-.206-.548c-.032-.08-.064-.156-.095-.229s-.064-.144-.097-.215h-.172a6.067 6.067 0 0 0-.192.444c-.032.08-.064.165-.098.255s-.069.187-.106.293h.187l.041-.115.041-.118h.419c.013.04.027.079.042.117s.028.077.042.116h.194z"
                style="fill:var(--color4, #0a2e45)" />
            <path fill="#fff"
                d="M22.075 9.748c-.035-.01-.078-.018-.129-.027s-.104-.013-.161-.013c-.057 0-.11.009-.156.027s-.085.044-.117.076-.056.072-.073.117-.025.096-.025.15c0 .058.008.11.024.154s.038.081.066.111.062.052.101.067a.368.368 0 0 0 .296-.016v.029c0 .056-.015.099-.044.128s-.079.043-.149.043a.524.524 0 0 1-.223-.041l-.032.147a.836.836 0 0 0 .252.041c.125 0 .218-.027.279-.083s.091-.143.091-.262v-.648h.001zm-.432.167c.033-.042.082-.062.144-.062.027 0 .051.001.069.004l.046.008v.388c-.016.011-.035.02-.06.027s-.05.011-.078.011c-.051 0-.092-.017-.124-.051s-.048-.088-.048-.161c0-.068.017-.122.05-.164zm-1.025.558h.173v-.604l.053-.007a.553.553 0 0 1 .069-.004c.03 0 .055.004.075.012s.037.021.049.039c.012.018.02.041.026.069s.008.062.008.103v.393h.173v-.421c0-.051-.005-.097-.015-.14s-.027-.079-.051-.109c-.024-.03-.057-.054-.098-.07s-.092-.025-.153-.025a1.086 1.086 0 0 0-.308.04v.724zm-.233-1.046c-.021-.019-.046-.029-.075-.029s-.055.009-.076.029c-.021.019-.032.045-.032.079s.011.058.032.078c.021.019.047.029.076.029s.054-.01.075-.029c.021-.019.032-.045.032-.078s-.011-.06-.032-.079zm.013.297h-.173v.748h.173v-.748zm-.315.62c-.023-.003-.042-.007-.057-.012s-.026-.013-.035-.023c-.008-.01-.014-.022-.018-.036s-.005-.032-.005-.053v-.857l-.173.029v.862c0 .037.004.07.012.1s.022.054.042.073c.02.02.047.035.081.045s.076.016.128.017l.024-.143-.001-.001zm-.506-.982-.173.029v.359c-.02-.011-.044-.02-.072-.029s-.06-.013-.096-.013c-.054 0-.101.01-.142.028s-.076.045-.104.079c-.029.035-.05.076-.065.124a.54.54 0 0 0 .004.323.336.336 0 0 0 .195.201c.046.018.1.027.159.027a.948.948 0 0 0 .293-.042V9.36l.001.001zm-.453.56c.029-.043.075-.064.138-.064a.29.29 0 0 1 .142.043v.429l-.048.008a.478.478 0 0 1-.071.004c-.064 0-.114-.021-.15-.065s-.054-.103-.054-.179.014-.132.044-.175zm-1.017.551h.173v-.604l.053-.007a.553.553 0 0 1 .069-.004c.03 0 .055.004.075.012s.036.021.049.039c.012.018.02.041.026.069s.008.062.008.103v.393h.173v-.421c0-.051-.005-.097-.015-.14s-.027-.079-.051-.109c-.024-.03-.057-.054-.098-.07s-.092-.025-.153-.025a1.086 1.086 0 0 0-.308.04v.724zm-.65-.756a.862.862 0 0 0-.096.023l.021.14a.632.632 0 0 1 .192-.028c.03 0 .054.004.074.011s.035.018.047.032c.012.014.02.03.025.048s.007.037.007.057v.029c-.024-.006-.047-.009-.067-.012s-.041-.004-.06-.004c-.041 0-.081.004-.118.012s-.071.021-.1.04c-.029.018-.051.043-.068.072s-.025.066-.025.108c0 .043.007.082.022.113s.035.055.061.075c.026.019.058.033.095.042s.078.013.123.013a1.258 1.258 0 0 0 .304-.033v-.454c0-.044-.005-.084-.015-.121s-.027-.068-.05-.094-.055-.046-.094-.06a.43.43 0 0 0-.144-.021.82.82 0 0 0-.135.011zm.044.61c-.026-.016-.039-.044-.039-.085 0-.021.005-.038.014-.052s.022-.024.038-.032.033-.013.053-.016a.386.386 0 0 1 .118 0l.042.008v.192a.627.627 0 0 1-.122.008.193.193 0 0 1-.104-.024zm-.568-.451h-.431v-.397h-.18v.992h.18v-.44h.431v.44h.18v-.992h-.18v.397zm-1.174-.515-.173.029v.359c-.02-.011-.044-.02-.072-.029s-.06-.013-.096-.013c-.054 0-.101.009-.142.028s-.076.045-.104.079c-.029.035-.05.076-.065.124a.54.54 0 0 0 .004.323.333.333 0 0 0 .195.201c.047.018.1.027.159.027a.948.948 0 0 0 .294-.042V9.359l.001.001zm-.454.56c.029-.043.075-.064.138-.064.029 0 .056.005.081.014s.045.019.061.029v.429l-.048.008a.478.478 0 0 1-.071.004c-.064 0-.114-.021-.15-.065s-.054-.103-.054-.179.014-.132.044-.175zm-1.017.551h.173v-.604l.053-.007a.543.543 0 0 1 .069-.004c.03 0 .055.004.075.012s.036.021.049.039c.012.018.02.04.026.069s.008.062.008.103v.394h.173v-.421c0-.051-.005-.097-.015-.14s-.027-.079-.051-.108c-.024-.03-.057-.054-.098-.07s-.092-.025-.153-.025a1.086 1.086 0 0 0-.308.04v.724zm-.22-.749h-.173v.605a.786.786 0 0 1-.12.01c-.058 0-.099-.017-.122-.051s-.035-.092-.035-.172v-.392h-.173v.419c0 .051.005.097.016.14s.028.079.053.11c.024.03.057.054.097.072s.091.026.151.026c.064 0 .123-.005.176-.014s.097-.018.13-.026v-.726h.001zm-1.02.552c-.032.044-.076.066-.134.066s-.102-.022-.134-.066-.048-.104-.048-.179.016-.134.048-.177.076-.065.134-.065c.057 0 .102.021.134.065s.048.103.048.177-.016.135-.048.179zm.2-.34c-.018-.048-.042-.089-.074-.124s-.069-.061-.114-.079a.384.384 0 0 0-.29 0c-.044.018-.082.045-.114.079s-.057.076-.075.124-.026.102-.026.161c0 .059.009.113.026.162s.042.09.074.125c.032.035.069.061.113.08s.092.029.146.029a.35.35 0 0 0 .261-.109.344.344 0 0 0 .073-.125.491.491 0 0 0 0-.323zm-.771-.202-.035-.009-.044-.008-.046-.006c-.016-.002-.029-.002-.04-.002-.061 0-.117.005-.167.017s-.092.023-.125.035v.713h.173v-.6c.008-.003.024-.006.045-.01s.042-.006.061-.006c.033 0 .063.002.088.008s.045.01.06.015l.03-.146v.001zm-.828-.1a.425.425 0 0 1 .107.044l.054-.147a.487.487 0 0 0-.099-.042c-.026-.008-.057-.014-.092-.021s-.076-.01-.122-.01a.496.496 0 0 0-.344.136c-.044.044-.079.098-.104.162s-.038.137-.038.221c0 .084.011.156.035.221s.055.118.097.162c.042.044.092.078.151.1s.125.035.196.035a1.123 1.123 0 0 0 .331-.049v-.476h-.18v.357a.64.64 0 0 1-.136.014c-.051 0-.095-.009-.132-.026s-.069-.042-.094-.074c-.025-.032-.044-.069-.057-.114s-.019-.093-.019-.147c0-.113.027-.2.081-.264s.132-.095.234-.095c.047 0 .091.006.134.018zM10.948 27.138c.003-.022.008-.044.016-.064s.018-.039.032-.056a.157.157 0 0 1 .121-.054c.026 0 .048.005.067.014.018.009.035.021.047.037s.023.035.029.056c.007.021.01.044.01.068h-.322zm-.157.232a.324.324 0 0 0 .19.205c.049.02.106.029.172.029a.634.634 0 0 0 .241-.044l-.023-.142a.492.492 0 0 1-.197.035c-.072 0-.127-.017-.164-.049s-.059-.079-.064-.14h.494l.002-.032.001-.032c0-.127-.029-.222-.087-.286s-.138-.096-.241-.096a.34.34 0 0 0-.241.1.36.36 0 0 0-.078.124.458.458 0 0 0-.029.173c0 .056.008.108.023.155zm-.819.215h.173v-.604l.053-.007a.553.553 0 0 1 .069-.004c.029 0 .055.004.075.012s.036.021.049.039c.012.018.02.041.026.069s.008.062.008.103v.394h.173v-.421c0-.051-.005-.097-.015-.14s-.027-.079-.051-.108c-.024-.03-.057-.054-.098-.07s-.092-.025-.153-.025a1.086 1.086 0 0 0-.308.04v.724zm-.651-.755a.862.862 0 0 0-.096.023l.021.14a.632.632 0 0 1 .192-.028c.029 0 .054.004.074.011s.035.018.047.032c.012.014.02.03.025.048s.007.037.007.057v.029a.477.477 0 0 0-.127-.016c-.041 0-.081.004-.118.012s-.071.021-.1.04c-.029.018-.051.043-.068.072s-.025.066-.025.109.007.082.022.113a.213.213 0 0 0 .156.117.58.58 0 0 0 .123.013 1.258 1.258 0 0 0 .304-.033v-.454c0-.044-.005-.084-.015-.121s-.027-.068-.05-.094c-.023-.026-.055-.046-.094-.06s-.087-.021-.144-.021a.83.83 0 0 0-.135.011zm.045.61c-.026-.016-.039-.044-.039-.085 0-.021.005-.038.014-.052s.022-.024.038-.032.033-.013.053-.016a.386.386 0 0 1 .118 0l.042.008v.192a.627.627 0 0 1-.122.008.193.193 0 0 1-.104-.024zm-.299.016c-.023-.003-.042-.007-.057-.012s-.026-.013-.035-.023c-.009-.009-.014-.022-.018-.036s-.005-.032-.005-.053v-.857l-.173.029v.862c0 .037.004.07.012.1s.022.054.042.073c.02.02.047.035.081.045s.076.016.128.017l.024-.143-.001-.001zm-.778-.709c.03.005.056.014.078.026s.039.03.051.051a.169.169 0 0 1 .018.082c0 .068-.023.114-.07.138s-.113.036-.2.036h-.087v-.337c.03-.003.067-.004.113-.004.035 0 .067.002.097.008zm-.251-.159c-.051.004-.098.01-.14.019v.977h.18v-.349h.09c.073 0 .137-.006.193-.018s.104-.032.143-.058c.039-.026.069-.06.089-.101s.031-.091.031-.15c0-.112-.038-.194-.115-.246s-.187-.079-.332-.079c-.043 0-.09.002-.141.005zm-.677.667h.385v-.159h-.385v.159zm-.327.133c-.032.044-.076.066-.134.066s-.102-.022-.134-.066a.3.3 0 0 1-.048-.179.29.29 0 0 1 .048-.177c.032-.043.076-.065.134-.065s.102.021.134.065c.032.044.048.103.048.177s-.016.135-.048.179zm.2-.34c-.018-.048-.042-.089-.074-.124s-.069-.061-.114-.079a.384.384 0 0 0-.29 0c-.044.018-.082.045-.114.079s-.057.076-.075.124-.026.102-.026.161c0 .059.009.113.026.162s.042.09.074.125c.032.035.069.061.113.08s.092.029.146.029a.35.35 0 0 0 .261-.109c.032-.035.056-.076.073-.125a.491.491 0 0 0 0-.323zm-1.241.239c0 .049.004.094.013.132s.023.072.044.099c.021.027.05.048.085.062s.081.021.134.021c.044 0 .082-.005.115-.014s.059-.018.079-.026l-.029-.137a.371.371 0 0 1-.142.028c-.046 0-.078-.013-.097-.039s-.029-.069-.029-.129v-.305h.266v-.144h-.266v-.226l-.173.029v.648l-.001-.001zm-.829.297h.173v-.604l.053-.007a.553.553 0 0 1 .069-.004c.029 0 .055.004.075.012s.037.021.049.039c.012.018.02.041.026.069s.008.062.008.103v.394h.173v-.421c0-.051-.005-.097-.015-.14s-.027-.079-.051-.108c-.024-.03-.057-.054-.098-.07s-.092-.025-.153-.025a1.086 1.086 0 0 0-.308.04v.724zm-.41 0h.18v-.992h-.18v.992zM9.671 25.168a.377.377 0 1 1-.001-.753.377.377 0 0 1 .001.753zm0-.664c-.159 0-.288.129-.288.287a.288.288 0 0 0 .576 0 .288.288 0 0 0-.288-.287zm0 .48a.193.193 0 1 1 0-.386.193.193 0 0 1 0 .386zm0-.296c-.057 0-.104.047-.104.104s.047.104.104.104c.057 0 .104-.047.104-.104s-.047-.104-.104-.104zM6.68 25.168a.377.377 0 1 1-.001-.753.377.377 0 0 1 .001.753zm0-.664c-.159 0-.288.129-.288.287a.288.288 0 0 0 .576 0 .288.288 0 0 0-.288-.287zm0 .48a.193.193 0 1 1 0-.386.193.193 0 0 1 0 .386zm0-.296c-.057 0-.104.047-.104.104s.047.104.104.104c.057 0 .104-.047.104-.104s-.047-.104-.104-.104z"
                style="fill:var(--color1, #fff)" />
            <path fill="#fff"
                d="M7.434 25.169a.377.377 0 1 1-.001-.753.377.377 0 0 1 .001.753zm0-.665a.288.288 0 1 0 0 .576.288.288 0 0 0 0-.576zm0 .48a.192.192 0 1 1 0-.385.192.192 0 1 1 0 .385zm0-.296a.104.104 0 1 0 0 .207.104.104 0 0 0 .104-.104.103.103 0 0 0-.104-.103z"
                style="fill:var(--color1, #fff)" />
            <path fill="#fff"
                d="M8.821 24.568H7.742l-.014-.016a.382.382 0 0 0-.295-.139h-.001a.376.376 0 0 0-.291.138l-.014.017h-.141l-.013-.016c-.066-.079-.157-.128-.258-.138s-.201.021-.277.085l-.073.061v-.138h-.119a.444.444 0 0 1-.443-.443v-.445c0-.244.199-.443.443-.443h.127v-.01a.08.08 0 0 1-.045-.075c0-.048.036-.084.084-.084.103.005.182.002.239-.001.089-.004.138-.005.169.025a.08.08 0 0 1 .023.059.087.087 0 0 1-.045.075v.009h1.419v-.01a.082.082 0 0 1-.046-.074c0-.046.038-.084.085-.084h.348a.085.085 0 0 1 .039.159v.009h.125c.244 0 .443.199.443.443v.445a.446.446 0 0 1-.391.44v.15zm-1.037-.09h.948v-.145h.044a.355.355 0 0 0 .347-.354v-.445a.355.355 0 0 0-.354-.354h-.215v-.168h-.251l.005.034v.134H6.71v-.17l-.055.002c-.05.002-.115.004-.197.002l.005.032v.134h-.217a.355.355 0 0 0-.354.354v.445c0 .195.159.354.354.354h.208v.048a.474.474 0 0 1 .574.098h.058a.468.468 0 0 1 .697 0zM6.299 24.837h-.175a.134.134 0 0 1-.094-.229.138.138 0 0 1 .095-.038h.239l-.03.064a.372.372 0 0 0-.035.158v.045l-.001-.001zm-.176-.177c-.012 0-.023.004-.03.012s-.013.019-.013.031c0 .024.02.044.044.044h.088a.441.441 0 0 1 .017-.088h-.106l.001.001z"
                style="fill:var(--color1, #fff)" />
            <path fill="#fff"
                d="M10.076 24.837h-.045v-.045a.36.36 0 0 0-.722 0v.045H7.814v-.045a.372.372 0 0 0-.035-.158l-.03-.064H9.2v-1.03a.13.13 0 0 1 .129-.129h.71c.057 0 .103.047.103.103s-.047.103-.103.103h-.008l.145.469.023.076.003.008h-.001l.001.004h.001l.002.008a.518.518 0 0 1 .024.156v.002c-.005.135-.002.231 0 .301.003.098.005.142-.024.172a.075.075 0 0 1-.057.023h-.073l.001-.001zm.042-.089h.022c.002-.019.001-.06 0-.103-.002-.071-.005-.168 0-.306a.428.428 0 0 0-.02-.128l-.002-.006-.001-.005-.029-.094-.048-.002c-.127-.004-.217-.001-.282 0-.095.003-.135.004-.163-.023a.072.072 0 0 1-.021-.053V23.8c0-.042.035-.077.077-.077h.319l-.042-.136-.018-.058h.129c.007 0 .014-.007.014-.014s-.006-.014-.014-.014h-.71a.039.039 0 0 0-.039.039v1.01a.45.45 0 0 1 .829.197h-.001zm-2.217 0h1.32a.43.43 0 0 1 .018-.088H7.885a.526.526 0 0 1 .017.088zm1.762-.733c.019.002.054 0 .092 0 .055-.002.127-.004.224-.002l-.061-.2h-.254v.203l-.001-.001z"
                style="fill:var(--color1, #fff)" />
            <path fill="#0a2e45"
                d="M23.366 25.67h.47v.111h-.47v-.111zm-.152-1.962a.038.038 0 0 1-.012-.028v-.418h.799v.418a.036.036 0 0 1-.012.028l-.12.117h-.535l-.12-.117zm.017-.697h.742c.016 0 .029.013.029.028v.115h-.799v-.115c0-.016.013-.028.029-.028zm1.754 1.351h.002a2.28 2.28 0 0 1 1.463.532h-2.503v-.283c.319-.163.677-.25 1.037-.25zm.791.64h.103v.778h-.103v-.778zm-.447 0h.337v.778h-.337v-.778zm-.214 0h.103v.778h-.103v-.778zm-.447 0h.337v.778h-.337v-.778zm-.213 0h.103v.778h-.103v-.778zm-.508 0h.397v.778h-.397v-.778zm-.581.238h.47v.32h-.47v-.32zm0-1.08h.47v.419h-.47v-.419zm.471.973h-.47v-.445h.47v.445zm0-1.081h-.47v-.12h.47v.12zm2.488 1.727h-.337v-.778h.337v.778zm.473 0h-.149v-.249c0-.03-.024-.054-.055-.054s-.055.024-.055.054v.249h-.103v-.778h.103v.298c0 .03.024.054.055.054s.055-.024.055-.054v-.25h.011a.073.073 0 0 0 .052-.024l.115-.123a.072.072 0 0 0-.005-.104l-.097-.086a2.628 2.628 0 0 0-.365-.273c-.026-.016-.06-.008-.076.017s-.009.058.017.075c.124.077.242.165.35.261l.071.063-.067.072-.072-.064a2.395 2.395 0 0 0-1.595-.611h-.002c-.359 0-.716.082-1.037.237v-.108c.322-.148.68-.226 1.037-.227h.002c.383 0 .768.091 1.113.264a.056.056 0 0 0 .074-.023.054.054 0 0 0-.024-.073 2.608 2.608 0 0 0-1.164-.276h-.003c-.356 0-.712.075-1.037.216v-.363l.12-.117a.143.143 0 0 0 .044-.104v-.641a.137.137 0 0 0-.139-.136h-.175v-.284c0-.03-.024-.054-.055-.054s-.055.024-.055.054v.284h-.193v-.647c0-.03-.024-.054-.055-.054s-.055.024-.055.054v.647h-.153a.138.138 0 0 0-.139.136v.641c0 .039.016.076.044.104l.12.117v1.879h-.109a.054.054 0 1 0 0 .108h3.651a.054.054 0 1 0 0-.108z"
                style="fill:var(--color4, #0a2e45)" />
            <path fill="#0a2e45"
                d="M23.343 23.477h.066a.054.054 0 1 0 0-.108h-.066a.054.054 0 1 0 0 .108zM23.8 23.477h.066a.054.054 0 1 0 0-.108H23.8a.054.054 0 1 0 0 .108zM25.35 23.429h.331v.09h-.331c-.025 0-.046-.02-.046-.045s.021-.045.046-.045zm-.421.048h.265c.002.083.071.15.156.15h.343a.099.099 0 0 0 .099-.097v-.053h.351a.175.175 0 0 0 .171-.129l.091-.35c.007-.027.001-.056-.017-.078s-.044-.035-.073-.035h-.119a.094.094 0 0 0-.072.033l-.158.189h-.576a.054.054 0 1 0 0 .108h.602a.055.055 0 0 0 .043-.02l.169-.203h.088l-.086.329a.064.064 0 0 1-.064.048h-.365a.098.098 0 0 0-.085-.048h-.343a.153.153 0 0 0-.113.048h-.308c-.044 0-.079-.035-.079-.077s.035-.077.079-.077h.228a.054.054 0 1 0 0-.108h-.228c-.104 0-.189.083-.189.185s.085.185.189.185v.001z"
                style="fill:var(--color4, #0a2e45)" />
            <path fill="#fff"
                d="M18.257 8.119h-3.4a.07.07 0 0 1-.069-.069V6.99a.07.07 0 0 1 .138 0v.991h.152v-1.85a.07.07 0 0 1 .069-.069h2.819a.07.07 0 0 1 .069.069v1.85h.152V5.359l-1.631-.625-1.631.625v1.013a.07.07 0 0 1-.138 0v-1.06c0-.029.018-.054.044-.064l1.7-.651a.069.069 0 0 1 .049 0l1.7.651c.027.01.044.036.044.064v2.739a.07.07 0 0 1-.069.069v.001zm-3.041-.138h2.681V6.2h-2.681v1.781z"
                style="fill:var(--color1, #fff)" />
            <path fill="#fff"
                d="M16.557 6.961a.07.07 0 0 1-.069-.069v-.206h-.314a.07.07 0 0 1 0-.138h.314v-.073a.07.07 0 0 1 .138 0v.073h.314a.07.07 0 0 1 0 .138h-.314v.206a.07.07 0 0 1-.069.069z"
                style="fill:var(--color1, #fff)" />
            <path fill="#fff"
                d="M17.402 8.119a.07.07 0 0 1-.069-.069v-.315H17.2v.315a.07.07 0 0 1-.138 0v-.315h-.249a.426.426 0 0 1-.187.089v.225a.07.07 0 0 1-.138 0v-.225a.443.443 0 0 1-.187-.089h-.249v.315a.07.07 0 0 1-.138 0v-.315h-.133v.315a.07.07 0 0 1-.138 0v-.315h-.495a.07.07 0 0 1 0-.138h1.027a.735.735 0 0 1-.113-.268l-.905.13c-.038.006-.073-.021-.078-.058s.021-.073.058-.078l.915-.132c.016-.231.202-.368.504-.368s.488.137.504.368l.915.132c.038.005.064.04.058.078s-.041.064-.078.058l-.905-.13a.702.702 0 0 1-.113.268h1.027a.07.07 0 0 1 0 .138h-.495v.315a.07.07 0 0 1-.069.069h.002zm-.846-1.158c-.168 0-.368.046-.368.263s.173.469.368.469.354-.243.366-.445v-.002l.001-.021c0-.218-.2-.263-.368-.263l.001-.001zm0 .348a.335.335 0 0 1-.136-.03c-.035-.016-.05-.057-.035-.091s.057-.05.091-.035a.185.185 0 0 0 .159 0c.035-.016.076 0 .091.035s0 .076-.035.091a.335.335 0 0 1-.136.03h-.001zm-1.7-.56a.07.07 0 0 1 0-.138.07.07 0 0 1 0 .138zm3.11-.55a.07.07 0 0 1-.069-.069v-.257h-2.681v.257a.07.07 0 0 1-.138 0v-.326a.07.07 0 0 1 .069-.069h2.819a.07.07 0 0 1 .069.069v.326a.07.07 0 0 1-.069.069zm0-.632h-.519a.07.07 0 0 1 0-.138h.519a.07.07 0 0 1 0 .138zm-.947 0h-.911a.07.07 0 0 1-.069-.069v-.32a.07.07 0 0 1 .069-.069h.911a.07.07 0 0 1 .069.069v.32a.07.07 0 0 1-.069.069zm-.386-.138h.317v-.182h-.317v.182zm-.456 0h.317v-.182h-.317v.182zm-.511.138h-.519a.07.07 0 0 1 0-.138h.519a.07.07 0 0 1 0 .138zM7.489 24.138c.072.002.142-.024.193-.075s.079-.118.076-.189c0-.122-.174-.393-.269-.5-.095.107-.269.378-.269.5-.002.07.025.139.076.189s.121.077.193.075zM5.848 13.306a.805.805 0 1 0 .001-1.61.805.805 0 0 0-.001 1.61zM16.558 32a.805.805 0 1 0 .001-1.61.805.805 0 0 0-.001 1.61zM26.791 13.485a.805.805 0 1 0 .001-1.61.805.805 0 0 0-.001 1.61z"
                style="fill:var(--color1, #fff)" />
            <path fill="#fff" d="m27.448 12.472-7.011 3.747.056.105 7.011-3.747-.056-.105z"
                style="fill:var(--color1, #fff)" />
        </symbol>
        <symbol id="icon-lamp" viewBox="0 0 26 32">
            <path fill="#40bda6"
                d="M25.223 7.741a.521.521 0 0 1-.525.517h-1.576c0-1.139-.942-2.064-2.102-2.064s-2.102.925-2.102 2.064h-2.102V5.677h-1.051c-.58 0-1.051-.463-1.051-1.034s.471-1.031 1.051-1.031h1.051V1.548c0-.284.234-.517.525-.517h7.357c.288 0 .525.233.525.517v6.193zM24.697 0H17.34c-.868 0-1.576.696-1.576 1.548v1.034c-1.16 0-2.102.925-2.102 2.064s.942 2.064 2.102 2.064v2.581h4.204V8.257c0-.568.471-1.031 1.051-1.031s1.051.463 1.051 1.031v1.034h2.627c.868 0 1.576-.696 1.576-1.548V1.547c0-.855-.708-1.548-1.576-1.548z"
                style="fill:var(--color1, #40bda6)" />
            <path fill="#40bda6"
                d="m16.629 19.987-2.442 1.962v1.793H11.56v-5.163h-1.051c-.58 0-1.051-.463-1.051-1.031s.471-1.034 1.051-1.034h1.051v-3.098h3.153v-1.031c0-.568.471-1.034 1.051-1.034s1.051.463 1.051 1.034v1.031h3.146c-.099 2.559-1.301 4.936-3.329 6.567zm-1.913 5.817H6.305c-.288 0-.525-.233-.525-.517s.234-.517.525-.517h8.408c.292 0 .525.233.525.517s-.234.517-.525.517zm-1.054 2.064H7.356c-.288 0-.525-.233-.525-.517s.234-.517.525-.517h6.306c.292 0 .525.233.525.517s-.234.517-.525.517zm-3.153 3.098c-1.269 0-2.329-.887-2.573-2.064h5.149c-.243 1.177-1.307 2.064-2.573 2.064zM4.39 19.987c-2.028-1.63-3.23-4.008-3.329-6.567h4.197v-1.031c0-.568.471-1.034 1.051-1.034s1.051.463 1.051 1.034v1.031h3.153v2.064c-1.16 0-2.102.925-2.102 2.064s.942 2.064 2.102 2.064v4.129H6.835v-1.793l-2.442-1.962H4.39zm5.761-15.858h.359V6.71c-1.16 0-2.102.925-2.102 2.064s.942 2.064 2.102 2.064v1.548H8.408c0-1.139-.942-2.064-2.102-2.064s-2.102.925-2.102 2.064H1.077c.356-4.614 4.29-8.258 9.074-8.258zm5.613 6.193c-1.16 0-2.102.925-2.102 2.064H11.56V9.805h-1.051c-.58 0-1.051-.463-1.051-1.034s.471-1.034 1.051-1.034h1.051V3.098h-1.41c-5.598 0-10.151 4.473-10.151 9.971 0 3.003 1.359 5.817 3.723 7.718l2.057 1.653v1.401a1.551 1.551 0 0 0-1.051 1.455c0 .715.497 1.311 1.166 1.49a1.5 1.5 0 0 0-.115.574c0 .683.455 1.257 1.08 1.461.218 1.79 1.769 3.184 3.649 3.184s3.432-1.394 3.649-3.184c.625-.207 1.08-.779 1.08-1.461 0-.204-.042-.399-.115-.578a1.552 1.552 0 0 0 1.166-1.49c0-.673-.442-1.238-1.051-1.452v-1.401l2.057-1.653c2.365-1.902 3.723-4.713 3.723-7.718v-.68h-3.153c0-1.139-.942-2.064-2.102-2.064z"
                style="fill:var(--color1, #40bda6)" />
        </symbol>
        <symbol id="icon-monitor" viewBox="0 0 32 32">
            <path fill="#40bda6"
                d="M3.941 2.732H2.629v1.325h1.312V2.732zM6.566 2.732H5.254v1.325h1.312V2.732zM9.195 2.732H7.883v1.325h1.312V2.732z"
                style="fill:var(--color1, #40bda6)" />
            <path fill="#40bda6"
                d="M31.526 16.662h-1.312V6.714H.657a.657.657 0 0 1-.656-.664V2.068A1.98 1.98 0 0 1 1.97.079h27.589c1.086 0 1.973.891 1.973 1.989v1.989H30.22V2.068a.663.663 0 0 0-.656-.664H1.971c-.361 0-.656.3-.656.664v3.317h29.557c.365 0 .656.296.656.664v10.613zM19.706 29.268H1.968a1.98 1.98 0 0 1-1.969-1.989V8.038h1.312v19.236c0 .365.296.664.656.664h17.738v1.329zM22.331 29.268a.657.657 0 0 1-.656-.664v-1.717l-2.434-2.459c-.737-.745-.851-1.863-.851-2.459V19.98c0-.365.292-.664.656-.664s.656.296.656.664v1.989c0 .668.17 1.223.466 1.519l2.629 2.653a.67.67 0 0 1 .19.47V28.6a.658.658 0 0 1-.656.664z"
                style="fill:var(--color1, #40bda6)" />
            <path fill="#40bda6"
                d="M30.214 29.268a.657.657 0 0 1-.656-.664v-1.989a.67.67 0 0 1 .069-.296l.587-1.187v-3.824c0-.948-.567-1.705-1.523-2.025-1.924-.648-4.525-1.304-4.549-1.312a.66.66 0 0 1-.498-.644v-4.642c0-.365-.296-.664-.656-.664s-.656.3-.656.664v8.624c0 .369-.296.664-.656.664s-.656-.296-.656-.664v-8.624c0-1.098.883-1.989 1.969-1.989s1.969.891 1.969 1.989v4.128c.859.227 2.669.717 4.148 1.211 1.495.502 2.418 1.758 2.418 3.281v3.982a.67.67 0 0 1-.069.296l-.587 1.187v1.835a.658.658 0 0 1-.656.664z"
                style="fill:var(--color1, #40bda6)" />
            <path fill="#40bda6"
                d="M30.87 31.921a.657.657 0 0 1-.656-.664v-1.989h-7.883v1.989c0 .369-.292.664-.656.664s-.656-.296-.656-.664v-2.653a.66.66 0 0 1 .656-.664h9.195c.365 0 .656.296.656.664v2.653a.658.658 0 0 1-.656.664zM28.241 14.673h-1.312c-.365 0-.656-.296-.656-.664s.296-.664.656-.664h.656V9.363H18.39v3.982h.656c.365 0 .656.296.656.664s-.296.664-.656.664h-1.312a.657.657 0 0 1-.656-.664V8.703c0-.365.296-.664.656-.664h10.507c.365 0 .656.296.656.664v5.306a.66.66 0 0 1-.656.664zM9.199 8.038h-6.57v1.325h6.57V8.038zM15.765 10.692H2.629v1.325h13.136v-1.325zM15.765 13.345H2.629v1.329h13.136v-1.329zM15.765 15.998H2.629v1.325h13.136v-1.325zM15.765 18.655H2.629v1.325h13.136v-1.325zM15.765 21.308H2.629v1.325h13.136v-1.325zM9.199 23.962h-6.57v1.325h6.57v-1.325z"
                style="fill:var(--color1, #40bda6)" />
        </symbol>
        <symbol id="icon-HandTools" viewBox="0 0 28 32">
            <path fill="#40bda6"
                d="M9.235 5.032c1.607 0 2.908 1.338 2.908 2.99s-1.301 2.99-2.908 2.99-2.908-1.338-2.908-2.99 1.301-2.987 2.908-2.99zm0 6.975c2.14 0 3.874-1.786 3.874-3.985s-1.734-3.985-3.874-3.985-3.874 1.786-3.874 3.985 1.734 3.985 3.874 3.985zM3.2 7.4h.609a.49.49 0 0 0 .475-.399 5.156 5.156 0 0 1 .75-1.858.51.51 0 0 0-.062-.63l-.43-.444.853-.877.43.444c.162.169.42.193.612.062a4.983 4.983 0 0 1 1.806-.771.493.493 0 0 0 .389-.489v-.626H9.84v.626c0 .237.162.44.389.489a4.924 4.924 0 0 1 1.806.771.475.475 0 0 0 .612-.062l.43-.444.853.877-.43.444a.51.51 0 0 0-.062.63c.365.564.619 1.194.75 1.858a.485.485 0 0 0 .475.399h.609v1.242h-.609a.489.489 0 0 0-.475.403 5.156 5.156 0 0 1-.75 1.858.51.51 0 0 0 .062.63l.43.444-.853.877-.43-.444a.475.475 0 0 0-.612-.062 4.983 4.983 0 0 1-1.806.771.493.493 0 0 0-.389.489v.626H8.632v-.626a.497.497 0 0 0-.389-.489 4.858 4.858 0 0 1-1.806-.771.475.475 0 0 0-.612.062l-.43.444-.853-.877.43-.444a.514.514 0 0 0 .062-.63 5.308 5.308 0 0 1-.75-1.858.485.485 0 0 0-.475-.399H3.2V7.4zm13.357 3.375v6.675h-1.875v-4.848l.272-.282a.51.51 0 0 0 0-.705l-.502-.516c.062-.107.117-.217.172-.33h1.93l.003.007zm-6.84 6.675v-2.226h.606a.492.492 0 0 0 .485-.499v-.729c.268-.076.53-.169.788-.282v3.733H9.721l-.003.003zM2.715 9.64h.709c.134.513.334 1.005.592 1.466l-.502.516a.51.51 0 0 0 0 .705l1.538 1.583a.478.478 0 0 0 .685 0l.502-.516c.447.265.926.468 1.425.609v.729c0 .275.217.499.485.499h.606v2.725c0 .275.217.499.485.499h2.842a.492.492 0 0 0 .485-.499v-4.218l.172.175a.478.478 0 0 0 .685 0l.296-.306v4.349c0 .275.217.499.485.499h2.842a.492.492 0 0 0 .485-.499v-7.677a.492.492 0 0 0-.485-.499H15.01c.014-.048.028-.093.038-.141h.709a.492.492 0 0 0 .485-.499V6.9a.497.497 0 0 0-.196-.399l7.26-4.311-.399 1.204c-.086.262.048.544.299.633s.53-.048.616-.31v-.003l.812-2.46a.501.501 0 0 0-.303-.633c-.021-.007-.041-.014-.062-.017L21.792.105a.484.484 0 0 0-.568.392.498.498 0 0 0 .382.585l1.215.248-7.886 4.683a6.091 6.091 0 0 0-.475-1.074l.502-.516a.51.51 0 0 0 0-.705l-1.538-1.583a.473.473 0 0 0-.685 0l-.502.516a5.979 5.979 0 0 0-1.425-.609v-.726a.492.492 0 0 0-.485-.499H8.152a.492.492 0 0 0-.485.499v.729a5.761 5.761 0 0 0-1.425.609l-.502-.516a.473.473 0 0 0-.685 0L3.517 3.721a.51.51 0 0 0 0 .705l.502.516a6.222 6.222 0 0 0-.592 1.466h-.709a.492.492 0 0 0-.485.499v2.24c0 .275.217.499.485.499zm21.901-4.209h1.875v12.022h-1.875V5.431zm-.967-.499v13.017c0 .275.217.499.485.499h2.842a.492.492 0 0 0 .485-.499V4.922a.492.492 0 0 0-.485-.499h-2.842a.492.492 0 0 0-.485.499v.01zm-2.123 12.529h-1.875V8.098h1.875v9.363zm-2.36-10.35a.492.492 0 0 0-.485.499v10.35c0 .275.217.499.485.499h2.842a.492.492 0 0 0 .485-.499V7.6a.492.492 0 0 0-.485-.499h-2.842v.01zm6.73 15.721-10.175 6.042c-.678.403-1.421.502-2.271.299l-4.067-.96c-1.29-.303-2.405-.096-3.534.674l-1.741-6.686L6.32 20.46a2.78 2.78 0 0 1 2.164-.606l7.071 1.979c.867.241 1.376 1.16 1.142 2.051-.237.891-1.129 1.418-1.996 1.173l-3.795-1.063a.485.485 0 0 0-.592.358.503.503 0 0 0 .337.606l3.795 1.063c1.28.358 2.619-.337 3.097-1.61l6.93-4.115a1.401 1.401 0 0 1 1.944.537 1.49 1.49 0 0 1-.52 1.999h-.003zM3.685 30.894l-2.416-9.28 1.566-.434 2.419 9.28-1.566.43-.003.003zM27.252 20.33c-.661-1.173-2.123-1.576-3.265-.901l-6.286 3.733c-.114-1.091-.867-2.003-1.896-2.292L8.7 18.881c-.021-.007-.041-.01-.062-.014a3.747 3.747 0 0 0-2.911.798l-1.892 1.493-.079-.299a.903.903 0 0 0-1.108-.657l-1.689.465a.936.936 0 0 0-.64 1.139l2.45 9.407a.898.898 0 0 0 1.105.657l1.689-.465a.936.936 0 0 0 .64-1.139l-.093-.358c1.005-.774 1.93-.994 3.052-.729l4.071.96c.337.083.685.124 1.032.124a3.79 3.79 0 0 0 1.941-.533l10.175-6.042c1.142-.681 1.535-2.181.874-3.358z"
                style="fill:var(--color1, #40bda6)" />
        </symbol>
        <symbol id="icon-globe" viewBox="0 0 31 32">
            <path fill="#40bda6"
                d="M24.671 27.296c-.112.089-.177.224-.185.366s.046.281.146.386l.532.536-3.088.37.366-3.123.32.324a.5.5 0 0 0 .663.042c3.158-2.483 4.97-6.227 4.97-10.263 0-7.167-5.768-13.001-12.858-13.001-1.982 0-3.933.463-5.694 1.342l.177-1.5a.79.79 0 0 0-.042-.366 14.224 14.224 0 0 1 5.56-1.118c7.985 0 14.481 6.57 14.481 14.643 0 4.422-1.947 8.567-5.344 11.362zM7.248 22.269c.802 1.126 1.631 2.29 2.818 3.065.883.574 1.862.856 2.969.856h.135c.567.131 1.141.216 1.723.254.278.466.505.956.694 1.48h-.054c-5.44 0-10.036-3.724-11.424-8.783a.65.65 0 0 0 .343.335c1.13.459 1.939 1.592 2.791 2.795zm-1.106-5.822h3.1c.019.474.066.941.139 1.403-1.049-.112-2.105-.054-3.042.077a9.562 9.562 0 0 1-.193-1.48zm2.355-6.808c.605.351 1.272.644 1.982.887a12.298 12.298 0 0 0-1.234 4.908H6.138A9.526 9.526 0 0 1 8.49 9.639zm2.46-.008c-.617-.2-1.199-.447-1.739-.74a9.378 9.378 0 0 1 4.218-2.228 12.221 12.221 0 0 0-2.479 2.965zm9.149-.004a12.381 12.381 0 0 0-2.479-2.965 9.349 9.349 0 0 1 4.218 2.228c-.536.289-1.122.536-1.739.74zm1.723 5.806a12.253 12.253 0 0 0-1.238-4.908 10.916 10.916 0 0 0 1.982-.887 9.546 9.546 0 0 1 2.352 5.791h-3.096v.004zm2.85 2.734a.628.628 0 0 0-.605-.428c-.663.015-1.504.069-2.398.22.081-.497.135-1.006.154-1.515h3.096a9.896 9.896 0 0 1-.247 1.723zm-2.098 4.071c-.019-.012-.042-.023-.062-.035.505-1.346.991-2.606 1.939-3.323.008-.008.015-.012.023-.019a9.52 9.52 0 0 1-1.905 3.377zm-2.93.019a.5.5 0 0 0-.709 0c-1.095 1.11-1.935 2.14-2.56 3.154a4.751 4.751 0 0 1-.335.023 2.405 2.405 0 0 1-.015-.189v-1.164c.089-1.068.424-1.982 1.01-2.73 1.442-1.835 4.121-2.398 6.061-2.552-.721.887-1.149 2.032-1.565 3.15-.856 2.294-1.673 4.468-4.781 4.85.605-1.222 1.534-2.452 2.892-3.825a.509.509 0 0 0 0-.717zm-4.626-5.814v4.114c-.27.008-.544.023-.813.042a5.577 5.577 0 0 0-1.253-1.396c-.756-.601-1.631-.972-2.541-1.18a11.328 11.328 0 0 1-.181-1.577l4.788-.004zm0-5.135v4.121h-4.792a11.28 11.28 0 0 1 1.199-4.619 16.13 16.13 0 0 0 3.593.497zm0-4.611v3.62a15.284 15.284 0 0 1-3.08-.405 11.113 11.113 0 0 1 3.08-3.212zm1.002 3.624v-3.62a11.175 11.175 0 0 1 3.08 3.212c-.987.239-2.028.374-3.08.405zm0 5.112v-4.121c1.23-.035 2.452-.2 3.593-.497a11.156 11.156 0 0 1 1.199 4.619h-4.792zm-1.002 7.048a7.577 7.577 0 0 0-.305-.891l.305-.012v.902zm1.353-1.905a8.237 8.237 0 0 0-.351-.015v-4.114h4.792a11.312 11.312 0 0 1-.212 1.735c-1.55.389-3.138 1.103-4.229 2.394zm-4.041-.57c1.099.871 1.758 2.232 1.97 4.056-.921-.96-2.105-1.843-3.67-2.757-.239-.139-.547-.058-.686.185s-.058.551.185.694c1.623.948 2.857 1.889 3.778 2.934-3.107.451-4.449-1.438-5.868-3.431-.69-.972-1.4-1.966-2.321-2.633 1.959-.366 4.75-.52 6.608.956zm9.681 4.634a.804.804 0 0 0-.536.675l-.123 1.064a11.68 11.68 0 0 1-4.75 1.5l-.012-.039c1.669-.15 2.961-.752 3.933-1.827.405-.447.725-.948.999-1.473a10.567 10.567 0 0 0 4.403-8.598c0-5.806-4.669-10.525-10.41-10.525S5.124 10.132 5.124 15.935c0 .725.073 1.446.22 2.155-.293.058-.567.12-.817.181a.633.633 0 0 0-.47.571v.12a12.043 12.043 0 0 1-.382-3.027c0-3.574 1.538-6.897 4.237-9.184l.293.293c.22.224.54.297.833.193s.497-.359.532-.671l.123-1.068a11.767 11.767 0 0 1 5.837-1.554c6.535 0 11.855 5.378 11.855 11.986 0 3.574-1.538 6.897-4.237 9.184l-.293-.293a.782.782 0 0 0-.829-.193zm-.933 4.815a14.178 14.178 0 0 1-3.906 1.026 14.323 14.323 0 0 0-.285-1.623 12.68 12.68 0 0 0 4.326-1.268l-.174 1.496a.851.851 0 0 0 .039.37zM1.053 15.934c0-4.422 1.947-8.563 5.344-11.362a.51.51 0 0 0 .039-.752l-.532-.536 3.088-.37-.366 3.123-.32-.324a.497.497 0 0 0-.663-.042c-3.158 2.483-4.966 6.223-4.966 10.263 0 7.171 5.768 13 12.858 13 .12 0 .239 0 .359-.004.127.513.224 1.053.293 1.631-.216.008-.436.015-.652.015-7.985 0-14.481-6.57-14.481-14.643zm29.964 0c0-4.183-1.612-8.116-4.534-11.073C23.561 1.908 19.67.277 15.537.277c-2.444 0-4.781.559-6.947 1.662l-3.208.386a.798.798 0 0 0-.663.54.804.804 0 0 0 .189.84l.436.44a15.682 15.682 0 0 0-5.293 11.79c0 4.183 1.612 8.116 4.534 11.073s6.813 4.588 10.949 4.588c.289 0 .574-.008.864-.023.093.096.22.154.359.154h.042a.495.495 0 0 0 .37-.216 15.052 15.052 0 0 0 5.309-1.577l3.212-.386c.305-.039.559-.243.663-.54s.031-.621-.189-.84l-.436-.44c3.37-2.98 5.29-7.244 5.29-11.786v-.008z"
                style="fill:var(--color1, #40bda6)" />
        </symbol>
        <symbol id="icon-house" viewBox="0 0 32 32">
            <path fill="none" stroke="#fff" stroke-linecap="round" stroke-linejoin="round" stroke-width="1.237"
                d="M28.746 31.363V13.98H3.249v17.383M.626 21.758v9.604h30.748V6.552L16 .653.626 6.552v9.604M19.464 18.388h-6.929M16 20.878v-3.776"
                style="stroke:var(--color1, #fff)" />
            <path fill="none" stroke="#fff" stroke-linecap="round" stroke-linejoin="round" stroke-width="1.237"
                d="M28.746 8.254h-4.695m-20.802 0h4.7m8.116-2.895v2.895m12.686 5.726v-2.955H3.248v2.955m20.393 13.909v3.479m-2.45 0v-3.479m-12.832 0v3.479m2.45 0v-3.479m5.191.875v2.604m.977-7.552a2.275 2.275 0 0 1-1.948 0m3.081 4.073h10.647m0-2.49-8.812-1.269m-6.044 3.759H3.249m0-2.49 8.807-1.269m-.109-15.876h8.24V5.359h-8.24v2.895zm4.048 12.624c-2.18 0-3.945.832-3.945 3.009s1.77 4.872 3.945 4.872 3.945-2.701 3.945-4.872-1.765-3.009-3.945-3.009z"
                style="stroke:var(--color1, #fff)" />
        </symbol>
    </defs>
</svg>