<svg aria-hidden="true" style="position: absolute; width: 0; height: 0; overflow: hidden;" version="1.1"
    xmlns="http://www.w3.org/2000/svg" xmlns:xlink="http://www.w3.org/1999/xlink">
    <defs>
        <symbol id="icon-LOGO" viewBox="0 0 147 32">
            <path fill="#fff" style="fill: var(--color1, #fff)"
                d="M30.106 30.061v-15.033c0-8.299-6.744-15.028-15.056-15.028s-15.050 6.729-15.050 15.028c0 8.299 6.739 15.028 15.050 15.028l15.056 0.006z">
            </path>
            <path fill="#0a2e45" style="fill: var(--color2, #0a2e45)"
                d="M7.561 20.51c-1.131-1.537-1.797-3.431-1.797-5.488 0-2.442 0.946-4.666 2.491-6.321 0.151-0.162 0.308-0.319 0.47-0.469 1.528-1.419 3.537-2.336 5.759-2.47 0.134-0.006 0.241-0.117 0.241-0.252v-1.514c0-0.145-0.123-0.263-0.263-0.252-2.771 0.145-5.272 1.28-7.164 3.063-0.162 0.151-0.319 0.307-0.47 0.469-1.909 2.023-3.084 4.75-3.084 7.751 0 2.828 1.041 5.41 2.759 7.388 0.358 0.414 0.75 0.805 1.164 1.162 1.987 1.71 4.573 2.75 7.399 2.75 2.468 0 4.752-0.788 6.61-2.129-0.632-0.363-1.119-0.889-1.382-1.503-1.489 1.017-3.291 1.615-5.233 1.615-2.172 0-4.164-0.743-5.748-1.984-0.66-0.52-1.254-1.129-1.752-1.811zM25.668 18.979c0.392-1.051 0.632-2.18 0.694-3.353 0.006-0.145-0.106-0.263-0.252-0.263h-1.517c-0.134 0-0.246 0.106-0.252 0.24-0.062 1.045-0.308 2.040-0.688 2.962 0.050 0 0.095-0.006 0.146-0.006 0.683 0 1.321 0.157 1.869 0.419z">
            </path>
            <path fill="#40bda6" style="fill: var(--color3, #40bda6)"
                d="M26.11 14.687h-1.517c-0.134 0-0.246-0.106-0.252-0.24-0.078-1.235-0.392-2.403-0.907-3.459-0.050-0.106-0.022-0.235 0.073-0.313l1.226-0.939c0.123-0.095 0.308-0.056 0.381 0.084 0.722 1.392 1.164 2.951 1.254 4.605 0.006 0.145-0.106 0.263-0.252 0.263zM15.632 5.756c2.815 0.173 5.289 1.593 6.879 3.716 0.078 0.101 0.218 0.134 0.325 0.067l1.326-0.754c0.129-0.073 0.168-0.246 0.078-0.363-1.948-2.699-5.054-4.504-8.591-4.689-0.146-0.006-0.263 0.106-0.263 0.252v1.514c0 0.134 0.106 0.246 0.241 0.251z">
            </path>
            <path fill="#40bda6" style="fill: var(--color3, #40bda6)"
                d="M13.338 18.442l5.289-4.024c0.084-0.067 0.213-0.039 0.263 0.056l2.429 4.476c0.090 0.168-0.028 0.374-0.224 0.374h-2.244c-0.129 0-0.246-0.067-0.308-0.184l-0.856-1.582c-0.341-0.632-1.142-0.849-1.757-0.486l-2.597 1.369h0.006zM11.491 19.253l13.209-10.16-11.233 6.354c0.319-0.609 3.006-5.203 3.006-5.203l-1.187-2.431c-0.095-0.173-0.347-0.179-0.442 0l-6.218 11.138c-0.095 0.168 0.028 0.374 0.218 0.374h2.435c0.078 0 0.151-0.022 0.213-0.073z">
            </path>
            <path fill="#0a2e45" style="fill: var(--color2, #0a2e45)"
                d="M26.194 21.706c0-0.386-0.062-0.738-0.185-1.056s-0.302-0.598-0.532-0.827c-0.229-0.229-0.509-0.408-0.84-0.542-0.33-0.129-0.7-0.196-1.103-0.196s-0.761 0.056-1.086 0.173c-0.33 0.112-0.61 0.274-0.851 0.481s-0.425 0.453-0.554 0.749c-0.134 0.291-0.196 0.615-0.196 0.967s0.067 0.693 0.196 0.967c0.129 0.279 0.302 0.52 0.526 0.732 0.218 0.212 0.476 0.397 0.761 0.548 0.291 0.157 0.593 0.291 0.912 0.414 0.269 0.106 0.481 0.212 0.644 0.307s0.285 0.196 0.375 0.302c0.090 0.101 0.146 0.212 0.174 0.33s0.039 0.246 0.039 0.397c0 0.134-0.017 0.263-0.045 0.38s-0.084 0.218-0.157 0.302c-0.073 0.084-0.162 0.151-0.28 0.196-0.112 0.050-0.252 0.073-0.414 0.073-0.201 0-0.381-0.022-0.532-0.073s-0.28-0.129-0.381-0.24c-0.101-0.112-0.179-0.257-0.229-0.436-0.034-0.123-0.056-0.263-0.067-0.425h-1.718c0.022 0.386 0.101 0.727 0.241 1.017 0.168 0.346 0.392 0.637 0.666 0.866s0.588 0.397 0.94 0.509c0.353 0.112 0.711 0.168 1.075 0.168 0.403 0 0.767-0.050 1.091-0.162 0.325-0.106 0.599-0.263 0.823-0.458 0.229-0.201 0.403-0.447 0.526-0.738s0.185-0.62 0.185-0.995c0-0.346-0.050-0.665-0.146-0.939-0.095-0.279-0.246-0.525-0.442-0.749s-0.448-0.419-0.739-0.592c-0.297-0.173-0.644-0.335-1.035-0.475-0.19-0.084-0.364-0.162-0.521-0.252-0.157-0.084-0.291-0.179-0.403-0.274s-0.196-0.201-0.257-0.313c-0.062-0.112-0.090-0.24-0.090-0.38s0.022-0.263 0.056-0.386c0.039-0.123 0.095-0.224 0.174-0.313s0.174-0.156 0.297-0.207c0.118-0.050 0.257-0.078 0.42-0.078 0.174 0 0.325 0.028 0.448 0.089s0.224 0.145 0.308 0.251c0.084 0.106 0.14 0.235 0.174 0.386 0.039 0.151 0.056 0.313 0.056 0.492h1.707l-0.011 0.011z">
            </path>
            <path fill="#40bda6" style="fill: var(--color3, #40bda6)"
                d="M143.321 26.317c0.023-0.145 0.062-0.285 0.106-0.425 0.051-0.14 0.118-0.263 0.213-0.369s0.207-0.19 0.342-0.257 0.296-0.095 0.487-0.095c0.191 0 0.364 0.034 0.492 0.101 0.134 0.067 0.241 0.156 0.33 0.263 0.084 0.106 0.151 0.229 0.191 0.363s0.067 0.274 0.073 0.419h-2.234zM141.771 28.189c0.123 0.38 0.319 0.704 0.582 0.984s0.593 0.492 0.991 0.654 0.867 0.24 1.405 0.24c0.213 0 0.426-0.011 0.639-0.034s0.408-0.050 0.599-0.084c0.185-0.034 0.352-0.073 0.504-0.117s0.274-0.089 0.364-0.134l-0.229-1.375c-0.191 0.084-0.431 0.151-0.733 0.212-0.297 0.056-0.605 0.084-0.918 0.084-0.487 0-0.873-0.101-1.158-0.307-0.291-0.207-0.453-0.481-0.487-0.827h3.845c0.006-0.089 0.017-0.196 0.023-0.313s0.011-0.224 0.011-0.324c0-1.006-0.246-1.772-0.738-2.286-0.493-0.52-1.164-0.777-2.010-0.777-0.364 0-0.716 0.067-1.063 0.207-0.347 0.134-0.649 0.335-0.912 0.604-0.263 0.263-0.481 0.598-0.643 0.995s-0.247 0.861-0.247 1.392c0 0.442 0.062 0.849 0.191 1.224zM141.194 24.053c-0.090-0.039-0.201-0.067-0.33-0.095s-0.257-0.050-0.386-0.067c-0.129-0.017-0.257-0.034-0.386-0.045s-0.241-0.017-0.33-0.017c-0.51 0-0.968 0.045-1.382 0.14s-0.772 0.196-1.075 0.302v5.65h1.696v-4.56c0.078-0.022 0.19-0.045 0.336-0.061s0.274-0.028 0.381-0.028c0.235 0 0.453 0.022 0.66 0.061s0.381 0.084 0.532 0.117l0.286-1.397zM132.698 23.818c-0.196 0.017-0.375 0.045-0.548 0.067-0.173 0.028-0.336 0.056-0.481 0.089s-0.269 0.067-0.37 0.095l0.219 1.364c0.207-0.078 0.447-0.134 0.728-0.173s0.565-0.061 0.851-0.061c0.431 0 0.733 0.089 0.906 0.263s0.263 0.402 0.263 0.693v0.157c-0.106-0.028-0.247-0.056-0.415-0.073s-0.364-0.028-0.587-0.028c-0.325 0-0.644 0.034-0.946 0.095-0.302 0.067-0.571 0.168-0.806 0.313s-0.425 0.335-0.565 0.581c-0.14 0.24-0.213 0.537-0.213 0.883s0.062 0.671 0.179 0.922c0.123 0.251 0.296 0.453 0.52 0.609s0.498 0.268 0.812 0.335c0.313 0.067 0.666 0.101 1.052 0.101 0.615 0 1.136-0.034 1.567-0.106s0.767-0.134 1.013-0.184v-3.521c0-0.369-0.039-0.71-0.123-1.012s-0.224-0.559-0.425-0.771c-0.202-0.212-0.47-0.374-0.8-0.486s-0.75-0.168-1.248-0.168c-0.196 0-0.392 0.011-0.588 0.028zM132.681 28.597c-0.179-0.101-0.268-0.285-0.268-0.548 0-0.134 0.028-0.252 0.089-0.341s0.146-0.162 0.252-0.218c0.106-0.050 0.229-0.089 0.369-0.106s0.291-0.028 0.448-0.028c0.112 0 0.241 0.006 0.375 0.022s0.24 0.028 0.308 0.045v1.28c-0.090 0.017-0.213 0.028-0.364 0.034s-0.308 0.011-0.476 0.011c-0.308 0-0.554-0.050-0.734-0.151zM126.587 28.217c0.185 0.57 0.369 1.14 0.56 1.716h1.321c0.134-0.319 0.285-0.699 0.447-1.134 0.162-0.442 0.33-0.917 0.504-1.436 0.168-0.52 0.347-1.067 0.526-1.643 0.179-0.581 0.352-1.162 0.52-1.755h-1.763c-0.062 0.274-0.129 0.57-0.201 0.889-0.073 0.324-0.151 0.654-0.229 0.995s-0.168 0.682-0.257 1.028-0.185 0.676-0.274 0.995c-0.101-0.335-0.196-0.676-0.286-1.023s-0.179-0.687-0.263-1.028c-0.084-0.335-0.162-0.659-0.24-0.978-0.073-0.313-0.146-0.609-0.202-0.877h-1.225c-0.062 0.274-0.129 0.564-0.213 0.877-0.079 0.313-0.162 0.637-0.252 0.978-0.090 0.335-0.179 0.682-0.274 1.028s-0.191 0.687-0.291 1.023c-0.090-0.319-0.179-0.648-0.269-0.995s-0.173-0.687-0.252-1.028c-0.078-0.341-0.157-0.671-0.229-0.995s-0.14-0.62-0.201-0.889h-1.786c0.168 0.592 0.342 1.174 0.521 1.755s0.353 1.129 0.526 1.643c0.168 0.52 0.336 0.995 0.498 1.436s0.308 0.816 0.442 1.134h1.321c0.191-0.576 0.37-1.146 0.543-1.716 0.168-0.57 0.33-1.14 0.481-1.716 0.151 0.576 0.319 1.146 0.498 1.716zM117.34 27.49c0 0.386 0.034 0.738 0.106 1.056s0.202 0.587 0.381 0.81c0.185 0.224 0.425 0.397 0.728 0.52s0.683 0.184 1.148 0.184c0.364 0 0.671-0.028 0.924-0.089s0.476-0.134 0.683-0.218l-0.241-1.319c-0.157 0.061-0.336 0.106-0.532 0.14-0.191 0.034-0.381 0.050-0.565 0.050-0.381 0-0.633-0.106-0.756-0.319s-0.191-0.497-0.191-0.849v-2.101h2.038v-1.408h-2.038v-1.76l-1.695 0.274v5.019l0.011 0.011zM113.366 21.807c-0.436 0.453-0.655 1.067-0.655 1.839v6.287h1.696v-4.56h2.093v-1.408h-2.093v-0.296c0-0.162 0.017-0.307 0.050-0.442s0.090-0.251 0.168-0.352c0.079-0.101 0.191-0.179 0.33-0.235s0.314-0.084 0.515-0.084c0.151 0 0.319 0.017 0.493 0.050s0.341 0.084 0.492 0.151l0.33-1.352c-0.146-0.061-0.347-0.123-0.616-0.184-0.263-0.067-0.56-0.095-0.873-0.095-0.857 0-1.5 0.229-1.937 0.682zM109.471 28.177c-0.207 0.307-0.504 0.458-0.89 0.458s-0.688-0.151-0.895-0.458c-0.213-0.307-0.319-0.721-0.319-1.241s0.106-0.933 0.319-1.23c0.213-0.296 0.51-0.447 0.895-0.447s0.683 0.151 0.89 0.447c0.207 0.296 0.313 0.71 0.313 1.23s-0.106 0.939-0.313 1.241zM111.296 25.651c-0.146-0.386-0.347-0.715-0.605-0.989s-0.565-0.486-0.929-0.637c-0.364-0.151-0.756-0.229-1.186-0.229s-0.817 0.078-1.176 0.229c-0.358 0.151-0.671 0.363-0.934 0.637s-0.465 0.604-0.616 0.989c-0.145 0.386-0.224 0.816-0.224 1.28s0.073 0.9 0.219 1.291c0.145 0.391 0.347 0.721 0.605 1 0.257 0.274 0.565 0.492 0.923 0.643s0.762 0.229 1.198 0.229c0.437 0 0.851-0.078 1.209-0.229s0.666-0.363 0.924-0.643c0.257-0.274 0.453-0.609 0.593-1 0.134-0.391 0.201-0.822 0.201-1.291s-0.072-0.894-0.218-1.28zM100.393 28.429c-0.347-0.101-0.633-0.218-0.868-0.346l-0.498 1.408c0.106 0.061 0.235 0.123 0.391 0.19s0.342 0.134 0.56 0.196c0.219 0.061 0.465 0.112 0.744 0.151s0.593 0.061 0.94 0.061c1.036 0 1.814-0.201 2.329-0.609 0.515-0.402 0.772-0.972 0.772-1.71 0-0.38-0.051-0.699-0.146-0.967-0.101-0.263-0.246-0.497-0.448-0.693s-0.453-0.369-0.756-0.514c-0.302-0.145-0.661-0.296-1.069-0.447-0.196-0.067-0.375-0.134-0.537-0.201-0.162-0.061-0.308-0.134-0.431-0.218-0.123-0.078-0.224-0.168-0.291-0.268s-0.1-0.218-0.1-0.363c0-0.24 0.095-0.419 0.28-0.537s0.493-0.173 0.912-0.173c0.381 0 0.705 0.045 0.974 0.129 0.269 0.089 0.515 0.184 0.734 0.302l0.509-1.397c-0.252-0.134-0.571-0.263-0.957-0.374s-0.845-0.168-1.377-0.168c-0.448 0-0.851 0.056-1.203 0.162-0.358 0.112-0.66 0.268-0.907 0.469-0.252 0.207-0.442 0.453-0.582 0.743s-0.201 0.62-0.201 0.984c0 0.363 0.062 0.671 0.19 0.928 0.129 0.251 0.297 0.469 0.498 0.648 0.207 0.179 0.437 0.324 0.694 0.442s0.515 0.224 0.772 0.313c0.593 0.196 1.007 0.38 1.248 0.553 0.241 0.168 0.364 0.386 0.364 0.643 0 0.123-0.017 0.229-0.056 0.33s-0.106 0.184-0.207 0.257c-0.101 0.073-0.229 0.128-0.392 0.173-0.162 0.039-0.369 0.061-0.621 0.061-0.498 0-0.924-0.050-1.265-0.151zM92.204 28.63c-0.302-0.061-0.599-0.151-0.884-0.268l-0.286 1.375c0.134 0.061 0.381 0.134 0.733 0.229 0.353 0.089 0.795 0.134 1.327 0.134 0.811 0 1.438-0.151 1.881-0.453s0.666-0.749 0.666-1.336c0-0.251-0.028-0.469-0.084-0.659s-0.157-0.358-0.297-0.514c-0.14-0.156-0.33-0.296-0.576-0.43-0.241-0.134-0.548-0.268-0.923-0.408-0.179-0.067-0.33-0.129-0.448-0.19-0.118-0.056-0.213-0.112-0.28-0.162s-0.112-0.101-0.134-0.151c-0.023-0.050-0.034-0.112-0.034-0.184 0-0.296 0.263-0.442 0.795-0.442 0.291 0 0.548 0.028 0.778 0.078s0.442 0.112 0.644 0.184l0.296-1.319c-0.196-0.078-0.465-0.145-0.795-0.212-0.336-0.067-0.683-0.095-1.047-0.095-0.728 0-1.299 0.162-1.718 0.486-0.415 0.324-0.627 0.766-0.627 1.33 0 0.285 0.045 0.531 0.123 0.738 0.084 0.207 0.202 0.38 0.353 0.525s0.336 0.274 0.554 0.38c0.218 0.106 0.459 0.207 0.722 0.307 0.341 0.129 0.593 0.246 0.761 0.346s0.252 0.224 0.252 0.358c0 0.173-0.067 0.291-0.195 0.352s-0.347 0.089-0.661 0.089-0.593-0.034-0.895-0.095zM84.805 29.938h1.696v-4.611c0.106-0.017 0.229-0.028 0.364-0.039s0.263-0.017 0.386-0.017c0.391 0 0.66 0.112 0.806 0.341s0.218 0.615 0.218 1.157v3.169h1.696v-3.37c0-0.408-0.039-0.782-0.123-1.112-0.084-0.335-0.224-0.62-0.42-0.861s-0.465-0.43-0.8-0.564c-0.336-0.134-0.761-0.201-1.27-0.201s-0.98 0.034-1.433 0.106-0.828 0.151-1.114 0.235v5.767h-0.006zM81.57 28.183c-0.207 0.307-0.504 0.458-0.89 0.458s-0.689-0.151-0.895-0.458c-0.213-0.307-0.319-0.721-0.319-1.241s0.106-0.933 0.319-1.23c0.213-0.296 0.509-0.447 0.895-0.447s0.683 0.151 0.89 0.447c0.207 0.296 0.314 0.71 0.314 1.23s-0.106 0.939-0.314 1.241zM83.394 25.657c-0.145-0.386-0.347-0.715-0.604-0.989s-0.566-0.486-0.929-0.637-0.755-0.229-1.186-0.229c-0.431 0-0.817 0.078-1.175 0.229s-0.672 0.363-0.929 0.637c-0.263 0.274-0.465 0.604-0.616 0.989-0.146 0.386-0.224 0.816-0.224 1.28s0.073 0.9 0.219 1.291c0.145 0.391 0.347 0.721 0.604 1s0.566 0.492 0.924 0.643c0.358 0.151 0.761 0.229 1.198 0.229s0.851-0.078 1.209-0.229c0.358-0.151 0.671-0.363 0.924-0.643 0.257-0.274 0.453-0.609 0.593-1 0.134-0.391 0.207-0.822 0.207-1.291s-0.072-0.894-0.218-1.28zM76.393 21.51c-0.201-0.179-0.437-0.268-0.711-0.268s-0.509 0.089-0.711 0.268c-0.201 0.179-0.302 0.419-0.302 0.732s0.101 0.553 0.302 0.732c0.202 0.179 0.437 0.268 0.711 0.268s0.51-0.089 0.711-0.268c0.201-0.179 0.302-0.419 0.302-0.732s-0.101-0.553-0.302-0.732zM76.533 23.969h-1.695v5.969h1.695v-5.969zM69.85 27.501c0 0.386 0.039 0.738 0.106 1.056 0.073 0.319 0.201 0.587 0.381 0.81 0.185 0.224 0.425 0.397 0.728 0.52s0.683 0.184 1.148 0.184c0.364 0 0.671-0.028 0.923-0.089s0.476-0.134 0.683-0.218l-0.24-1.319c-0.157 0.061-0.336 0.106-0.532 0.14-0.19 0.034-0.381 0.050-0.565 0.050-0.381 0-0.632-0.106-0.756-0.319s-0.19-0.497-0.19-0.849v-2.101h2.037v-1.408h-2.037v-1.76l-1.696 0.274v5.019l0.011 0.011zM65.3 23.841c-0.196 0.017-0.375 0.045-0.554 0.067-0.174 0.028-0.336 0.056-0.481 0.089s-0.269 0.067-0.37 0.095l0.219 1.364c0.201-0.078 0.448-0.134 0.728-0.173s0.565-0.061 0.851-0.061c0.431 0 0.733 0.089 0.907 0.263s0.263 0.402 0.263 0.693v0.157c-0.106-0.028-0.246-0.056-0.414-0.073-0.174-0.017-0.364-0.028-0.588-0.028-0.324 0-0.638 0.034-0.946 0.095-0.302 0.067-0.571 0.168-0.806 0.313s-0.425 0.335-0.565 0.581c-0.14 0.24-0.213 0.537-0.213 0.883s0.062 0.671 0.179 0.922c0.123 0.251 0.297 0.453 0.52 0.609 0.229 0.157 0.498 0.268 0.812 0.335s0.666 0.101 1.052 0.101c0.616 0 1.136-0.034 1.567-0.106s0.767-0.134 1.013-0.184v-3.521c0-0.369-0.039-0.71-0.123-1.012s-0.224-0.559-0.425-0.771-0.47-0.374-0.8-0.486c-0.336-0.112-0.75-0.168-1.248-0.168-0.196 0-0.392 0.011-0.588 0.028zM65.278 28.619c-0.179-0.101-0.269-0.285-0.269-0.548 0-0.134 0.028-0.252 0.090-0.341s0.145-0.162 0.252-0.218c0.106-0.050 0.229-0.089 0.37-0.106s0.291-0.028 0.448-0.028c0.112 0 0.241 0.006 0.375 0.022s0.241 0.028 0.308 0.045v1.28c-0.090 0.017-0.213 0.028-0.364 0.034s-0.313 0.011-0.476 0.011c-0.308 0-0.554-0.050-0.733-0.151zM63.044 24.087c-0.089-0.039-0.201-0.067-0.33-0.095s-0.257-0.050-0.386-0.067c-0.129-0.017-0.257-0.034-0.386-0.045s-0.241-0.017-0.33-0.017c-0.51 0-0.968 0.045-1.382 0.14s-0.772 0.196-1.075 0.302v5.65h1.696v-4.56c0.073-0.022 0.185-0.045 0.336-0.061 0.146-0.017 0.274-0.028 0.381-0.028 0.235 0 0.453 0.022 0.661 0.061s0.381 0.084 0.537 0.117l0.286-1.397h-0.006zM54.089 26.367c0.023-0.145 0.062-0.285 0.106-0.425 0.051-0.14 0.118-0.263 0.213-0.369 0.090-0.106 0.202-0.19 0.342-0.257 0.134-0.067 0.302-0.095 0.487-0.095s0.364 0.034 0.492 0.101c0.134 0.067 0.241 0.157 0.33 0.263 0.084 0.106 0.151 0.229 0.196 0.363 0.039 0.134 0.067 0.274 0.073 0.419h-2.239zM52.539 28.239c0.123 0.38 0.319 0.704 0.582 0.984s0.594 0.492 0.991 0.654 0.867 0.24 1.405 0.24c0.213 0 0.425-0.011 0.638-0.034s0.415-0.050 0.599-0.084c0.185-0.034 0.352-0.073 0.504-0.117s0.274-0.089 0.364-0.134l-0.229-1.375c-0.191 0.084-0.437 0.151-0.733 0.212-0.297 0.056-0.605 0.084-0.913 0.084-0.487 0-0.873-0.101-1.158-0.307s-0.453-0.481-0.487-0.827h3.84c0.005-0.089 0.017-0.196 0.023-0.313s0.011-0.224 0.011-0.324c0-1.006-0.246-1.772-0.738-2.286-0.493-0.52-1.164-0.777-2.015-0.777-0.364 0-0.716 0.067-1.063 0.207s-0.649 0.335-0.918 0.604c-0.263 0.263-0.481 0.598-0.643 0.995s-0.246 0.861-0.246 1.392c0 0.442 0.062 0.849 0.185 1.224zM51.229 25.691c-0.14-0.386-0.342-0.715-0.61-0.984-0.263-0.268-0.593-0.475-0.98-0.626-0.386-0.145-0.828-0.224-1.321-0.224-0.207 0-0.42 0.011-0.644 0.028s-0.442 0.045-0.66 0.073c-0.213 0.028-0.42 0.067-0.621 0.106-0.196 0.045-0.369 0.084-0.521 0.129v7.863h1.696v-2.247c0.19 0.084 0.386 0.145 0.593 0.196 0.202 0.045 0.425 0.067 0.66 0.067 0.425 0 0.8-0.078 1.125-0.229s0.599-0.363 0.817-0.637c0.219-0.274 0.386-0.598 0.498-0.978s0.173-0.799 0.173-1.257c0-0.458-0.072-0.905-0.213-1.297zM48.503 28.636c-0.173 0-0.347-0.022-0.515-0.067-0.174-0.045-0.308-0.101-0.414-0.173v-3.051c0.084-0.017 0.19-0.028 0.319-0.039s0.269-0.017 0.42-0.017c0.465 0 0.812 0.157 1.047 0.469s0.352 0.732 0.352 1.252c0 1.084-0.403 1.621-1.203 1.621zM44.328 24.232c-0.202-0.509-0.487-0.939-0.84-1.291-0.358-0.346-0.772-0.609-1.248-0.782s-0.985-0.263-1.522-0.263-1.019 0.089-1.494 0.263c-0.476 0.173-0.89 0.436-1.248 0.782s-0.644 0.777-0.856 1.291c-0.213 0.514-0.319 1.101-0.319 1.777s0.101 1.263 0.308 1.777c0.202 0.509 0.487 0.939 0.84 1.28 0.358 0.346 0.772 0.604 1.248 0.777s0.985 0.263 1.522 0.263 1.069-0.089 1.55-0.263c0.481-0.173 0.895-0.43 1.243-0.777s0.621-0.771 0.823-1.28c0.202-0.509 0.302-1.101 0.302-1.777s-0.101-1.263-0.308-1.777zM38.765 24.97c0.095-0.313 0.229-0.581 0.409-0.805s0.397-0.397 0.655-0.52c0.257-0.123 0.554-0.184 0.884-0.184s0.621 0.061 0.879 0.179c0.263 0.123 0.481 0.291 0.66 0.514s0.313 0.492 0.409 0.805c0.095 0.313 0.14 0.665 0.14 1.051s-0.045 0.732-0.14 1.045c-0.095 0.313-0.23 0.576-0.409 0.799s-0.397 0.397-0.66 0.514c-0.263 0.123-0.554 0.179-0.879 0.179s-0.627-0.061-0.884-0.179c-0.257-0.123-0.476-0.291-0.655-0.514s-0.313-0.492-0.409-0.799c-0.095-0.313-0.14-0.66-0.14-1.045s0.050-0.727 0.14-1.039z">
            </path>
            <path fill="#fff" style="fill: var(--color1, #fff)"
                d="M147.2 16.548v-16.173h-3.621v9.545c-0.56-0.838-1.158-1.716-1.802-2.627-0.639-0.911-1.282-1.788-1.931-2.638-0.643-0.849-1.281-1.643-1.903-2.392s-1.192-1.375-1.707-1.889h-2.966v16.173h3.599v-10.596c1.371 1.604 2.664 3.308 3.879 5.108 1.215 1.805 2.345 3.633 3.386 5.482h3.062l0.005 0.006zM129.603 4.801c-0.419-1.051-0.996-1.934-1.729-2.649s-1.589-1.252-2.569-1.609c-0.979-0.358-2.026-0.536-3.134-0.536s-2.099 0.179-3.073 0.536c-0.974 0.358-1.83 0.894-2.569 1.609s-1.327 1.598-1.763 2.649c-0.437 1.051-0.655 2.269-0.655 3.655s0.213 2.604 0.633 3.655 0.996 1.928 1.729 2.638c0.733 0.71 1.59 1.241 2.569 1.598s2.026 0.537 3.135 0.537 2.2-0.179 3.19-0.537c0.991-0.358 1.841-0.889 2.558-1.598s1.281-1.587 1.695-2.638c0.415-1.051 0.621-2.269 0.621-3.655s-0.213-2.604-0.632-3.655zM118.169 6.315c0.196-0.643 0.476-1.196 0.839-1.654s0.817-0.816 1.344-1.073c0.532-0.257 1.136-0.386 1.825-0.386s1.276 0.123 1.813 0.374c0.538 0.251 0.991 0.604 1.355 1.062s0.643 1.012 0.839 1.654c0.196 0.648 0.291 1.364 0.291 2.157s-0.095 1.509-0.291 2.146-0.476 1.185-0.839 1.643c-0.364 0.458-0.817 0.81-1.355 1.062-0.537 0.246-1.142 0.374-1.813 0.374s-1.293-0.123-1.825-0.374c-0.532-0.251-0.98-0.604-1.344-1.062s-0.643-1.006-0.839-1.643-0.291-1.352-0.291-2.146c0-0.794 0.095-1.492 0.291-2.135zM107.428 16.548h3.644v-16.173h-3.644v16.173zM91.673 0.374v3.102h4.886v13.072h3.644v-13.072h4.886v-3.102h-13.416zM85.007 4.985c0.157 0.402 0.341 0.872 0.548 1.403s0.431 1.112 0.66 1.755c0.235 0.637 0.47 1.308 0.722 2.012h-4.635c0.257-0.699 0.51-1.369 0.756-2.006s0.47-1.218 0.671-1.749c0.202-0.531 0.375-0.995 0.532-1.403 0.157-0.402 0.274-0.721 0.358-0.956 0.095 0.229 0.224 0.548 0.381 0.95zM92.904 16.548c-0.61-1.744-1.186-3.353-1.735-4.829s-1.086-2.873-1.606-4.175c-0.526-1.308-1.047-2.548-1.562-3.722s-1.041-2.319-1.573-3.443h-3.453c-0.548 1.118-1.075 2.269-1.584 3.443s-1.024 2.414-1.544 3.722c-0.526 1.308-1.058 2.699-1.606 4.175-0.548 1.481-1.125 3.090-1.735 4.829h3.784c0.179-0.559 0.369-1.135 0.576-1.727s0.409-1.185 0.615-1.772h6.325c0.207 0.587 0.414 1.179 0.621 1.772s0.403 1.168 0.582 1.732h3.907l-0.011-0.006zM70.746 16.548h3.644v-16.173h-3.644v16.173zM62.193 16.548c0.644-1.352 1.276-2.761 1.897-4.225s1.215-2.912 1.774-4.342c0.56-1.431 1.080-2.8 1.55-4.102s0.89-2.47 1.254-3.504h-3.879c-0.308 0.939-0.643 1.95-1.013 3.029s-0.75 2.157-1.136 3.23c-0.386 1.073-0.756 2.101-1.12 3.079-0.358 0.984-0.694 1.827-0.996 2.537-0.324-0.715-0.66-1.559-1.013-2.543s-0.722-2.012-1.108-3.079c-0.386-1.073-0.762-2.146-1.136-3.23-0.37-1.079-0.711-2.085-1.013-3.023h-4.019c0.342 1.028 0.756 2.191 1.226 3.498 0.476 1.308 0.991 2.677 1.556 4.108s1.159 2.878 1.786 4.337 1.265 2.873 1.909 4.231h3.481zM45.408 4.991c0.157 0.402 0.341 0.872 0.548 1.403s0.431 1.112 0.66 1.755c0.235 0.637 0.47 1.308 0.722 2.012h-4.629c0.257-0.699 0.504-1.369 0.756-2.006 0.246-0.637 0.47-1.218 0.672-1.749s0.381-0.995 0.537-1.403c0.157-0.402 0.274-0.721 0.358-0.956 0.095 0.229 0.224 0.548 0.381 0.95zM53.316 16.553c-0.61-1.744-1.192-3.353-1.735-4.829-0.548-1.475-1.086-2.873-1.606-4.175-0.526-1.308-1.047-2.548-1.562-3.722s-1.041-2.319-1.573-3.443h-3.459c-0.549 1.118-1.075 2.269-1.584 3.443s-1.024 2.414-1.545 3.722c-0.526 1.308-1.058 2.699-1.606 4.175-0.548 1.481-1.125 3.090-1.735 4.829h3.784c0.179-0.559 0.369-1.134 0.577-1.727s0.409-1.185 0.616-1.772h6.325c0.207 0.587 0.414 1.179 0.621 1.772s0.403 1.168 0.582 1.732h3.907l-0.006-0.006z">
            </path>
        </symbol>
    </defs>
</svg>